<?xml version="1.0" encoding="UTF-8" standalone="no"?>
<!-- Created with Inkscape (http://www.inkscape.org/) -->

<svg
   width="63mm"
   height="88mm"
   viewBox="0 0 63 88"
   version="1.1"
   id="svg5"
   inkscape:version="1.2.2 (b0a8486541, 2022-12-01)"
   sodipodi:docname="2c.svg"
   xml:space="preserve"
   inkscape:export-filename="../card/2s.png"
   inkscape:export-xdpi="144"
   inkscape:export-ydpi="144"
   xmlns:inkscape="http://www.inkscape.org/namespaces/inkscape"
   xmlns:sodipodi="http://sodipodi.sourceforge.net/DTD/sodipodi-0.dtd"
   xmlns="http://www.w3.org/2000/svg"
   xmlns:svg="http://www.w3.org/2000/svg"><sodipodi:namedview
     id="namedview7"
     pagecolor="#7d7d7d"
     bordercolor="#ffffff"
     borderopacity="1"
     inkscape:showpageshadow="false"
     inkscape:pageopacity="0"
     inkscape:pagecheckerboard="true"
     inkscape:deskcolor="#505050"
     inkscape:document-units="mm"
     showgrid="false"
     showborder="true"
     borderlayer="true"
     inkscape:zoom="8.272056"
     inkscape:cx="99.733367"
     inkscape:cy="251.2072"
     inkscape:window-width="1920"
     inkscape:window-height="1011"
     inkscape:window-x="0"
     inkscape:window-y="32"
     inkscape:window-maximized="1"
     inkscape:current-layer="layer1" /><defs
     id="defs2" /><g
     inkscape:label="Layer 1"
     inkscape:groupmode="layer"
     id="layer1"><rect
       style="fill:#f5f5ec;fill-opacity:1;stroke:none;stroke-width:1;stroke-linecap:round;stroke-linejoin:round;stroke-opacity:1"
       id="rect4722"
       width="63"
       height="88"
       x="-1.008e-08"
       y="-1.0057143e-08"
       rx="3"
       ry="3" /><text
       xml:space="preserve"
       style="font-style:normal;font-variant:normal;font-weight:bold;font-stretch:normal;font-size:14.1111px;font-family:'Ubuntu Mono';-inkscape-font-specification:'Ubuntu Mono, Bold';font-variant-ligatures:normal;font-variant-caps:normal;font-variant-numeric:normal;font-variant-east-asian:normal;fill:#800080;stroke-width:1;stroke-linecap:round;stroke-linejoin:round"
       x="3.2677419"
       y="13.12468"
       id="text3260-7-7-7-7-7-5"><tspan
         sodipodi:role="line"
         id="tspan394-5-5-5-5-3"
         x="3.2677419"
         y="13.12468">2</tspan></text><text
       xml:space="preserve"
       style="font-style:normal;font-variant:normal;font-weight:bold;font-stretch:normal;font-size:14.1111px;font-family:'Ubuntu Mono';-inkscape-font-specification:'Ubuntu Mono, Bold';font-variant-ligatures:normal;font-variant-caps:normal;font-variant-numeric:normal;font-variant-east-asian:normal;fill:#800080;stroke-width:1;stroke-linecap:round;stroke-linejoin:round"
       x="-59.732544"
       y="-74.875114"
       id="text3260-7-7-7-7-7-5-5"
       transform="scale(-1)"><tspan
         sodipodi:role="line"
         id="tspan394-5-5-5-5-3-6"
         x="-59.732544"
         y="-74.875114">2</tspan></text><path
       id="path802-3"
       style="fill:#800080;fill-opacity:1;stroke-width:0.052;stroke-linecap:round;stroke-linejoin:round;stroke-dasharray:none"
       d="m 31.500001,10.433959 c -1.829436,-3.7e-5 -3.312498,1.483024 -3.31246,3.31246 8.39e-4,1.03706 0.487332,2.01387 1.31452,2.639374 -0.415021,-0.179415 -0.862379,-0.271964 -1.31452,-0.271947 -1.829436,-3.8e-5 -3.312496,1.483022 -3.312459,3.312458 -3.7e-5,1.829438 1.483023,3.312498 3.312459,3.31246 1.315699,-1.85e-4 2.506559,-0.779048 3.034052,-1.984375 -0.120387,1.992917 -1.111006,3.568712 -2.43396,4.148327 0,0 1.776089,-0.729929 2.712368,-0.72993 0.936277,0 2.712366,0.72993 2.712366,0.72993 -1.323236,-0.579738 -2.313925,-2.156099 -2.43396,-4.149619 0.527105,1.205832 1.718048,1.985257 3.034053,1.985667 1.829437,3.8e-5 3.312497,-1.483022 3.31246,-3.31246 3.7e-5,-1.829436 -1.483023,-3.312496 -3.31246,-3.312458 -0.455159,7.56e-4 -0.905279,0.09531 -1.32227,0.277761 0.831737,-0.625123 1.321418,-1.604724 1.32227,-2.645188 3.7e-5,-1.829436 -1.483023,-3.312497 -3.312459,-3.31246 z"
       sodipodi:nodetypes="ccccccccscccccccc" /><path
       id="path802-3-6"
       style="fill:#800080;fill-opacity:1;stroke-width:0.052;stroke-linecap:round;stroke-linejoin:round;stroke-dasharray:none"
       d="m 31.5,77.566041 c -1.829436,3.7e-5 -3.312498,-1.483024 -3.31246,-3.31246 8.39e-4,-1.03706 0.487332,-2.01387 1.31452,-2.639374 -0.415021,0.179415 -0.862379,0.271964 -1.31452,0.271947 -1.829436,3.8e-5 -3.312496,-1.483022 -3.312459,-3.312458 -3.7e-5,-1.829438 1.483023,-3.312498 3.312459,-3.31246 1.315699,1.85e-4 2.506559,0.779048 3.034052,1.984375 -0.120387,-1.992917 -1.111006,-3.568712 -2.43396,-4.148327 0,0 1.776089,0.729929 2.712368,0.72993 0.936277,0 2.712366,-0.72993 2.712366,-0.72993 -1.323236,0.579738 -2.313925,2.156099 -2.43396,4.149619 0.527105,-1.205832 1.718048,-1.985257 3.034053,-1.985667 1.829437,-3.8e-5 3.312497,1.483022 3.31246,3.31246 3.7e-5,1.829436 -1.483023,3.312496 -3.31246,3.312458 -0.455159,-7.56e-4 -0.905279,-0.09531 -1.32227,-0.277761 0.831737,0.625123 1.321418,1.604724 1.32227,2.645188 3.7e-5,1.829436 -1.483023,3.312497 -3.312459,3.31246 z"
       sodipodi:nodetypes="ccccccccscccccccc" /><path
       id="path802-3-3"
       style="fill:#800080;fill-opacity:1;stroke-width:0.052;stroke-linecap:round;stroke-linejoin:round;stroke-dasharray:none"
       d="m 6.8307949,14.612325 c -1.097662,-2.3e-5 -1.987498,0.889814 -1.987476,1.987476 5.03e-4,0.622236 0.2924,1.208322 0.788712,1.583624 -0.249013,-0.107649 -0.517427,-0.163178 -0.788712,-0.163169 -1.097662,-2.2e-5 -1.987498,0.889814 -1.987475,1.987476 -2.3e-5,1.097662 0.889813,1.987498 1.987475,1.987476 0.789419,-1.11e-4 1.503935,-0.46743 1.820432,-1.190625 -0.07223,1.195749 -0.666604,2.141226 -1.460376,2.488995 0,0 1.065653,-0.437957 1.62742,-0.437958 0.561767,0 1.62742,0.437958 1.62742,0.437958 -0.793942,-0.347842 -1.388355,-1.293659 -1.460376,-2.489771 0.316263,0.7235 1.030828,1.191155 1.820431,1.191401 1.097663,2.2e-5 1.9874991,-0.889814 1.9874761,-1.987476 2.3e-5,-1.097662 -0.8898131,-1.987498 -1.9874761,-1.987476 -0.273095,4.54e-4 -0.543167,0.05719 -0.793362,0.166657 0.499043,-0.375073 0.792852,-0.962834 0.793362,-1.587112 2.3e-5,-1.097662 -0.889813,-1.987499 -1.987475,-1.987476 z"
       sodipodi:nodetypes="ccccccccscccccccc" /><path
       id="path802-3-3-5"
       style="fill:#800080;fill-opacity:1;stroke-width:0.052;stroke-linecap:round;stroke-linejoin:round;stroke-dasharray:none"
       d="m 56.16949,73.387471 c -1.097662,2.3e-5 -1.987498,-0.889814 -1.987476,-1.987476 5.03e-4,-0.622236 0.2924,-1.208322 0.788712,-1.583624 -0.249013,0.107649 -0.517427,0.163178 -0.788712,0.163169 -1.097662,2.2e-5 -1.987498,-0.889814 -1.987475,-1.987476 -2.3e-5,-1.097662 0.889813,-1.987498 1.987475,-1.987476 0.789419,1.11e-4 1.503935,0.46743 1.820432,1.190625 -0.07223,-1.195749 -0.666604,-2.141226 -1.460376,-2.488995 0,0 1.065653,0.437957 1.62742,0.437958 0.561767,0 1.62742,-0.437958 1.62742,-0.437958 -0.793942,0.347842 -1.388355,1.293659 -1.460376,2.489771 0.316263,-0.7235 1.030828,-1.191155 1.820431,-1.191401 1.097663,-2.2e-5 1.987499,0.889814 1.987476,1.987476 2.3e-5,1.097662 -0.889813,1.987498 -1.987476,1.987476 -0.273095,-4.54e-4 -0.543167,-0.05719 -0.793362,-0.166657 0.499043,0.375073 0.792852,0.962834 0.793362,1.587112 2.3e-5,1.097662 -0.889813,1.987499 -1.987475,1.987476 z"
       sodipodi:nodetypes="ccccccccscccccccc" /></g></svg>
