<?xml version="1.0" encoding="UTF-8" standalone="no"?>
<!-- Created with Inkscape (http://www.inkscape.org/) -->

<svg
   width="63mm"
   height="88mm"
   viewBox="0 0 63 88"
   version="1.1"
   id="svg5"
   inkscape:version="1.2.2 (b0a8486541, 2022-12-01)"
   sodipodi:docname="4c.svg"
   xml:space="preserve"
   inkscape:export-filename="../card/4s.png"
   inkscape:export-xdpi="144"
   inkscape:export-ydpi="144"
   xmlns:inkscape="http://www.inkscape.org/namespaces/inkscape"
   xmlns:sodipodi="http://sodipodi.sourceforge.net/DTD/sodipodi-0.dtd"
   xmlns="http://www.w3.org/2000/svg"
   xmlns:svg="http://www.w3.org/2000/svg"><sodipodi:namedview
     id="namedview7"
     pagecolor="#7d7d7d"
     bordercolor="#ffffff"
     borderopacity="1"
     inkscape:showpageshadow="false"
     inkscape:pageopacity="0"
     inkscape:pagecheckerboard="true"
     inkscape:deskcolor="#505050"
     inkscape:document-units="mm"
     showgrid="false"
     showborder="true"
     borderlayer="true"
     inkscape:zoom="9.6896154"
     inkscape:cx="124.72115"
     inkscape:cy="251.71278"
     inkscape:window-width="1920"
     inkscape:window-height="1011"
     inkscape:window-x="0"
     inkscape:window-y="32"
     inkscape:window-maximized="1"
     inkscape:current-layer="layer1" /><defs
     id="defs2" /><g
     inkscape:label="Layer 1"
     inkscape:groupmode="layer"
     id="layer1"><rect
       style="fill:#f5f5ec;fill-opacity:1;stroke:none;stroke-width:1;stroke-linecap:round;stroke-linejoin:round;stroke-opacity:1"
       id="rect4722"
       width="63"
       height="88"
       x="-1.008e-08"
       y="-1.0057143e-08"
       rx="3"
       ry="3" /><text
       xml:space="preserve"
       style="font-style:normal;font-variant:normal;font-weight:bold;font-stretch:normal;font-size:14.1111px;font-family:'Ubuntu Mono';-inkscape-font-specification:'Ubuntu Mono, Bold';font-variant-ligatures:normal;font-variant-caps:normal;font-variant-numeric:normal;font-variant-east-asian:normal;fill:#800080;stroke-width:1;stroke-linecap:round;stroke-linejoin:round"
       x="3.2889087"
       y="13.025902"
       id="text3260-7-7-7-7-7"><tspan
         sodipodi:role="line"
         id="tspan332"
         x="3.2889087"
         y="13.025902">4</tspan></text><text
       xml:space="preserve"
       style="font-style:normal;font-variant:normal;font-weight:bold;font-stretch:normal;font-size:14.1111px;font-family:'Ubuntu Mono';-inkscape-font-specification:'Ubuntu Mono, Bold';font-variant-ligatures:normal;font-variant-caps:normal;font-variant-numeric:normal;font-variant-east-asian:normal;fill:#800080;stroke-width:1;stroke-linecap:round;stroke-linejoin:round"
       x="-59.711376"
       y="-74.973892"
       id="text3260-7-7-7-7-7-2"
       transform="scale(-1)"><tspan
         sodipodi:role="line"
         id="tspan332-9"
         x="-59.711376"
         y="-74.973892">4</tspan></text><path
       id="path802-3"
       style="fill:#800080;fill-opacity:1;stroke-width:0.052;stroke-linecap:round;stroke-linejoin:round;stroke-dasharray:none"
       d="m 43.537766,10.43396 c -1.829436,-3.9e-5 -3.312496,1.483023 -3.312459,3.312459 8.39e-4,1.03706 0.487331,2.01387 1.314519,2.639374 -0.41502,-0.179415 -0.862378,-0.271964 -1.314519,-0.271948 -1.829436,-3.7e-5 -3.312497,1.483024 -3.312459,3.31246 -3.8e-5,1.829436 1.483023,3.312496 3.312459,3.312459 1.315699,-1.85e-4 2.506558,-0.779048 3.034053,-1.984375 -0.120375,1.992916 -1.111008,3.568711 -2.43396,4.148326 0,0 1.776088,-0.729929 2.712366,-0.72993 0.936279,0 2.712367,0.72993 2.712367,0.72993 -1.323236,-0.579738 -2.313926,-2.156099 -2.43396,-4.149617 0.527104,1.205831 1.718048,1.985256 3.034053,1.985666 1.829436,3.7e-5 3.312496,-1.483023 3.312459,-3.312459 3.7e-5,-1.829436 -1.483023,-3.312497 -3.312459,-3.31246 -0.45516,7.56e-4 -0.905279,0.09531 -1.322271,0.277761 0.831738,-0.625122 1.32142,-1.604724 1.322271,-2.645187 3.7e-5,-1.829436 -1.483023,-3.312498 -3.31246,-3.312459 z"
       sodipodi:nodetypes="ccccccccscccccccc" /><path
       id="path802-3-2"
       style="fill:#800080;fill-opacity:1;stroke-width:0.052;stroke-linecap:round;stroke-linejoin:round;stroke-dasharray:none"
       d="m 19.462231,10.43396 c -1.829436,-3.9e-5 -3.312496,1.483023 -3.312459,3.312459 8.39e-4,1.03706 0.487331,2.01387 1.314519,2.639374 -0.41502,-0.179415 -0.862378,-0.271964 -1.314519,-0.271948 -1.829436,-3.7e-5 -3.312497,1.483024 -3.312459,3.31246 -3.8e-5,1.829436 1.483023,3.312496 3.312459,3.312459 1.315699,-1.85e-4 2.506558,-0.779048 3.034053,-1.984375 -0.120375,1.992916 -1.111008,3.568711 -2.43396,4.148326 0,0 1.776088,-0.729929 2.712366,-0.72993 0.936279,0 2.712367,0.72993 2.712367,0.72993 -1.323236,-0.579738 -2.313926,-2.156099 -2.43396,-4.149617 0.527104,1.205831 1.718048,1.985256 3.034053,1.985666 1.829436,3.7e-5 3.312496,-1.483023 3.312459,-3.312459 3.7e-5,-1.829436 -1.483023,-3.312497 -3.312459,-3.31246 -0.45516,7.56e-4 -0.905279,0.09531 -1.322271,0.277761 0.831738,-0.625122 1.32142,-1.604724 1.322271,-2.645187 3.7e-5,-1.829436 -1.483023,-3.312498 -3.31246,-3.312459 z"
       sodipodi:nodetypes="ccccccccscccccccc" /><path
       id="path802-3-3"
       style="fill:#800080;fill-opacity:1;stroke-width:0.052;stroke-linecap:round;stroke-linejoin:round;stroke-dasharray:none"
       d="m 6.8307949,14.612325 c -1.097662,-2.3e-5 -1.987498,0.889813 -1.987475,1.987475 5.03e-4,0.622236 0.292398,1.208322 0.788711,1.583624 -0.249012,-0.107649 -0.517427,-0.163178 -0.788711,-0.163168 -1.0976619,-2.2e-5 -1.9874989,0.889814 -1.9874759,1.987476 -2.3e-5,1.097662 0.889814,1.987498 1.9874759,1.987475 0.789419,-1.11e-4 1.503934,-0.467428 1.820431,-1.190625 -0.07223,1.19575 -0.666604,2.141227 -1.460376,2.488996 0,0 1.065653,-0.437957 1.62742,-0.437958 0.561767,0 1.62742,0.437958 1.62742,0.437958 -0.793941,-0.347843 -1.388355,-1.293659 -1.460375,-2.48977 0.316262,0.723498 1.030828,1.191153 1.820431,1.191399 1.097662,2.3e-5 1.9874981,-0.889813 1.9874751,-1.987475 2.3e-5,-1.097662 -0.8898131,-1.987498 -1.9874751,-1.987476 -0.273096,4.54e-4 -0.543167,0.05719 -0.793363,0.166657 0.499043,-0.375074 0.792852,-0.962835 0.793363,-1.587113 2.2e-5,-1.097662 -0.889814,-1.987498 -1.987476,-1.987475 z"
       sodipodi:nodetypes="ccccccccscccccccc" /><path
       id="path802-3-3-5"
       style="fill:#800080;fill-opacity:1;stroke-width:0.052;stroke-linecap:round;stroke-linejoin:round;stroke-dasharray:none"
       d="m 56.16949,73.387471 c -1.097662,2.3e-5 -1.987498,-0.889813 -1.987475,-1.987475 5.03e-4,-0.622236 0.292398,-1.208322 0.788711,-1.583624 -0.249012,0.107649 -0.517427,0.163178 -0.788711,0.163168 -1.097662,2.2e-5 -1.987499,-0.889814 -1.987476,-1.987476 -2.3e-5,-1.097662 0.889814,-1.987498 1.987476,-1.987475 0.789419,1.11e-4 1.503934,0.467428 1.820431,1.190625 -0.07223,-1.19575 -0.666604,-2.141227 -1.460376,-2.488996 0,0 1.065653,0.437957 1.62742,0.437958 0.561767,0 1.62742,-0.437958 1.62742,-0.437958 -0.793941,0.347843 -1.388355,1.293659 -1.460375,2.48977 0.316262,-0.723498 1.030828,-1.191153 1.820431,-1.191399 1.097662,-2.3e-5 1.987498,0.889813 1.987475,1.987475 2.3e-5,1.097662 -0.889813,1.987498 -1.987475,1.987476 -0.273096,-4.54e-4 -0.543167,-0.05719 -0.793363,-0.166657 0.499043,0.375074 0.792852,0.962835 0.793363,1.587113 2.2e-5,1.097662 -0.889814,1.987498 -1.987476,1.987475 z"
       sodipodi:nodetypes="ccccccccscccccccc" /><path
       id="path802-3-9"
       style="fill:#800080;fill-opacity:1;stroke-width:0.052;stroke-linecap:round;stroke-linejoin:round;stroke-dasharray:none"
       d="m 43.537767,77.56604 c -1.829436,3.9e-5 -3.312496,-1.483023 -3.312459,-3.312459 8.39e-4,-1.03706 0.487331,-2.01387 1.314519,-2.639374 -0.41502,0.179415 -0.862378,0.271964 -1.314519,0.271948 -1.829436,3.7e-5 -3.312497,-1.483024 -3.312459,-3.31246 -3.8e-5,-1.829436 1.483023,-3.312496 3.312459,-3.312459 1.315699,1.85e-4 2.506558,0.779048 3.034053,1.984375 -0.120375,-1.992916 -1.111008,-3.568711 -2.43396,-4.148326 0,0 1.776088,0.729929 2.712366,0.72993 0.936279,0 2.712367,-0.72993 2.712367,-0.72993 -1.323236,0.579738 -2.313926,2.156099 -2.43396,4.149617 0.527104,-1.205831 1.718048,-1.985256 3.034053,-1.985666 1.829436,-3.7e-5 3.312496,1.483023 3.312459,3.312459 3.7e-5,1.829436 -1.483023,3.312497 -3.312459,3.31246 -0.45516,-7.56e-4 -0.905279,-0.09531 -1.322271,-0.277761 0.831738,0.625122 1.32142,1.604724 1.322271,2.645187 3.7e-5,1.829436 -1.483023,3.312498 -3.31246,3.312459 z"
       sodipodi:nodetypes="ccccccccscccccccc" /><path
       id="path802-3-1"
       style="fill:#800080;fill-opacity:1;stroke-width:0.052;stroke-linecap:round;stroke-linejoin:round;stroke-dasharray:none"
       d="m 19.462232,77.56604 c -1.829436,3.9e-5 -3.312496,-1.483023 -3.312459,-3.312459 8.39e-4,-1.03706 0.487331,-2.01387 1.314519,-2.639374 -0.41502,0.179415 -0.862378,0.271964 -1.314519,0.271948 -1.829436,3.7e-5 -3.312497,-1.483024 -3.312459,-3.31246 -3.8e-5,-1.829436 1.483023,-3.312496 3.312459,-3.312459 1.315699,1.85e-4 2.506558,0.779048 3.034053,1.984375 -0.120375,-1.992916 -1.111008,-3.568711 -2.43396,-4.148326 0,0 1.776088,0.729929 2.712366,0.72993 0.936279,0 2.712367,-0.72993 2.712367,-0.72993 -1.323236,0.579738 -2.313926,2.156099 -2.43396,4.149617 0.527104,-1.205831 1.718048,-1.985256 3.034053,-1.985666 1.829436,-3.7e-5 3.312496,1.483023 3.312459,3.312459 3.7e-5,1.829436 -1.483023,3.312497 -3.312459,3.31246 -0.45516,-7.56e-4 -0.905279,-0.09531 -1.322271,-0.277761 0.831738,0.625122 1.32142,1.604724 1.322271,2.645187 3.7e-5,1.829436 -1.483023,3.312498 -3.31246,3.312459 z"
       sodipodi:nodetypes="ccccccccscccccccc" /></g></svg>
