<?xml version="1.0" encoding="UTF-8" standalone="no"?>
<!-- Created with Inkscape (http://www.inkscape.org/) -->

<svg
   width="63mm"
   height="88mm"
   viewBox="0 0 63 88"
   version="1.1"
   id="svg5"
   inkscape:version="1.2.2 (b0a8486541, 2022-12-01)"
   sodipodi:docname="4h.svg"
   xml:space="preserve"
   inkscape:export-filename="../card/4s.png"
   inkscape:export-xdpi="144"
   inkscape:export-ydpi="144"
   xmlns:inkscape="http://www.inkscape.org/namespaces/inkscape"
   xmlns:sodipodi="http://sodipodi.sourceforge.net/DTD/sodipodi-0.dtd"
   xmlns="http://www.w3.org/2000/svg"
   xmlns:svg="http://www.w3.org/2000/svg"><sodipodi:namedview
     id="namedview7"
     pagecolor="#7d7d7d"
     bordercolor="#ffffff"
     borderopacity="1"
     inkscape:showpageshadow="false"
     inkscape:pageopacity="0"
     inkscape:pagecheckerboard="true"
     inkscape:deskcolor="#505050"
     inkscape:document-units="mm"
     showgrid="false"
     showborder="true"
     borderlayer="true"
     inkscape:zoom="1.6443803"
     inkscape:cx="92.13197"
     inkscape:cy="114.32878"
     inkscape:window-width="1920"
     inkscape:window-height="1011"
     inkscape:window-x="0"
     inkscape:window-y="32"
     inkscape:window-maximized="1"
     inkscape:current-layer="layer1" /><defs
     id="defs2" /><g
     inkscape:label="Layer 1"
     inkscape:groupmode="layer"
     id="layer1"><rect
       style="fill:#f5f5ec;fill-opacity:1;stroke:none;stroke-width:1;stroke-linecap:round;stroke-linejoin:round;stroke-opacity:1"
       id="rect4722"
       width="63"
       height="88"
       x="-1.008e-08"
       y="-1.0057143e-08"
       rx="3"
       ry="3" /><text
       xml:space="preserve"
       style="font-style:normal;font-variant:normal;font-weight:bold;font-stretch:normal;font-size:14.1111px;font-family:'Ubuntu Mono';-inkscape-font-specification:'Ubuntu Mono, Bold';font-variant-ligatures:normal;font-variant-caps:normal;font-variant-numeric:normal;font-variant-east-asian:normal;fill:#ffbf00;stroke-width:1;stroke-linecap:round;stroke-linejoin:round;fill-opacity:1"
       x="3.2889087"
       y="13.025902"
       id="text3260-7-7-7-7-7"><tspan
         sodipodi:role="line"
         id="tspan332"
         x="3.2889087"
         y="13.025902">4</tspan></text><text
       xml:space="preserve"
       style="font-style:normal;font-variant:normal;font-weight:bold;font-stretch:normal;font-size:14.1111px;font-family:'Ubuntu Mono';-inkscape-font-specification:'Ubuntu Mono, Bold';font-variant-ligatures:normal;font-variant-caps:normal;font-variant-numeric:normal;font-variant-east-asian:normal;fill:#ffbf00;stroke-width:1;stroke-linecap:round;stroke-linejoin:round;fill-opacity:1"
       x="-59.711376"
       y="-74.973892"
       id="text3260-7-7-7-7-7-2"
       transform="scale(-1)"><tspan
         sodipodi:role="line"
         id="tspan332-9"
         x="-59.711376"
         y="-74.973892">4</tspan></text><path
       style="fill:#ffbf00;fill-opacity:1;stroke-width:0.052;stroke-linecap:round;stroke-linejoin:round;stroke-dasharray:none"
       d="m 23.140113,10.884952 c 1.996101,-0.02235 3.54443,1.46185 3.462784,3.791661 0.0157,1.992272 -2.149385,4.011964 -3.959776,5.59707 -1.810393,1.585107 -3.180889,4.178288 -3.180889,4.178288 0,0 -1.370496,-2.593181 -3.180889,-4.178288 -1.810391,-1.585106 -3.975475,-3.604798 -3.959775,-5.59707 -0.08165,-2.329811 1.466681,-3.81401 3.462781,-3.791661 2.227045,0.05074 3.677883,2.290001 3.677883,2.290001 0,0 1.450837,-2.239258 3.677881,-2.290001 z"
       id="path802-3"
       sodipodi:nodetypes="cczczcccc" /><path
       style="fill:#ffbf00;fill-opacity:1;stroke-width:0.052;stroke-linecap:round;stroke-linejoin:round;stroke-dasharray:none"
       d="m 47.215648,10.884952 c 1.996101,-0.02235 3.54443,1.46185 3.462784,3.791661 0.0157,1.992272 -2.149385,4.011964 -3.959776,5.59707 -1.810393,1.585107 -3.180889,4.178288 -3.180889,4.178288 0,0 -1.370496,-2.593181 -3.180889,-4.178288 -1.810391,-1.585106 -3.975475,-3.604798 -3.959775,-5.59707 -0.08165,-2.329811 1.466681,-3.81401 3.462781,-3.791661 2.227045,0.05074 3.677883,2.290001 3.677883,2.290001 0,0 1.450837,-2.239258 3.677881,-2.290001 z"
       id="path802-3-9"
       sodipodi:nodetypes="cczczcccc" /><path
       style="fill:#ffbf00;fill-opacity:1;stroke-width:0.052;stroke-linecap:round;stroke-linejoin:round;stroke-dasharray:none"
       d="m 47.215648,77.115048 c 1.996101,0.02235 3.54443,-1.46185 3.462784,-3.791661 0.0157,-1.992272 -2.149385,-4.011964 -3.959776,-5.59707 -1.810393,-1.585107 -3.180889,-4.178288 -3.180889,-4.178288 0,0 -1.370496,2.593181 -3.180889,4.178288 -1.810391,1.585106 -3.975475,3.604798 -3.959775,5.59707 -0.08165,2.329811 1.466681,3.81401 3.462781,3.791661 2.227045,-0.05074 3.677883,-2.290001 3.677883,-2.290001 0,0 1.450837,2.239258 3.677881,2.290001 z"
       id="path802-3-9-1"
       sodipodi:nodetypes="cczczcccc" /><path
       style="fill:#ffbf00;fill-opacity:1;stroke-width:0.052;stroke-linecap:round;stroke-linejoin:round;stroke-dasharray:none"
       d="m 23.140113,77.115048 c 1.996101,0.02235 3.54443,-1.46185 3.462784,-3.791661 0.0157,-1.992272 -2.149385,-4.011964 -3.959776,-5.59707 -1.810393,-1.585107 -3.180889,-4.178288 -3.180889,-4.178288 0,0 -1.370496,2.593181 -3.180889,4.178288 -1.810391,1.585106 -3.975475,3.604798 -3.959775,5.59707 -0.08165,2.329811 1.466681,3.81401 3.462781,3.791661 2.227045,-0.05074 3.677883,-2.290001 3.677883,-2.290001 0,0 1.450837,2.239258 3.677881,2.290001 z"
       id="path802-3-9-1-2"
       sodipodi:nodetypes="cczczcccc" /><path
       style="fill:#ffbf00;fill-opacity:1;stroke-width:0.052;stroke-linecap:round;stroke-linejoin:round;stroke-dasharray:none"
       d="m 9.0375237,14.882921 c 1.1976613,-0.01341 2.1266583,0.87711 2.0776703,2.274996 0.0094,1.195363 -1.2896313,2.407178 -2.3758653,3.358243 -1.086236,0.951063 -1.908534,2.506972 -1.908534,2.506972 0,0 -0.822297,-1.555909 -1.908533,-2.506972 -1.0862354,-0.951064 -2.3852854,-2.16288 -2.3758654,-3.358242 -0.04899,-1.397887 0.880009,-2.288406 2.0776694,-2.274997 1.336227,0.03044 2.206729,1.374001 2.206729,1.374001 0,0 0.870503,-1.343556 2.206729,-1.374001 z"
       id="path802-3-5"
       sodipodi:nodetypes="cczczcccc" /><path
       style="fill:#ffbf00;fill-opacity:1;stroke-width:0.052;stroke-linecap:round;stroke-linejoin:round;stroke-dasharray:none"
       d="m 58.376219,73.116875 c 1.197661,0.01341 2.126658,-0.87711 2.07767,-2.274996 0.0094,-1.195363 -1.289631,-2.407178 -2.375865,-3.358243 -1.086236,-0.951063 -1.908534,-2.506972 -1.908534,-2.506972 0,0 -0.822297,1.555909 -1.908533,2.506972 -1.086236,0.951064 -2.385286,2.16288 -2.375866,3.358242 -0.04899,1.397887 0.880009,2.288406 2.07767,2.274997 1.336227,-0.03044 2.206729,-1.374001 2.206729,-1.374001 0,0 0.870503,1.343556 2.206729,1.374001 z"
       id="path802-3-5-6"
       sodipodi:nodetypes="cczczcccc" /></g></svg>
