<?xml version="1.0" encoding="UTF-8" standalone="no"?>
<!-- Created with Inkscape (http://www.inkscape.org/) -->

<svg
   width="63mm"
   height="88mm"
   viewBox="0 0 63 88"
   version="1.1"
   id="svg5"
   inkscape:version="1.2.2 (b0a8486541, 2022-12-01)"
   sodipodi:docname="5c.svg"
   xml:space="preserve"
   inkscape:export-filename="../card/5s.png"
   inkscape:export-xdpi="144"
   inkscape:export-ydpi="144"
   xmlns:inkscape="http://www.inkscape.org/namespaces/inkscape"
   xmlns:sodipodi="http://sodipodi.sourceforge.net/DTD/sodipodi-0.dtd"
   xmlns="http://www.w3.org/2000/svg"
   xmlns:svg="http://www.w3.org/2000/svg"><sodipodi:namedview
     id="namedview7"
     pagecolor="#7d7d7d"
     bordercolor="#ffffff"
     borderopacity="1"
     inkscape:showpageshadow="false"
     inkscape:pageopacity="0"
     inkscape:pagecheckerboard="true"
     inkscape:deskcolor="#505050"
     inkscape:document-units="mm"
     showgrid="false"
     showborder="true"
     borderlayer="true"
     inkscape:zoom="3.1050517"
     inkscape:cx="49.113513"
     inkscape:cy="61.512663"
     inkscape:window-width="1920"
     inkscape:window-height="1011"
     inkscape:window-x="0"
     inkscape:window-y="32"
     inkscape:window-maximized="1"
     inkscape:current-layer="layer1" /><defs
     id="defs2" /><g
     inkscape:label="Layer 1"
     inkscape:groupmode="layer"
     id="layer1"><rect
       style="fill:#f5f5ec;fill-opacity:1;stroke:none;stroke-width:1;stroke-linecap:round;stroke-linejoin:round;stroke-opacity:1"
       id="rect4722"
       width="63"
       height="88"
       x="-1.008e-08"
       y="-1.0057143e-08"
       rx="3"
       ry="3" /><text
       xml:space="preserve"
       style="font-style:normal;font-variant:normal;font-weight:bold;font-stretch:normal;font-size:14.1111px;font-family:'Ubuntu Mono';-inkscape-font-specification:'Ubuntu Mono, Bold';font-variant-ligatures:normal;font-variant-caps:normal;font-variant-numeric:normal;font-variant-east-asian:normal;fill:#800080;stroke-width:1;stroke-linecap:round;stroke-linejoin:round"
       x="3.4300196"
       y="12.934179"
       id="text3260-7-7-7-7"><tspan
         sodipodi:role="line"
         id="tspan394-5-5-5"
         x="3.4300196"
         y="12.934179">5</tspan></text><text
       xml:space="preserve"
       style="font-style:normal;font-variant:normal;font-weight:bold;font-stretch:normal;font-size:14.1111px;font-family:'Ubuntu Mono';-inkscape-font-specification:'Ubuntu Mono, Bold';font-variant-ligatures:normal;font-variant-caps:normal;font-variant-numeric:normal;font-variant-east-asian:normal;fill:#800080;stroke-width:1;stroke-linecap:round;stroke-linejoin:round"
       x="-59.570267"
       y="-75.065613"
       id="text3260-7-7-7-7-6"
       transform="scale(-1)"><tspan
         sodipodi:role="line"
         id="tspan394-5-5-5-2"
         x="-59.570267"
         y="-75.065613">5</tspan></text><path
       id="path802-3"
       style="fill:#800080;fill-opacity:1;stroke-width:0.052;stroke-linecap:round;stroke-linejoin:round;stroke-dasharray:none"
       d="m 19.462232,10.43396 c -1.829436,-3.8e-5 -3.312497,1.483022 -3.31246,3.312459 8.39e-4,1.03706 0.487332,2.013871 1.31452,2.639373 -0.415021,-0.179414 -0.862379,-0.271964 -1.31452,-0.271946 -1.829436,-3.9e-5 -3.312496,1.483022 -3.312459,3.312459 -3.7e-5,1.829436 1.483023,3.312496 3.312459,3.312458 1.3157,-1.84e-4 2.506559,-0.779047 3.034053,-1.984373 -0.120381,1.992915 -1.111007,3.56871 -2.43396,4.148325 0,0 1.776089,-0.729929 2.712367,-0.72993 0.936278,0 2.712367,0.72993 2.712367,0.72993 -1.323236,-0.579738 -2.313926,-2.156099 -2.43396,-4.149618 0.527104,1.205833 1.718047,1.985257 3.034052,1.985666 1.829437,3.8e-5 3.312497,-1.483022 3.31246,-3.312458 3.7e-5,-1.829437 -1.483023,-3.312498 -3.31246,-3.312459 -0.455159,7.56e-4 -0.905278,0.09531 -1.32227,0.27776 0.831738,-0.625121 1.321419,-1.604723 1.32227,-2.645188 3.8e-5,-1.829436 -1.483023,-3.312496 -3.312459,-3.312458 z"
       sodipodi:nodetypes="ccccccccscccccccc" /><path
       id="path802-3-6"
       style="fill:#800080;fill-opacity:1;stroke-width:0.052;stroke-linecap:round;stroke-linejoin:round;stroke-dasharray:none"
       d="m 43.537768,10.43396 c -1.829437,-3.8e-5 -3.312497,1.483021 -3.312461,3.312458 8.39e-4,1.03706 0.487332,2.013871 1.314521,2.639373 -0.415022,-0.179414 -0.86238,-0.271964 -1.314521,-0.271946 -1.829436,-3.9e-5 -3.312496,1.483022 -3.312459,3.312459 -3.7e-5,1.829436 1.483023,3.312496 3.312459,3.312458 1.3157,-1.84e-4 2.506559,-0.779047 3.034053,-1.984373 -0.120381,1.992915 -1.111007,3.56871 -2.433959,4.148325 0,0 1.776088,-0.729929 2.712367,-0.72993 0.936278,0 2.712367,0.72993 2.712367,0.72993 -1.323237,-0.579738 -2.313927,-2.156099 -2.43396,-4.149618 0.527104,1.205833 1.718047,1.985257 3.034051,1.985666 1.829437,3.8e-5 3.312497,-1.483022 3.31246,-3.312458 3.7e-5,-1.829437 -1.483022,-3.312498 -3.31246,-3.312459 -0.455158,7.56e-4 -0.905277,0.09531 -1.322269,0.27776 0.831738,-0.625121 1.321419,-1.604723 1.322269,-2.645188 3.9e-5,-1.829436 -1.483022,-3.312495 -3.312458,-3.312457 z"
       sodipodi:nodetypes="ccccccccscccccccc" /><path
       id="path802-3-2"
       style="fill:#800080;fill-opacity:1;stroke-width:0.052;stroke-linecap:round;stroke-linejoin:round;stroke-dasharray:none"
       d="m 31.5,36.765623 c -1.829436,-3.8e-5 -3.312497,1.483021 -3.31246,3.312458 8.39e-4,1.03706 0.487332,2.013871 1.31452,2.639373 -0.415021,-0.179414 -0.862379,-0.271964 -1.31452,-0.271946 -1.829436,-3.9e-5 -3.312496,1.483022 -3.312459,3.312459 -3.7e-5,1.829436 1.483023,3.312496 3.312459,3.312458 1.3157,-1.84e-4 2.506559,-0.779047 3.034053,-1.984373 -0.120381,1.992915 -1.111007,3.56871 -2.43396,4.148325 0,0 1.776089,-0.729929 2.712367,-0.72993 0.936278,0 2.712367,0.72993 2.712367,0.72993 -1.323236,-0.579738 -2.313926,-2.156099 -2.43396,-4.149618 0.527104,1.205833 1.718047,1.985257 3.034052,1.985666 1.829437,3.8e-5 3.312497,-1.483022 3.31246,-3.312458 3.7e-5,-1.829437 -1.483023,-3.312498 -3.31246,-3.312459 -0.455159,7.56e-4 -0.905278,0.09531 -1.32227,0.27776 0.831738,-0.625121 1.321419,-1.604723 1.32227,-2.645188 3.8e-5,-1.829436 -1.483023,-3.312495 -3.312459,-3.312457 z"
       sodipodi:nodetypes="ccccccccscccccccc" /><path
       id="path802-3-9"
       style="fill:#800080;fill-opacity:1;stroke-width:0.052;stroke-linecap:round;stroke-linejoin:round;stroke-dasharray:none"
       d="m 19.462232,77.566041 c -1.829436,3.8e-5 -3.312497,-1.483022 -3.31246,-3.312459 8.39e-4,-1.03706 0.487332,-2.013871 1.31452,-2.639373 -0.415021,0.179414 -0.862379,0.271964 -1.31452,0.271946 -1.829436,3.9e-5 -3.312496,-1.483022 -3.312459,-3.312459 -3.7e-5,-1.829436 1.483023,-3.312496 3.312459,-3.312458 1.3157,1.84e-4 2.506559,0.779047 3.034053,1.984373 -0.120381,-1.992915 -1.111007,-3.56871 -2.43396,-4.148325 0,0 1.776089,0.729929 2.712367,0.72993 0.936278,0 2.712367,-0.72993 2.712367,-0.72993 -1.323236,0.579738 -2.313926,2.156099 -2.43396,4.149618 0.527104,-1.205833 1.718047,-1.985257 3.034052,-1.985666 1.829437,-3.8e-5 3.312497,1.483022 3.31246,3.312458 3.7e-5,1.829437 -1.483023,3.312498 -3.31246,3.312459 -0.455159,-7.56e-4 -0.905278,-0.09531 -1.32227,-0.27776 0.831738,0.625121 1.321419,1.604723 1.32227,2.645188 3.8e-5,1.829436 -1.483023,3.312496 -3.312459,3.312458 z"
       sodipodi:nodetypes="ccccccccscccccccc" /><path
       id="path802-3-1"
       style="fill:#800080;fill-opacity:1;stroke-width:0.052;stroke-linecap:round;stroke-linejoin:round;stroke-dasharray:none"
       d="m 43.537767,77.56604 c -1.829436,3.8e-5 -3.312497,-1.483022 -3.31246,-3.312459 8.39e-4,-1.03706 0.487332,-2.013871 1.31452,-2.639373 -0.415021,0.179414 -0.862379,0.271964 -1.31452,0.271946 -1.829436,3.9e-5 -3.312496,-1.483022 -3.312459,-3.312459 -3.7e-5,-1.829436 1.483023,-3.312496 3.312459,-3.312458 1.3157,1.84e-4 2.506559,0.779047 3.034053,1.984373 -0.120381,-1.992915 -1.111007,-3.56871 -2.43396,-4.148325 0,0 1.776089,0.729929 2.712367,0.72993 0.936278,0 2.712367,-0.72993 2.712367,-0.72993 -1.323236,0.579738 -2.313926,2.156099 -2.43396,4.149618 0.527104,-1.205833 1.718047,-1.985257 3.034052,-1.985666 1.829437,-3.8e-5 3.312497,1.483022 3.31246,3.312458 3.7e-5,1.829437 -1.483023,3.312498 -3.31246,3.312459 -0.455159,-7.56e-4 -0.905278,-0.09531 -1.32227,-0.27776 0.831738,0.625121 1.321419,1.604723 1.32227,2.645188 3.8e-5,1.829436 -1.483023,3.312496 -3.312459,3.312458 z"
       sodipodi:nodetypes="ccccccccscccccccc" /><path
       id="path802-3-3"
       style="fill:#800080;fill-opacity:1;stroke-width:0.052;stroke-linecap:round;stroke-linejoin:round;stroke-dasharray:none"
       d="m 6.8307951,14.612325 c -1.0976621,-2.2e-5 -1.9874986,0.889814 -1.9874761,1.987476 5.032e-4,0.622236 0.2923992,1.208322 0.7887117,1.583624 -0.2490122,-0.107648 -0.517427,-0.163178 -0.7887117,-0.163168 -1.0976618,-2.3e-5 -1.9874978,0.889814 -1.9874753,1.987475 -2.25e-5,1.097662 0.8898135,1.987498 1.9874753,1.987476 0.7894195,-1.11e-4 1.5039349,-0.467429 1.8204311,-1.190625 -0.07222,1.195749 -0.6666037,2.141226 -1.4603753,2.488995 0,0 1.0656529,-0.437957 1.6274203,-0.437958 0.561766,0 1.62742,0.437958 1.62742,0.437958 -0.793942,-0.347842 -1.388355,-1.293659 -1.460376,-2.48977 0.316263,0.723499 1.030828,1.191154 1.820431,1.1914 1.097663,2.2e-5 1.9874989,-0.889814 1.9874759,-1.987476 2.3e-5,-1.097661 -0.8898129,-1.987498 -1.9874759,-1.987475 -0.273095,4.54e-4 -0.543167,0.05719 -0.793362,0.166656 0.499043,-0.375073 0.792851,-0.962833 0.793362,-1.587112 2.3e-5,-1.097662 -0.889813,-1.987498 -1.987475,-1.987476 z"
       sodipodi:nodetypes="ccccccccscccccccc" /><path
       id="path802-3-3-5"
       style="fill:#800080;fill-opacity:1;stroke-width:0.052;stroke-linecap:round;stroke-linejoin:round;stroke-dasharray:none"
       d="m 56.16949,73.387471 c -1.097662,2.2e-5 -1.987498,-0.889814 -1.987476,-1.987476 5.03e-4,-0.622236 0.292399,-1.208322 0.788712,-1.583624 -0.249012,0.107648 -0.517427,0.163178 -0.788712,0.163168 -1.097662,2.3e-5 -1.987498,-0.889814 -1.987475,-1.987475 -2.3e-5,-1.097662 0.889813,-1.987498 1.987475,-1.987476 0.78942,1.11e-4 1.503935,0.467429 1.820431,1.190625 -0.07222,-1.195749 -0.666604,-2.141226 -1.460375,-2.488995 0,0 1.065653,0.437957 1.62742,0.437958 0.561766,0 1.627421,-0.437958 1.627421,-0.437958 -0.793943,0.347842 -1.388356,1.293659 -1.460377,2.48977 0.316263,-0.723499 1.030829,-1.191154 1.820431,-1.1914 1.097664,-2.2e-5 1.987499,0.889814 1.987476,1.987476 2.3e-5,1.097661 -0.889813,1.987498 -1.987476,1.987475 -0.273094,-4.54e-4 -0.543167,-0.05719 -0.793362,-0.166656 0.499044,0.375073 0.792852,0.962833 0.793362,1.587112 2.4e-5,1.097662 -0.889813,1.987498 -1.987475,1.987476 z"
       sodipodi:nodetypes="ccccccccscccccccc" /></g></svg>
