<?xml version="1.0" encoding="UTF-8" standalone="no"?>
<!-- Created with Inkscape (http://www.inkscape.org/) -->

<svg
   width="63mm"
   height="88mm"
   viewBox="0 0 63 88"
   version="1.1"
   id="svg5"
   inkscape:version="1.2.2 (b0a8486541, 2022-12-01)"
   sodipodi:docname="5d.svg"
   xml:space="preserve"
   inkscape:export-filename="../card/5s.png"
   inkscape:export-xdpi="144"
   inkscape:export-ydpi="144"
   xmlns:inkscape="http://www.inkscape.org/namespaces/inkscape"
   xmlns:sodipodi="http://sodipodi.sourceforge.net/DTD/sodipodi-0.dtd"
   xmlns="http://www.w3.org/2000/svg"
   xmlns:svg="http://www.w3.org/2000/svg"><sodipodi:namedview
     id="namedview7"
     pagecolor="#7d7d7d"
     bordercolor="#ffffff"
     borderopacity="1"
     inkscape:showpageshadow="false"
     inkscape:pageopacity="0"
     inkscape:pagecheckerboard="true"
     inkscape:deskcolor="#505050"
     inkscape:document-units="mm"
     showgrid="false"
     showborder="true"
     borderlayer="true"
     inkscape:zoom="5.5659117"
     inkscape:cx="91.988524"
     inkscape:cy="57.492827"
     inkscape:window-width="1920"
     inkscape:window-height="1011"
     inkscape:window-x="0"
     inkscape:window-y="32"
     inkscape:window-maximized="1"
     inkscape:current-layer="layer1" /><defs
     id="defs2" /><g
     inkscape:label="Layer 1"
     inkscape:groupmode="layer"
     id="layer1"><rect
       style="fill:#f5f5ec;fill-opacity:1;stroke:none;stroke-width:1;stroke-linecap:round;stroke-linejoin:round;stroke-opacity:1"
       id="rect4722"
       width="63"
       height="88"
       x="-1.008e-08"
       y="-1.0057143e-08"
       rx="3"
       ry="3" /><text
       xml:space="preserve"
       style="font-style:normal;font-variant:normal;font-weight:bold;font-stretch:normal;font-size:14.1111px;font-family:'Ubuntu Mono';-inkscape-font-specification:'Ubuntu Mono, Bold';font-variant-ligatures:normal;font-variant-caps:normal;font-variant-numeric:normal;font-variant-east-asian:normal;fill:#ffbf00;stroke-width:1;stroke-linecap:round;stroke-linejoin:round;fill-opacity:1"
       x="3.4300196"
       y="12.934179"
       id="text3260-7-7-7-7"><tspan
         sodipodi:role="line"
         id="tspan394-5-5-5"
         x="3.4300196"
         y="12.934179">5</tspan></text><text
       xml:space="preserve"
       style="font-style:normal;font-variant:normal;font-weight:bold;font-stretch:normal;font-size:14.1111px;font-family:'Ubuntu Mono';-inkscape-font-specification:'Ubuntu Mono, Bold';font-variant-ligatures:normal;font-variant-caps:normal;font-variant-numeric:normal;font-variant-east-asian:normal;fill:#ffbf00;stroke-width:1;stroke-linecap:round;stroke-linejoin:round;fill-opacity:1"
       x="-59.570267"
       y="-75.065613"
       id="text3260-7-7-7-7-6"
       transform="scale(-1)"><tspan
         sodipodi:role="line"
         id="tspan394-5-5-5-2"
         x="-59.570267"
         y="-75.065613">5</tspan></text><path
       id="rect344"
       style="fill:#ffbf00;fill-opacity:1;stroke-width:0.0519999;stroke-linecap:round;stroke-linejoin:round"
       d="m 6.8307951,14.666702 c -0.6088276,1.586705 -2.3561326,3.500077 -3.600226,4.286042 2.2198638,3e-6 2.2198633,-9.7e-5 0,4.15e-4 1.2440934,0.785965 2.9913984,2.699337 3.600226,4.286043 0.6088278,-1.586706 2.3561318,-3.500078 3.6002259,-4.286043 v -4.15e-4 C 9.1869269,18.166779 7.4396229,16.253407 6.8307951,14.666702 Z"
       sodipodi:nodetypes="ccccccc" /><path
       id="rect344-3"
       style="fill:#ffbf00;fill-opacity:1;stroke-width:0.0519999;stroke-linecap:round;stroke-linejoin:round"
       d="m 56.16949,63.331844 c -0.81177,2.115607 -3.14151,4.66677 -4.800301,5.714723 2.959819,4e-6 2.959818,-1.29e-4 0,5.53e-4 1.658791,1.047954 3.988531,3.599116 4.800301,5.714724 0.811771,-2.115608 3.141509,-4.66677 4.800301,-5.714724 v -5.53e-4 c -1.658792,-1.047953 -3.98853,-3.599116 -4.800301,-5.714723 z"
       sodipodi:nodetypes="ccccccc" /><path
       id="rect344-3-6"
       style="fill:#ffbf00;fill-opacity:1;stroke-width:0.0519999;stroke-linecap:round;stroke-linejoin:round"
       d="m 19.462232,10.524587 c -1.014712,2.644509 -3.926887,5.833462 -6.000376,7.143404 3.699773,5e-6 3.699772,-1.62e-4 0,6.91e-4 2.073489,1.309942 4.985664,4.498895 6.000376,7.143405 1.014714,-2.64451 3.926886,-5.833463 6.000376,-7.143405 v -6.91e-4 c -2.07349,-1.309942 -4.985662,-4.498895 -6.000376,-7.143404 z"
       sodipodi:nodetypes="ccccccc" /><path
       id="rect344-3-6-2"
       style="fill:#ffbf00;fill-opacity:1;stroke-width:0.0519999;stroke-linecap:round;stroke-linejoin:round"
       d="m 43.537767,10.524587 c -1.014712,2.644509 -3.926887,5.833462 -6.000376,7.143404 3.699773,5e-6 3.699772,-1.62e-4 0,6.91e-4 2.073489,1.309942 4.985664,4.498895 6.000376,7.143405 1.014714,-2.64451 3.926886,-5.833463 6.000376,-7.143405 v -6.91e-4 c -2.07349,-1.309942 -4.985662,-4.498895 -6.000376,-7.143404 z"
       sodipodi:nodetypes="ccccccc" /><path
       id="rect344-3-6-9"
       style="fill:#ffbf00;fill-opacity:1;stroke-width:0.0519999;stroke-linecap:round;stroke-linejoin:round"
       d="m 31.5,36.85625 c -1.014712,2.644509 -3.926887,5.833462 -6.000376,7.143404 3.699773,5e-6 3.699772,-1.62e-4 0,6.91e-4 2.073489,1.309942 4.985664,4.498895 6.000376,7.143405 1.014714,-2.64451 3.926886,-5.833463 6.000376,-7.143405 v -6.91e-4 C 35.426886,42.689712 32.514714,39.500759 31.5,36.85625 Z"
       sodipodi:nodetypes="ccccccc" /><path
       id="rect344-3-6-1"
       style="fill:#ffbf00;fill-opacity:1;stroke-width:0.0519999;stroke-linecap:round;stroke-linejoin:round"
       d="m 43.537768,63.187913 c -1.014712,2.644509 -3.926887,5.833462 -6.000376,7.143404 3.699773,5e-6 3.699772,-1.62e-4 0,6.91e-4 2.073489,1.309942 4.985664,4.498895 6.000376,7.143405 1.014714,-2.64451 3.926886,-5.833463 6.000376,-7.143405 v -6.91e-4 c -2.07349,-1.309942 -4.985662,-4.498895 -6.000376,-7.143404 z"
       sodipodi:nodetypes="ccccccc" /><path
       id="rect344-3-6-27"
       style="fill:#ffbf00;fill-opacity:1;stroke-width:0.0519999;stroke-linecap:round;stroke-linejoin:round"
       d="m 19.462233,63.187913 c -1.014712,2.644509 -3.926887,5.833462 -6.000376,7.143404 3.699773,5e-6 3.699772,-1.62e-4 0,6.91e-4 2.073489,1.309942 4.985664,4.498895 6.000376,7.143405 1.014714,-2.64451 3.926886,-5.833463 6.000376,-7.143405 v -6.91e-4 c -2.07349,-1.309942 -4.985662,-4.498895 -6.000376,-7.143404 z"
       sodipodi:nodetypes="ccccccc" /></g></svg>
