<?xml version="1.0" encoding="UTF-8" standalone="no"?>
<!-- Created with Inkscape (http://www.inkscape.org/) -->

<svg
   width="63mm"
   height="88mm"
   viewBox="0 0 63 88"
   version="1.1"
   id="svg5"
   inkscape:version="1.2.2 (b0a8486541, 2022-12-01)"
   sodipodi:docname="6c.svg"
   xml:space="preserve"
   inkscape:export-filename="../card/6s.png"
   inkscape:export-xdpi="144"
   inkscape:export-ydpi="144"
   xmlns:inkscape="http://www.inkscape.org/namespaces/inkscape"
   xmlns:sodipodi="http://sodipodi.sourceforge.net/DTD/sodipodi-0.dtd"
   xmlns="http://www.w3.org/2000/svg"
   xmlns:svg="http://www.w3.org/2000/svg"><sodipodi:namedview
     id="namedview7"
     pagecolor="#7d7d7d"
     bordercolor="#ffffff"
     borderopacity="1"
     inkscape:showpageshadow="false"
     inkscape:pageopacity="0"
     inkscape:pagecheckerboard="true"
     inkscape:deskcolor="#505050"
     inkscape:document-units="mm"
     showgrid="false"
     showborder="true"
     borderlayer="true"
     inkscape:zoom="5.4628916"
     inkscape:cx="102.23523"
     inkscape:cy="85.302809"
     inkscape:window-width="1920"
     inkscape:window-height="1011"
     inkscape:window-x="0"
     inkscape:window-y="32"
     inkscape:window-maximized="1"
     inkscape:current-layer="layer1" /><defs
     id="defs2" /><g
     inkscape:label="Layer 1"
     inkscape:groupmode="layer"
     id="layer1"><rect
       style="fill:#f5f5ec;fill-opacity:1;stroke:none;stroke-width:1;stroke-linecap:round;stroke-linejoin:round;stroke-opacity:1"
       id="rect4722"
       width="63"
       height="88"
       x="-1.008e-08"
       y="-1.0057143e-08"
       rx="3"
       ry="3" /><text
       xml:space="preserve"
       style="font-style:normal;font-variant:normal;font-weight:bold;font-stretch:normal;font-size:14.1111px;font-family:'Ubuntu Mono';-inkscape-font-specification:'Ubuntu Mono, Bold';font-variant-ligatures:normal;font-variant-caps:normal;font-variant-numeric:normal;font-variant-east-asian:normal;fill:#800080;stroke-width:1;stroke-linecap:round;stroke-linejoin:round"
       x="3.2959642"
       y="12.962401"
       id="text3260-7-7-7"><tspan
         sodipodi:role="line"
         id="tspan394-5-5"
         x="3.2959642"
         y="12.962401">6</tspan></text><text
       xml:space="preserve"
       style="font-style:normal;font-variant:normal;font-weight:bold;font-stretch:normal;font-size:14.1111px;font-family:'Ubuntu Mono';-inkscape-font-specification:'Ubuntu Mono, Bold';font-variant-ligatures:normal;font-variant-caps:normal;font-variant-numeric:normal;font-variant-east-asian:normal;fill:#800080;stroke-width:1;stroke-linecap:round;stroke-linejoin:round"
       x="-59.704319"
       y="-75.037392"
       id="text3260-7-7-7-6"
       transform="scale(-1)"><tspan
         sodipodi:role="line"
         id="tspan394-5-5-2"
         x="-59.704319"
         y="-75.037392">6</tspan></text><path
       id="path802-3"
       style="fill:#800080;fill-opacity:1;stroke-width:0.052;stroke-linecap:round;stroke-linejoin:round;stroke-dasharray:none"
       d="m 19.462232,10.43396 c -1.829437,-3.8e-5 -3.312497,1.483023 -3.312459,3.312459 8.39e-4,1.03706 0.487331,2.01387 1.314519,2.639374 -0.415021,-0.179415 -0.862378,-0.271964 -1.314519,-0.271948 -1.829437,-3.7e-5 -3.312498,1.483024 -3.31246,3.312461 -3.7e-5,1.829436 1.483023,3.312496 3.31246,3.312458 1.315698,-1.85e-4 2.506557,-0.779047 3.034052,-1.984375 -0.120381,1.992916 -1.111007,3.568711 -2.43396,4.148326 0,0 1.776088,-0.729928 2.712367,-0.72993 0.936278,0 2.712367,0.72993 2.712367,0.72993 -1.323237,-0.579737 -2.313926,-2.156098 -2.43396,-4.149617 0.527104,1.205833 1.718047,1.985256 3.034052,1.985666 1.829437,3.8e-5 3.312497,-1.483022 3.31246,-3.312459 3.7e-5,-1.829436 -1.483023,-3.312497 -3.31246,-3.31246 -0.455159,7.57e-4 -0.905279,0.09531 -1.32227,0.277762 0.831738,-0.625123 1.321419,-1.604724 1.32227,-2.645188 3.8e-5,-1.829436 -1.483023,-3.312497 -3.312459,-3.312459 z"
       sodipodi:nodetypes="ccccccccscccccccc" /><path
       id="path802-3-6"
       style="fill:#800080;fill-opacity:1;stroke-width:0.052;stroke-linecap:round;stroke-linejoin:round;stroke-dasharray:none"
       d="m 43.537767,10.43396 c -1.829437,-3.8e-5 -3.312497,1.483023 -3.312459,3.312459 8.39e-4,1.03706 0.487331,2.01387 1.314519,2.639374 -0.415021,-0.179415 -0.862378,-0.271964 -1.314519,-0.271948 -1.829437,-3.7e-5 -3.312498,1.483024 -3.31246,3.312461 -3.7e-5,1.829436 1.483023,3.312496 3.31246,3.312458 1.315698,-1.85e-4 2.506557,-0.779047 3.034052,-1.984375 -0.120381,1.992916 -1.111007,3.568711 -2.43396,4.148326 0,0 1.776088,-0.729928 2.712367,-0.72993 0.936278,0 2.712367,0.72993 2.712367,0.72993 -1.323237,-0.579737 -2.313926,-2.156098 -2.43396,-4.149617 0.527104,1.205833 1.718047,1.985256 3.034052,1.985666 1.829437,3.8e-5 3.312497,-1.483022 3.31246,-3.312459 3.7e-5,-1.829436 -1.483023,-3.312497 -3.31246,-3.31246 -0.455159,7.57e-4 -0.905279,0.09531 -1.32227,0.277762 0.831738,-0.625123 1.321419,-1.604724 1.32227,-2.645188 3.8e-5,-1.829436 -1.483023,-3.312497 -3.312459,-3.312459 z"
       sodipodi:nodetypes="ccccccccscccccccc" /><path
       id="path802-3-2"
       style="fill:#800080;fill-opacity:1;stroke-width:0.052;stroke-linecap:round;stroke-linejoin:round;stroke-dasharray:none"
       d="m 19.462231,36.765623 c -1.829437,-3.8e-5 -3.312497,1.483023 -3.312459,3.312459 8.39e-4,1.03706 0.487331,2.01387 1.314519,2.639374 -0.415021,-0.179415 -0.862378,-0.271964 -1.314519,-0.271948 -1.829437,-3.7e-5 -3.312498,1.483024 -3.31246,3.312461 -3.7e-5,1.829436 1.483023,3.312496 3.31246,3.312458 1.315698,-1.85e-4 2.506557,-0.779047 3.034052,-1.984375 -0.120381,1.992916 -1.111007,3.568711 -2.43396,4.148326 0,0 1.776088,-0.729928 2.712367,-0.72993 0.936278,0 2.712367,0.72993 2.712367,0.72993 -1.323237,-0.579737 -2.313926,-2.156098 -2.43396,-4.149617 0.527104,1.205833 1.718047,1.985256 3.034052,1.985666 1.829437,3.8e-5 3.312497,-1.483022 3.31246,-3.312459 3.7e-5,-1.829436 -1.483023,-3.312497 -3.31246,-3.31246 -0.455159,7.57e-4 -0.905279,0.09531 -1.32227,0.277762 0.831738,-0.625123 1.321419,-1.604724 1.32227,-2.645188 3.8e-5,-1.829436 -1.483023,-3.312497 -3.312459,-3.312459 z"
       sodipodi:nodetypes="ccccccccscccccccc" /><path
       id="path802-3-9"
       style="fill:#800080;fill-opacity:1;stroke-width:0.052;stroke-linecap:round;stroke-linejoin:round;stroke-dasharray:none"
       d="m 43.537767,36.765622 c -1.829437,-3.8e-5 -3.312497,1.483023 -3.312459,3.312459 8.39e-4,1.03706 0.487331,2.01387 1.314519,2.639374 -0.415021,-0.179415 -0.862378,-0.271964 -1.314519,-0.271948 -1.829437,-3.7e-5 -3.312498,1.483024 -3.31246,3.312461 -3.7e-5,1.829436 1.483023,3.312496 3.31246,3.312458 1.315698,-1.85e-4 2.506557,-0.779047 3.034052,-1.984375 -0.120381,1.992916 -1.111007,3.568711 -2.43396,4.148326 0,0 1.776088,-0.729928 2.712367,-0.72993 0.936278,0 2.712367,0.72993 2.712367,0.72993 -1.323237,-0.579737 -2.313926,-2.156098 -2.43396,-4.149617 0.527104,1.205833 1.718047,1.985256 3.034052,1.985666 1.829437,3.8e-5 3.312497,-1.483022 3.31246,-3.312459 3.7e-5,-1.829436 -1.483023,-3.312497 -3.31246,-3.31246 -0.455159,7.57e-4 -0.905279,0.09531 -1.32227,0.277762 0.831738,-0.625123 1.321419,-1.604724 1.32227,-2.645188 3.8e-5,-1.829436 -1.483023,-3.312497 -3.312459,-3.312459 z"
       sodipodi:nodetypes="ccccccccscccccccc" /><path
       id="path802-3-1"
       style="fill:#800080;fill-opacity:1;stroke-width:0.052;stroke-linecap:round;stroke-linejoin:round;stroke-dasharray:none"
       d="m 19.462232,77.56604 c -1.829437,3.8e-5 -3.312497,-1.483023 -3.312459,-3.312459 8.39e-4,-1.03706 0.487331,-2.01387 1.314519,-2.639374 -0.415021,0.179415 -0.862378,0.271964 -1.314519,0.271948 -1.829437,3.7e-5 -3.312498,-1.483024 -3.31246,-3.312461 -3.7e-5,-1.829436 1.483023,-3.312496 3.31246,-3.312458 1.315698,1.85e-4 2.506557,0.779047 3.034052,1.984375 -0.120381,-1.992916 -1.111007,-3.568711 -2.43396,-4.148326 0,0 1.776088,0.729928 2.712367,0.72993 0.936278,0 2.712367,-0.72993 2.712367,-0.72993 -1.323237,0.579737 -2.313926,2.156098 -2.43396,4.149617 0.527104,-1.205833 1.718047,-1.985256 3.034052,-1.985666 1.829437,-3.8e-5 3.312497,1.483022 3.31246,3.312459 3.7e-5,1.829436 -1.483023,3.312497 -3.31246,3.31246 -0.455159,-7.57e-4 -0.905279,-0.09531 -1.32227,-0.277762 0.831738,0.625123 1.321419,1.604724 1.32227,2.645188 3.8e-5,1.829436 -1.483023,3.312497 -3.312459,3.312459 z"
       sodipodi:nodetypes="ccccccccscccccccc" /><path
       id="path802-3-1-2"
       style="fill:#800080;fill-opacity:1;stroke-width:0.052;stroke-linecap:round;stroke-linejoin:round;stroke-dasharray:none"
       d="m 43.537767,77.56604 c -1.829437,3.8e-5 -3.312497,-1.483023 -3.312459,-3.312459 8.39e-4,-1.03706 0.487331,-2.01387 1.314519,-2.639374 -0.415021,0.179415 -0.862378,0.271964 -1.314519,0.271948 -1.829437,3.7e-5 -3.312498,-1.483024 -3.31246,-3.312461 -3.7e-5,-1.829436 1.483023,-3.312496 3.31246,-3.312458 1.315698,1.85e-4 2.506557,0.779047 3.034052,1.984375 -0.120381,-1.992916 -1.111007,-3.568711 -2.43396,-4.148326 0,0 1.776088,0.729928 2.712367,0.72993 0.936278,0 2.712367,-0.72993 2.712367,-0.72993 -1.323237,0.579737 -2.313926,2.156098 -2.43396,4.149617 0.527104,-1.205833 1.718047,-1.985256 3.034052,-1.985666 1.829437,-3.8e-5 3.312497,1.483022 3.31246,3.312459 3.7e-5,1.829436 -1.483023,3.312497 -3.31246,3.31246 -0.455159,-7.57e-4 -0.905279,-0.09531 -1.32227,-0.277762 0.831738,0.625123 1.321419,1.604724 1.32227,2.645188 3.8e-5,1.829436 -1.483023,3.312497 -3.312459,3.312459 z"
       sodipodi:nodetypes="ccccccccscccccccc" /><path
       id="path802-3-3"
       style="fill:#800080;fill-opacity:1;stroke-width:0.052;stroke-linecap:round;stroke-linejoin:round;stroke-dasharray:none"
       d="m 6.8307948,14.612325 c -1.0976618,-2.3e-5 -1.9874982,0.889814 -1.9874755,1.987476 5.033e-4,0.622236 0.292399,1.208322 0.7887114,1.583624 -0.2490121,-0.107649 -0.5174267,-0.163178 -0.7887114,-0.163168 -1.0976619,-2.3e-5 -1.9874983,0.889814 -1.9874756,1.987476 -2.26e-5,1.097661 0.8898138,1.987497 1.9874757,1.987475 0.7894191,-1.11e-4 1.5039345,-0.467429 1.8204314,-1.190625 -0.072229,1.195749 -0.6666044,2.141226 -1.4603759,2.488995 0,0 1.0656528,-0.437957 1.6274199,-0.437957 0.5617671,0 1.6274202,0.437957 1.6274202,0.437957 -0.7939418,-0.347842 -1.3883555,-1.293659 -1.4603761,-2.48977 0.3162627,0.723499 1.0308283,1.191154 1.8204316,1.1914 1.0976622,2.2e-5 1.9874985,-0.889814 1.9874755,-1.987476 2.3e-5,-1.097661 -0.8898133,-1.987498 -1.9874755,-1.987476 -0.2730956,4.54e-4 -0.5431673,0.05719 -0.7933624,0.166657 0.4990431,-0.375073 0.7928517,-0.962834 0.7933624,-1.587112 2.27e-5,-1.097662 -0.8898138,-1.987499 -1.9874757,-1.987476 z"
       sodipodi:nodetypes="ccccccccscccccccc" /><path
       id="path802-3-3-5"
       style="fill:#800080;fill-opacity:1;stroke-width:0.052;stroke-linecap:round;stroke-linejoin:round;stroke-dasharray:none"
       d="m 56.16949,73.387471 c -1.097662,2.3e-5 -1.987498,-0.889814 -1.987476,-1.987476 5.04e-4,-0.622236 0.292399,-1.208322 0.788712,-1.583624 -0.249012,0.107649 -0.517427,0.163178 -0.788712,0.163168 -1.097662,2.3e-5 -1.987498,-0.889814 -1.987475,-1.987476 -2.3e-5,-1.097661 0.889813,-1.987497 1.987475,-1.987475 0.789419,1.11e-4 1.503935,0.467429 1.820432,1.190625 -0.07223,-1.195749 -0.666605,-2.141226 -1.460376,-2.488995 0,0 1.065653,0.437957 1.62742,0.437957 0.561767,0 1.62742,-0.437957 1.62742,-0.437957 -0.793942,0.347842 -1.388356,1.293659 -1.460376,2.48977 0.316263,-0.723499 1.030828,-1.191154 1.820431,-1.1914 1.097663,-2.2e-5 1.987499,0.889814 1.987476,1.987476 2.3e-5,1.097661 -0.889813,1.987498 -1.987476,1.987476 -0.273095,-4.54e-4 -0.543167,-0.05719 -0.793362,-0.166657 0.499043,0.375073 0.792852,0.962834 0.793362,1.587112 2.3e-5,1.097662 -0.889813,1.987499 -1.987475,1.987476 z"
       sodipodi:nodetypes="ccccccccscccccccc" /></g></svg>
