<?xml version="1.0" encoding="UTF-8" standalone="no"?>
<!-- Created with Inkscape (http://www.inkscape.org/) -->

<svg
   width="63mm"
   height="88mm"
   viewBox="0 0 63 88"
   version="1.1"
   id="svg5"
   inkscape:version="1.2.2 (b0a8486541, 2022-12-01)"
   sodipodi:docname="6d.svg"
   xml:space="preserve"
   inkscape:export-filename="../card/6s.png"
   inkscape:export-xdpi="144"
   inkscape:export-ydpi="144"
   xmlns:inkscape="http://www.inkscape.org/namespaces/inkscape"
   xmlns:sodipodi="http://sodipodi.sourceforge.net/DTD/sodipodi-0.dtd"
   xmlns="http://www.w3.org/2000/svg"
   xmlns:svg="http://www.w3.org/2000/svg"><sodipodi:namedview
     id="namedview7"
     pagecolor="#7d7d7d"
     bordercolor="#ffffff"
     borderopacity="1"
     inkscape:showpageshadow="false"
     inkscape:pageopacity="0"
     inkscape:pagecheckerboard="true"
     inkscape:deskcolor="#505050"
     inkscape:document-units="mm"
     showgrid="false"
     showborder="true"
     borderlayer="true"
     inkscape:zoom="2.7572331"
     inkscape:cx="144.89163"
     inkscape:cy="154.14003"
     inkscape:window-width="1920"
     inkscape:window-height="1011"
     inkscape:window-x="0"
     inkscape:window-y="32"
     inkscape:window-maximized="1"
     inkscape:current-layer="layer1" /><defs
     id="defs2" /><g
     inkscape:label="Layer 1"
     inkscape:groupmode="layer"
     id="layer1"><rect
       style="fill:#f5f5ec;fill-opacity:1;stroke:none;stroke-width:1;stroke-linecap:round;stroke-linejoin:round;stroke-opacity:1"
       id="rect4722"
       width="63"
       height="88"
       x="-1.008e-08"
       y="-1.0057143e-08"
       rx="3"
       ry="3" /><text
       xml:space="preserve"
       style="font-style:normal;font-variant:normal;font-weight:bold;font-stretch:normal;font-size:14.1111px;font-family:'Ubuntu Mono';-inkscape-font-specification:'Ubuntu Mono, Bold';font-variant-ligatures:normal;font-variant-caps:normal;font-variant-numeric:normal;font-variant-east-asian:normal;fill:#ffbf00;stroke-width:1;stroke-linecap:round;stroke-linejoin:round;fill-opacity:1"
       x="3.2959642"
       y="12.962401"
       id="text3260-7-7-7"><tspan
         sodipodi:role="line"
         id="tspan394-5-5"
         x="3.2959642"
         y="12.962401">6</tspan></text><text
       xml:space="preserve"
       style="font-style:normal;font-variant:normal;font-weight:bold;font-stretch:normal;font-size:14.1111px;font-family:'Ubuntu Mono';-inkscape-font-specification:'Ubuntu Mono, Bold';font-variant-ligatures:normal;font-variant-caps:normal;font-variant-numeric:normal;font-variant-east-asian:normal;fill:#ffbf00;stroke-width:1;stroke-linecap:round;stroke-linejoin:round;fill-opacity:1"
       x="-59.704319"
       y="-75.037392"
       id="text3260-7-7-7-6"
       transform="scale(-1)"><tspan
         sodipodi:role="line"
         id="tspan394-5-5-2"
         x="-59.704319"
         y="-75.037392">6</tspan></text><path
       id="rect344"
       style="fill:#ffbf00;fill-opacity:1;stroke-width:0.0519999;stroke-linecap:round;stroke-linejoin:round"
       d="m 19.462232,10.524587 c -1.014713,2.64451 -3.926887,5.833463 -6.000376,7.143405 3.699772,4e-6 3.699772,-1.61e-4 0,6.91e-4 2.073489,1.309942 4.985663,4.498895 6.000376,7.143404 1.014714,-2.644509 3.926886,-5.833462 6.000376,-7.143404 v -6.91e-4 c -2.07349,-1.309942 -4.985662,-4.498895 -6.000376,-7.143405 z"
       sodipodi:nodetypes="ccccccc" /><path
       id="rect344-6"
       style="fill:#ffbf00;fill-opacity:1;stroke-width:0.0519999;stroke-linecap:round;stroke-linejoin:round"
       d="m 43.537767,10.524587 c -1.014713,2.64451 -3.926887,5.833463 -6.000376,7.143405 3.699772,4e-6 3.699772,-1.61e-4 0,6.91e-4 2.073489,1.309942 4.985663,4.498895 6.000376,7.143404 1.014714,-2.644509 3.926886,-5.833462 6.000376,-7.143404 v -6.91e-4 c -2.07349,-1.309942 -4.985662,-4.498895 -6.000376,-7.143405 z"
       sodipodi:nodetypes="ccccccc" /><path
       id="rect344-2"
       style="fill:#ffbf00;fill-opacity:1;stroke-width:0.0519999;stroke-linecap:round;stroke-linejoin:round"
       d="m 43.537767,36.856249 c -1.014713,2.64451 -3.926887,5.833463 -6.000376,7.143405 3.699772,4e-6 3.699772,-1.61e-4 0,6.91e-4 2.073489,1.309942 4.985663,4.498895 6.000376,7.143404 1.014714,-2.644509 3.926886,-5.833462 6.000376,-7.143404 v -6.91e-4 c -2.07349,-1.309942 -4.985662,-4.498895 -6.000376,-7.143405 z"
       sodipodi:nodetypes="ccccccc" /><path
       id="rect344-9"
       style="fill:#ffbf00;fill-opacity:1;stroke-width:0.0519999;stroke-linecap:round;stroke-linejoin:round"
       d="m 19.462232,36.85625 c -1.014713,2.64451 -3.926887,5.833463 -6.000376,7.143405 3.699772,4e-6 3.699772,-1.61e-4 0,6.91e-4 2.073489,1.309942 4.985663,4.498895 6.000376,7.143404 1.014714,-2.644509 3.926886,-5.833462 6.000376,-7.143404 v -6.91e-4 C 23.389118,42.689713 20.476946,39.50076 19.462232,36.85625 Z"
       sodipodi:nodetypes="ccccccc" /><path
       id="rect344-1"
       style="fill:#ffbf00;fill-opacity:1;stroke-width:0.0519999;stroke-linecap:round;stroke-linejoin:round"
       d="m 19.462233,63.187913 c -1.014713,2.64451 -3.926887,5.833463 -6.000376,7.143405 3.699772,4e-6 3.699772,-1.61e-4 0,6.91e-4 2.073489,1.309942 4.985663,4.498895 6.000376,7.143404 1.014714,-2.644509 3.926886,-5.833462 6.000376,-7.143404 v -6.91e-4 c -2.07349,-1.309942 -4.985662,-4.498895 -6.000376,-7.143405 z"
       sodipodi:nodetypes="ccccccc" /><path
       id="rect344-27"
       style="fill:#ffbf00;fill-opacity:1;stroke-width:0.0519999;stroke-linecap:round;stroke-linejoin:round"
       d="m 43.537768,63.187913 c -1.014713,2.64451 -3.926887,5.833463 -6.000376,7.143405 3.699772,4e-6 3.699772,-1.61e-4 0,6.91e-4 2.073489,1.309942 4.985663,4.498895 6.000376,7.143404 1.014714,-2.644509 3.926886,-5.833462 6.000376,-7.143404 v -6.91e-4 c -2.07349,-1.309942 -4.985662,-4.498895 -6.000376,-7.143405 z"
       sodipodi:nodetypes="ccccccc" /><path
       id="rect344-3"
       style="fill:#ffbf00;fill-opacity:1;stroke-width:0.0519999;stroke-linecap:round;stroke-linejoin:round"
       d="m 6.8307947,14.666701 c -0.608828,1.586706 -2.356133,3.500078 -3.600226,4.286043 2.219864,2e-6 2.219864,-9.7e-5 0,4.15e-4 1.244093,0.785965 2.991398,2.699337 3.600226,4.286042 0.608828,-1.586705 2.356132,-3.500077 3.6002263,-4.286042 v -4.15e-4 C 9.1869267,18.166779 7.4396227,16.253407 6.8307947,14.666701 Z"
       sodipodi:nodetypes="ccccccc" /><path
       id="rect344-3-5"
       style="fill:#ffbf00;fill-opacity:1;stroke-width:0.0519999;stroke-linecap:round;stroke-linejoin:round"
       d="m 56.16949,64.760595 c -0.608828,1.586706 -2.356133,3.500078 -3.600226,4.286043 2.219864,2e-6 2.219864,-9.7e-5 0,4.15e-4 1.244093,0.785965 2.991398,2.699337 3.600226,4.286042 0.608828,-1.586704 2.356132,-3.500077 3.600226,-4.286042 v -4.15e-4 C 58.525622,68.260673 56.778318,66.347301 56.16949,64.760595 Z"
       sodipodi:nodetypes="ccccccc" /></g></svg>
