<?xml version="1.0" encoding="UTF-8" standalone="no"?>
<!-- Created with Inkscape (http://www.inkscape.org/) -->

<svg
   width="63mm"
   height="88mm"
   viewBox="0 0 63 88"
   version="1.1"
   id="svg5"
   inkscape:version="1.2.2 (b0a8486541, 2022-12-01)"
   sodipodi:docname="6h.svg"
   xml:space="preserve"
   inkscape:export-filename="../card/6s.png"
   inkscape:export-xdpi="144"
   inkscape:export-ydpi="144"
   xmlns:inkscape="http://www.inkscape.org/namespaces/inkscape"
   xmlns:sodipodi="http://sodipodi.sourceforge.net/DTD/sodipodi-0.dtd"
   xmlns="http://www.w3.org/2000/svg"
   xmlns:svg="http://www.w3.org/2000/svg"><sodipodi:namedview
     id="namedview7"
     pagecolor="#7d7d7d"
     bordercolor="#ffffff"
     borderopacity="1"
     inkscape:showpageshadow="false"
     inkscape:pageopacity="0"
     inkscape:pagecheckerboard="true"
     inkscape:deskcolor="#505050"
     inkscape:document-units="mm"
     showgrid="false"
     showborder="true"
     borderlayer="true"
     inkscape:zoom="3.2519778"
     inkscape:cx="73.954994"
     inkscape:cy="162.97774"
     inkscape:window-width="1920"
     inkscape:window-height="1011"
     inkscape:window-x="0"
     inkscape:window-y="32"
     inkscape:window-maximized="1"
     inkscape:current-layer="layer1" /><defs
     id="defs2" /><g
     inkscape:label="Layer 1"
     inkscape:groupmode="layer"
     id="layer1"><rect
       style="fill:#f5f5ec;fill-opacity:1;stroke:none;stroke-width:1;stroke-linecap:round;stroke-linejoin:round;stroke-opacity:1"
       id="rect4722"
       width="63"
       height="88"
       x="-1.008e-08"
       y="-1.0057143e-08"
       rx="3"
       ry="3" /><text
       xml:space="preserve"
       style="font-style:normal;font-variant:normal;font-weight:bold;font-stretch:normal;font-size:14.1111px;font-family:'Ubuntu Mono';-inkscape-font-specification:'Ubuntu Mono, Bold';font-variant-ligatures:normal;font-variant-caps:normal;font-variant-numeric:normal;font-variant-east-asian:normal;fill:#ffbf00;stroke-width:1;stroke-linecap:round;stroke-linejoin:round;fill-opacity:1"
       x="3.2959642"
       y="12.962401"
       id="text3260-7-7-7"><tspan
         sodipodi:role="line"
         id="tspan394-5-5"
         x="3.2959642"
         y="12.962401">6</tspan></text><text
       xml:space="preserve"
       style="font-style:normal;font-variant:normal;font-weight:bold;font-stretch:normal;font-size:14.1111px;font-family:'Ubuntu Mono';-inkscape-font-specification:'Ubuntu Mono, Bold';font-variant-ligatures:normal;font-variant-caps:normal;font-variant-numeric:normal;font-variant-east-asian:normal;fill:#ffbf00;stroke-width:1;stroke-linecap:round;stroke-linejoin:round;fill-opacity:1"
       x="-59.704319"
       y="-75.037392"
       id="text3260-7-7-7-6"
       transform="scale(-1)"><tspan
         sodipodi:role="line"
         id="tspan394-5-5-2"
         x="-59.704319"
         y="-75.037392">6</tspan></text><path
       style="fill:#ffbf00;fill-opacity:1;stroke-width:0.052;stroke-linecap:round;stroke-linejoin:round;stroke-dasharray:none"
       d="m 9.0375238,14.88292 c 1.1976602,-0.01341 2.1266572,0.877111 2.0776692,2.274998 0.0094,1.195362 -1.2896306,2.407177 -2.3758654,3.358242 -1.0862349,0.951064 -1.9085328,2.506972 -1.9085328,2.506972 0,0 -0.8222978,-1.555908 -1.9085337,-2.506972 -1.0862343,-0.951065 -2.3852846,-2.16288 -2.3758646,-3.358242 -0.04899,-1.397887 0.8800088,-2.288407 2.0776685,-2.274998 1.3362273,0.03045 2.2067298,1.374001 2.2067298,1.374001 0,0 0.8705026,-1.343554 2.206729,-1.374001 z"
       id="path802-3"
       sodipodi:nodetypes="cczczcccc" /><path
       style="fill:#ffbf00;fill-opacity:1;stroke-width:0.052;stroke-linecap:round;stroke-linejoin:round;stroke-dasharray:none"
       d="m 58.376219,73.116876 c 1.19766,0.01341 2.126657,-0.877111 2.077669,-2.274998 0.0094,-1.195362 -1.28963,-2.407177 -2.375865,-3.358242 -1.086235,-0.951064 -1.908533,-2.506972 -1.908533,-2.506972 0,0 -0.822298,1.555908 -1.908534,2.506972 -1.086234,0.951065 -2.385284,2.16288 -2.375864,3.358242 -0.04899,1.397887 0.880009,2.288407 2.077668,2.274998 1.336228,-0.03045 2.20673,-1.374001 2.20673,-1.374001 0,0 0.870503,1.343554 2.206729,1.374001 z"
       id="path802-3-6"
       sodipodi:nodetypes="cczczcccc" /><path
       style="fill:#ffbf00;fill-opacity:1;stroke-width:0.052;stroke-linecap:round;stroke-linejoin:round;stroke-dasharray:none"
       d="m 47.215649,10.884952 c 1.9961,-0.02235 3.544428,1.461851 3.462782,3.791663 0.0157,1.99227 -2.149385,4.011962 -3.959776,5.59707 -1.810392,1.585106 -3.180888,4.178286 -3.180888,4.178286 0,0 -1.370496,-2.59318 -3.18089,-4.178286 -1.81039,-1.585108 -3.975474,-3.6048 -3.959774,-5.59707 -0.08165,-2.329812 1.466681,-3.814012 3.462781,-3.791663 2.227045,0.05075 3.677883,2.290001 3.677883,2.290001 0,0 1.450838,-2.239257 3.677882,-2.290001 z"
       id="path802-3-5"
       sodipodi:nodetypes="cczczcccc" /><path
       style="fill:#ffbf00;fill-opacity:1;stroke-width:0.052;stroke-linecap:round;stroke-linejoin:round;stroke-dasharray:none"
       d="m 23.140114,37.216615 c 1.9961,-0.02235 3.544428,1.461851 3.462782,3.791663 0.0157,1.99227 -2.149385,4.011962 -3.959776,5.59707 -1.810392,1.585106 -3.180888,4.178286 -3.180888,4.178286 0,0 -1.370496,-2.59318 -3.180889,-4.178286 -1.810391,-1.585108 -3.975475,-3.6048 -3.959775,-5.59707 -0.08165,-2.329812 1.466681,-3.814012 3.462781,-3.791663 2.227046,0.05075 3.677883,2.290001 3.677883,2.290001 0,0 1.450838,-2.239257 3.677882,-2.290001 z"
       id="path802-3-5-9"
       sodipodi:nodetypes="cczczcccc" /><path
       style="fill:#ffbf00;fill-opacity:1;stroke-width:0.052;stroke-linecap:round;stroke-linejoin:round;stroke-dasharray:none"
       d="m 47.215649,37.216614 c 1.9961,-0.02235 3.544428,1.461851 3.462782,3.791663 0.0157,1.99227 -2.149385,4.011962 -3.959776,5.59707 -1.810392,1.585106 -3.180888,4.178286 -3.180888,4.178286 0,0 -1.370496,-2.59318 -3.18089,-4.178286 -1.81039,-1.585108 -3.975474,-3.6048 -3.959774,-5.59707 -0.08165,-2.329812 1.466681,-3.814012 3.462781,-3.791663 2.227045,0.05075 3.677883,2.290001 3.677883,2.290001 0,0 1.450838,-2.239257 3.677882,-2.290001 z"
       id="path802-3-5-1"
       sodipodi:nodetypes="cczczcccc" /><path
       style="fill:#ffbf00;fill-opacity:1;stroke-width:0.052;stroke-linecap:round;stroke-linejoin:round;stroke-dasharray:none"
       d="m 23.140115,77.115048 c 1.9961,0.02235 3.544428,-1.461851 3.462782,-3.791663 0.0157,-1.99227 -2.149385,-4.011962 -3.959776,-5.59707 -1.810392,-1.585106 -3.180888,-4.178286 -3.180888,-4.178286 0,0 -1.370496,2.59318 -3.180889,4.178286 -1.810391,1.585108 -3.975475,3.6048 -3.959775,5.59707 -0.08165,2.329812 1.466681,3.814012 3.462781,3.791663 2.227046,-0.05075 3.677883,-2.290001 3.677883,-2.290001 0,0 1.450838,2.239257 3.677882,2.290001 z"
       id="path802-3-5-27"
       sodipodi:nodetypes="cczczcccc" /><path
       style="fill:#ffbf00;fill-opacity:1;stroke-width:0.052;stroke-linecap:round;stroke-linejoin:round;stroke-dasharray:none"
       d="m 47.21565,77.115048 c 1.9961,0.02235 3.544429,-1.461851 3.462782,-3.791663 0.0157,-1.99227 -2.149385,-4.011962 -3.959776,-5.59707 -1.810392,-1.585106 -3.180888,-4.178286 -3.180888,-4.178286 0,0 -1.370496,2.59318 -3.180889,4.178286 -1.810391,1.585108 -3.975475,3.6048 -3.959775,5.59707 -0.08165,2.329812 1.466682,3.814012 3.462781,3.791663 2.227045,-0.05075 3.677883,-2.290001 3.677883,-2.290001 0,0 1.450838,2.239257 3.677882,2.290001 z"
       id="path802-3-5-0"
       sodipodi:nodetypes="cczczcccc" /><path
       style="fill:#ffbf00;fill-opacity:1;stroke-width:0.052;stroke-linecap:round;stroke-linejoin:round;stroke-dasharray:none"
       d="m 23.140114,10.884952 c 1.9961,-0.02235 3.544428,1.461851 3.462782,3.791663 0.0157,1.99227 -2.149385,4.011962 -3.959776,5.59707 -1.810392,1.585106 -3.180888,4.178286 -3.180888,4.178286 0,0 -1.370496,-2.59318 -3.180889,-4.178286 -1.810391,-1.585108 -3.975475,-3.6048 -3.959775,-5.59707 -0.08165,-2.329812 1.466681,-3.814012 3.462781,-3.791663 2.227046,0.05075 3.677883,2.290001 3.677883,2.290001 0,0 1.450838,-2.239257 3.677882,-2.290001 z"
       id="path802-3-5-2"
       sodipodi:nodetypes="cczczcccc" /></g></svg>
