<?xml version="1.0" encoding="UTF-8" standalone="no"?>
<!-- Created with Inkscape (http://www.inkscape.org/) -->

<svg
   width="63mm"
   height="88mm"
   viewBox="0 0 63 88"
   version="1.1"
   id="svg5"
   inkscape:version="1.2.2 (b0a8486541, 2022-12-01)"
   sodipodi:docname="7s.svg"
   xml:space="preserve"
   inkscape:export-filename="../card/7s.png"
   inkscape:export-xdpi="144"
   inkscape:export-ydpi="144"
   xmlns:inkscape="http://www.inkscape.org/namespaces/inkscape"
   xmlns:sodipodi="http://sodipodi.sourceforge.net/DTD/sodipodi-0.dtd"
   xmlns="http://www.w3.org/2000/svg"
   xmlns:svg="http://www.w3.org/2000/svg"><sodipodi:namedview
     id="namedview7"
     pagecolor="#7d7d7d"
     bordercolor="#ffffff"
     borderopacity="1"
     inkscape:showpageshadow="false"
     inkscape:pageopacity="0"
     inkscape:pagecheckerboard="true"
     inkscape:deskcolor="#505050"
     inkscape:document-units="mm"
     showgrid="false"
     showborder="true"
     borderlayer="true"
     inkscape:zoom="0.9125345"
     inkscape:cx="103.0098"
     inkscape:cy="325.46715"
     inkscape:window-width="948"
     inkscape:window-height="995"
     inkscape:window-x="964"
     inkscape:window-y="40"
     inkscape:window-maximized="0"
     inkscape:current-layer="layer1" /><defs
     id="defs2" /><g
     inkscape:label="Layer 1"
     inkscape:groupmode="layer"
     id="layer1"><rect
       style="fill:#f5f5ec;fill-opacity:1;stroke:none;stroke-width:1;stroke-linecap:round;stroke-linejoin:round;stroke-opacity:1"
       id="rect4722"
       width="63"
       height="88"
       x="-1.008e-08"
       y="-1.0057143e-08"
       rx="3"
       ry="3" /><path
       style="fill:#800080;fill-opacity:1;stroke-width:0.052;stroke-linecap:round;stroke-linejoin:round;stroke-dasharray:none"
       d="m 16.749911,24.812088 c 1.336593,-0.585592 2.334342,-2.188157 2.43777,-4.210248 0,0 -0.956922,1.395385 -2.84724,1.438455 -1.694294,0.01898 -3.008517,-1.240821 -2.939216,-3.218369 -0.01333,-1.691042 1.824401,-3.405361 3.361064,-4.750802 1.536664,-1.345441 2.699943,-3.546538 2.699943,-3.546538 0,0 1.16328,2.201097 2.699945,3.546538 1.536662,1.345441 3.374389,3.05976 3.361062,4.750802 0.0693,1.977548 -1.244921,3.237339 -2.939213,3.218369 -1.89032,-0.04307 -2.847243,-1.438455 -2.847243,-1.438455 0.103425,2.022089 1.101176,3.624656 2.437771,4.210246 0,0 -1.776042,-0.729986 -2.712322,-0.729986 -0.936279,1e-6 -2.712321,0.729988 -2.712321,0.729988 z"
       id="path802"
       sodipodi:nodetypes="cccczczcccczc" /><path
       style="fill:#800080;fill-opacity:1;stroke-width:0.052;stroke-linecap:round;stroke-linejoin:round;stroke-dasharray:none"
       d="m 16.749911,51.143751 c 1.336593,-0.585591 2.334342,-2.188156 2.43777,-4.210247 0,0 -0.956922,1.395384 -2.84724,1.438454 -1.694294,0.01898 -3.008518,-1.240822 -2.939217,-3.218369 -0.01332,-1.691043 1.824402,-3.405361 3.361065,-4.750802 1.536664,-1.345442 2.699943,-3.546538 2.699943,-3.546538 0,0 1.16328,2.201096 2.699945,3.546538 1.536662,1.345441 3.374389,3.059759 3.361062,4.750802 0.0693,1.977547 -1.244921,3.237339 -2.939213,3.218369 -1.89032,-0.04307 -2.847243,-1.438454 -2.847243,-1.438454 0.103425,2.022087 1.101176,3.624656 2.437771,4.210245 0,0 -1.776042,-0.729985 -2.712322,-0.729985 -0.936279,10e-7 -2.712321,0.729987 -2.712321,0.729987 z"
       id="path802-6"
       sodipodi:nodetypes="cccczczcccczc" /><path
       style="fill:#800080;fill-opacity:1;stroke-width:0.052;stroke-linecap:round;stroke-linejoin:round;stroke-dasharray:none"
       d="m 16.749912,63.187912 c 1.336594,0.585592 2.334342,2.188157 2.43777,4.210248 0,0 -0.956921,-1.395385 -2.84724,-1.438455 -1.694294,-0.01897 -3.008519,1.240821 -2.939218,3.218369 -0.01332,1.691042 1.824403,3.405361 3.361067,4.750802 1.536663,1.345441 2.699942,3.546538 2.699942,3.546538 0,0 1.16328,-2.201097 2.699945,-3.546538 1.536663,-1.345441 3.374389,-3.05976 3.361063,-4.750802 0.0693,-1.977548 -1.244922,-3.237339 -2.939214,-3.218369 -1.89032,0.04308 -2.847243,1.438455 -2.847243,1.438455 0.103425,-2.022089 1.101177,-3.624656 2.437772,-4.210246 0,0 -1.776043,0.729986 -2.712323,0.729986 -0.936279,-1e-6 -2.712321,-0.729987 -2.712321,-0.729988 z"
       id="path802-1"
       sodipodi:nodetypes="cccczczcccczc" /><path
       style="fill:#800080;fill-opacity:1;stroke-width:0.052;stroke-linecap:round;stroke-linejoin:round;stroke-dasharray:none"
       d="m 40.825446,24.812088 c 1.336593,-0.585592 2.334342,-2.188157 2.43777,-4.210248 0,0 -0.956922,1.395385 -2.84724,1.438455 -1.694294,0.01898 -3.008517,-1.240821 -2.939216,-3.218369 -0.01333,-1.691042 1.824401,-3.405361 3.361064,-4.750802 1.536664,-1.345441 2.699943,-3.546538 2.699943,-3.546538 0,0 1.16328,2.201097 2.699945,3.546538 1.536662,1.345441 3.374389,3.05976 3.361062,4.750802 0.0693,1.977548 -1.244921,3.237339 -2.939213,3.218369 -1.89032,-0.04307 -2.847243,-1.438455 -2.847243,-1.438455 0.103425,2.022089 1.101176,3.624656 2.437771,4.210246 0,0 -1.776042,-0.729986 -2.712322,-0.729986 -0.936279,1e-6 -2.712321,0.729988 -2.712321,0.729988 z"
       id="path802-7"
       sodipodi:nodetypes="cccczczcccczc" /><path
       style="fill:#800080;fill-opacity:1;stroke-width:0.052;stroke-linecap:round;stroke-linejoin:round;stroke-dasharray:none"
       d="m 40.825446,51.14375 c 1.336593,-0.585591 2.334342,-2.188156 2.43777,-4.210248 0,0 -0.956922,1.395384 -2.84724,1.438454 -1.694294,0.01897 -3.008517,-1.24082 -2.939216,-3.218367 -0.01333,-1.691043 1.824401,-3.405362 3.361064,-4.750803 1.536664,-1.345441 2.699943,-3.546537 2.699943,-3.546537 0,0 1.16328,2.201096 2.699945,3.546537 1.536662,1.345441 3.374389,3.05976 3.361062,4.750803 0.0693,1.977547 -1.244921,3.237338 -2.939213,3.218367 -1.89032,-0.04308 -2.847243,-1.438454 -2.847243,-1.438454 0.103425,2.022089 1.101176,3.624657 2.437771,4.210247 0,0 -1.776042,-0.729987 -2.712322,-0.729987 -0.936279,2e-6 -2.712321,0.729988 -2.712321,0.729988 z"
       id="path802-9-3"
       sodipodi:nodetypes="cccczczcccczc" /><path
       style="fill:#800080;fill-opacity:1;stroke-width:0.052;stroke-linecap:round;stroke-linejoin:round;stroke-dasharray:none"
       d="m 40.825447,63.187912 c 1.336594,0.585592 2.334342,2.188157 2.43777,4.210248 0,0 -0.956921,-1.395385 -2.84724,-1.438455 -1.694294,-0.01897 -3.008519,1.240821 -2.939218,3.218369 -0.01332,1.691042 1.824403,3.405361 3.361067,4.750802 1.536663,1.345441 2.699942,3.546538 2.699942,3.546538 0,0 1.16328,-2.201097 2.699945,-3.546538 1.536663,-1.345441 3.374389,-3.05976 3.361063,-4.750802 0.0693,-1.977548 -1.244922,-3.237339 -2.939214,-3.218369 -1.89032,0.04308 -2.847243,1.438455 -2.847243,1.438455 0.103425,-2.022089 1.101177,-3.624656 2.437772,-4.210246 0,0 -1.776043,0.729986 -2.712323,0.729986 -0.936279,-1e-6 -2.712321,-0.729987 -2.712321,-0.729988 z"
       id="path802-1-8"
       sodipodi:nodetypes="cccczczcccczc" /><path
       style="fill:#800080;fill-opacity:1;stroke-width:0.052;stroke-linecap:round;stroke-linejoin:round;stroke-dasharray:none"
       d="m 28.787679,37.977919 c 1.336593,-0.585591 2.334342,-2.188156 2.43777,-4.210247 0,0 -0.956922,1.395385 -2.84724,1.438455 -1.694294,0.01898 -3.008518,-1.240822 -2.939217,-3.218369 -0.01332,-1.691043 1.824402,-3.405361 3.361065,-4.750802 C 30.336721,25.891514 31.5,23.690418 31.5,23.690418 c 0,0 1.16328,2.201096 2.699945,3.546538 1.536662,1.345441 3.374389,3.059759 3.361062,4.750802 0.0693,1.977547 -1.244921,3.237339 -2.939213,3.218369 -1.89032,-0.04307 -2.847243,-1.438455 -2.847243,-1.438455 0.103425,2.022088 1.101176,3.624656 2.437771,4.210246 0,0 -1.776042,-0.729986 -2.712322,-0.729986 -0.936279,1e-6 -2.712321,0.729987 -2.712321,0.729987 z"
       id="path802-6-5-1"
       sodipodi:nodetypes="cccczczcccczc" /><path
       style="fill:#800080;fill-opacity:1;stroke-width:0.052;stroke-linecap:round;stroke-linejoin:round;stroke-dasharray:none"
       d="m 5.2034019,23.239202 c 0.801956,-0.351355 1.400606,-1.312894 1.462662,-2.526149 0,0 -0.574153,0.837231 -1.708344,0.863073 -1.016576,0.01139 -1.80511,-0.744492 -1.763529,-1.931021 -0.008,-1.014625 1.09464,-2.043217 2.016639,-2.850481 0.921998,-0.807265 1.619965,-2.127923 1.619965,-2.127923 0,0 0.697968,1.320658 1.619967,2.127923 0.921997,0.807264 2.0246331,1.835856 2.0166371,2.850481 0.04158,1.186529 -0.7469521,1.942403 -1.7635281,1.931021 -1.134192,-0.02585 -1.708345,-0.863073 -1.708345,-0.863073 0.06206,1.213254 0.660705,2.174794 1.462662,2.526148 0,0 -1.065625,-0.437992 -1.627393,-0.437992 -0.561767,1e-6 -1.627393,0.437993 -1.627393,0.437993 z"
       id="path802-61"
       sodipodi:nodetypes="cccczczcccczc" /><text
       xml:space="preserve"
       style="font-style:normal;font-variant:normal;font-weight:bold;font-stretch:normal;font-size:14.1111px;font-family:'Ubuntu Mono';-inkscape-font-specification:'Ubuntu Mono, Bold';font-variant-ligatures:normal;font-variant-caps:normal;font-variant-numeric:normal;font-variant-east-asian:normal;fill:#800080;stroke-width:1;stroke-linecap:round;stroke-linejoin:round"
       x="3.2889087"
       y="13.025902"
       id="text3260-7-7"><tspan
         sodipodi:role="line"
         id="tspan394-5"
         x="3.2889087"
         y="13.025902">7</tspan></text><text
       xml:space="preserve"
       style="font-style:normal;font-variant:normal;font-weight:bold;font-stretch:normal;font-size:14.1111px;font-family:'Ubuntu Mono';-inkscape-font-specification:'Ubuntu Mono, Bold';font-variant-ligatures:normal;font-variant-caps:normal;font-variant-numeric:normal;font-variant-east-asian:normal;fill:#800080;stroke-width:1;stroke-linecap:round;stroke-linejoin:round"
       x="-59.711372"
       y="-74.973892"
       id="text3260-7-7-1"
       transform="scale(-1)"><tspan
         sodipodi:role="line"
         id="tspan394-5-2"
         x="-59.711372"
         y="-74.973892">7</tspan></text><path
       style="fill:#800080;fill-opacity:1;stroke-width:0.052;stroke-linecap:round;stroke-linejoin:round;stroke-dasharray:none"
       d="m 54.542097,64.760594 c 0.801956,0.351355 1.400606,1.312894 1.462662,2.526149 0,0 -0.574153,-0.837231 -1.708344,-0.863073 -1.016576,-0.01139 -1.80511,0.744492 -1.763529,1.931021 -0.008,1.014625 1.09464,2.043217 2.016639,2.850481 0.921998,0.807265 1.619965,2.127923 1.619965,2.127923 0,0 0.697968,-1.320658 1.619967,-2.127923 0.921997,-0.807264 2.024633,-1.835856 2.016637,-2.850481 0.04158,-1.186529 -0.746952,-1.942403 -1.763528,-1.931021 -1.134192,0.02585 -1.708345,0.863073 -1.708345,0.863073 0.06206,-1.213254 0.660705,-2.174794 1.462662,-2.526148 0,0 -1.065625,0.437992 -1.627393,0.437992 -0.561767,-10e-7 -1.627393,-0.437993 -1.627393,-0.437993 z"
       id="path802-61-4"
       sodipodi:nodetypes="cccczczcccczc" /></g></svg>
