<?xml version="1.0" encoding="UTF-8" standalone="no"?>
<!-- Created with Inkscape (http://www.inkscape.org/) -->

<svg
   width="63mm"
   height="88mm"
   viewBox="0 0 63 88"
   version="1.1"
   id="svg5"
   inkscape:version="1.2.2 (b0a8486541, 2022-12-01)"
   sodipodi:docname="8d.svg"
   xml:space="preserve"
   inkscape:export-filename="../card/8s.png"
   inkscape:export-xdpi="144"
   inkscape:export-ydpi="144"
   xmlns:inkscape="http://www.inkscape.org/namespaces/inkscape"
   xmlns:sodipodi="http://sodipodi.sourceforge.net/DTD/sodipodi-0.dtd"
   xmlns="http://www.w3.org/2000/svg"
   xmlns:svg="http://www.w3.org/2000/svg"><sodipodi:namedview
     id="namedview7"
     pagecolor="#7d7d7d"
     bordercolor="#ffffff"
     borderopacity="1"
     inkscape:showpageshadow="false"
     inkscape:pageopacity="0"
     inkscape:pagecheckerboard="true"
     inkscape:deskcolor="#505050"
     inkscape:document-units="mm"
     showgrid="false"
     showborder="true"
     borderlayer="true"
     inkscape:zoom="3.5222618"
     inkscape:cx="66.008722"
     inkscape:cy="94.257616"
     inkscape:window-width="1920"
     inkscape:window-height="1011"
     inkscape:window-x="0"
     inkscape:window-y="32"
     inkscape:window-maximized="1"
     inkscape:current-layer="layer1" /><defs
     id="defs2" /><g
     inkscape:label="Layer 1"
     inkscape:groupmode="layer"
     id="layer1"><rect
       style="fill:#f5f5ec;fill-opacity:1;stroke:none;stroke-width:1;stroke-linecap:round;stroke-linejoin:round;stroke-opacity:1"
       id="rect4722"
       width="63"
       height="88"
       x="-1.008e-08"
       y="-1.0057143e-08"
       rx="3"
       ry="3" /><text
       xml:space="preserve"
       style="font-style:normal;font-variant:normal;font-weight:bold;font-stretch:normal;font-size:14.1111px;font-family:'Ubuntu Mono';-inkscape-font-specification:'Ubuntu Mono, Bold';font-variant-ligatures:normal;font-variant-caps:normal;font-variant-numeric:normal;font-variant-east-asian:normal;fill:#ffbf00;stroke-width:1;stroke-linecap:round;stroke-linejoin:round;fill-opacity:1"
       x="3.2959642"
       y="13.040013"
       id="text3260-7"><tspan
         sodipodi:role="line"
         id="tspan394"
         x="3.2959642"
         y="13.040013">8</tspan></text><text
       xml:space="preserve"
       style="font-style:normal;font-variant:normal;font-weight:bold;font-stretch:normal;font-size:14.1111px;font-family:'Ubuntu Mono';-inkscape-font-specification:'Ubuntu Mono, Bold';font-variant-ligatures:normal;font-variant-caps:normal;font-variant-numeric:normal;font-variant-east-asian:normal;fill:#ffbf00;stroke-width:1;stroke-linecap:round;stroke-linejoin:round;fill-opacity:1"
       x="-59.704319"
       y="-74.959778"
       id="text3260-7-9"
       transform="scale(-1)"><tspan
         sodipodi:role="line"
         id="tspan394-1"
         x="-59.704319"
         y="-74.959778">8</tspan></text><path
       id="rect344"
       style="fill:#ffbf00;fill-opacity:1;stroke-width:0.0519999;stroke-linecap:round;stroke-linejoin:round"
       d="m 19.462233,10.524587 c -1.014712,2.644509 -3.926887,5.833463 -6.000377,7.143404 3.699774,5e-6 3.699772,-1.61e-4 0,6.91e-4 2.07349,1.309941 4.985665,4.498895 6.000377,7.143405 1.014713,-2.64451 3.926886,-5.833464 6.000375,-7.143405 v -6.91e-4 C 23.389119,16.35805 20.476946,13.169096 19.462233,10.524587 Z"
       sodipodi:nodetypes="ccccccc" /><path
       id="rect344-6"
       style="fill:#ffbf00;fill-opacity:1;stroke-width:0.0519999;stroke-linecap:round;stroke-linejoin:round"
       d="m 43.537768,10.524587 c -1.014712,2.644509 -3.926887,5.833463 -6.000377,7.143404 3.699774,5e-6 3.699772,-1.61e-4 0,6.91e-4 2.07349,1.309941 4.985665,4.498895 6.000377,7.143405 1.014713,-2.64451 3.926886,-5.833464 6.000375,-7.143405 v -6.91e-4 C 47.464654,16.35805 44.552481,13.169096 43.537768,10.524587 Z"
       sodipodi:nodetypes="ccccccc" /><path
       id="rect344-2"
       style="fill:#ffbf00;fill-opacity:1;stroke-width:0.0519999;stroke-linecap:round;stroke-linejoin:round"
       d="m 31.500001,23.690418 c -1.014712,2.644509 -3.926887,5.833463 -6.000377,7.143404 3.699774,5e-6 3.699772,-1.61e-4 0,6.91e-4 2.07349,1.309941 4.985665,4.498895 6.000377,7.143405 1.014713,-2.64451 3.926886,-5.833464 6.000375,-7.143405 v -6.91e-4 c -2.073489,-1.309941 -4.985662,-4.498895 -6.000375,-7.143404 z"
       sodipodi:nodetypes="ccccccc" /><path
       id="rect344-9"
       style="fill:#ffbf00;fill-opacity:1;stroke-width:0.0519999;stroke-linecap:round;stroke-linejoin:round"
       d="m 19.462233,36.85625 c -1.014712,2.644509 -3.926887,5.833463 -6.000377,7.143404 3.699774,5e-6 3.699772,-1.61e-4 0,6.91e-4 2.07349,1.309941 4.985665,4.498895 6.000377,7.143405 1.014713,-2.64451 3.926886,-5.833464 6.000375,-7.143405 v -6.91e-4 C 23.389119,42.689713 20.476946,39.500759 19.462233,36.85625 Z"
       sodipodi:nodetypes="ccccccc" /><path
       id="rect344-1"
       style="fill:#ffbf00;fill-opacity:1;stroke-width:0.0519999;stroke-linecap:round;stroke-linejoin:round"
       d="m 43.537768,36.856249 c -1.014712,2.644509 -3.926887,5.833463 -6.000377,7.143404 3.699774,5e-6 3.699772,-1.61e-4 0,6.91e-4 2.07349,1.309941 4.985665,4.498895 6.000377,7.143405 1.014713,-2.64451 3.926886,-5.833464 6.000375,-7.143405 v -6.91e-4 c -2.073489,-1.309941 -4.985662,-4.498895 -6.000375,-7.143404 z"
       sodipodi:nodetypes="ccccccc" /><path
       id="rect344-27"
       style="fill:#ffbf00;fill-opacity:1;stroke-width:0.0519999;stroke-linecap:round;stroke-linejoin:round"
       d="m 43.537769,63.187913 c -1.014712,2.644509 -3.926887,5.833463 -6.000377,7.143404 3.699774,5e-6 3.699772,-1.61e-4 0,6.91e-4 2.07349,1.309941 4.985665,4.498895 6.000377,7.143405 1.014713,-2.64451 3.926886,-5.833464 6.000375,-7.143405 v -6.91e-4 c -2.073489,-1.309941 -4.985662,-4.498895 -6.000375,-7.143404 z"
       sodipodi:nodetypes="ccccccc" /><path
       id="rect344-0"
       style="fill:#ffbf00;fill-opacity:1;stroke-width:0.0519999;stroke-linecap:round;stroke-linejoin:round"
       d="m 31.5,50.022082 c -1.014712,2.644509 -3.926887,5.833463 -6.000377,7.143404 3.699774,5e-6 3.699772,-1.61e-4 0,6.91e-4 2.07349,1.309941 4.985665,4.498895 6.000377,7.143405 1.014713,-2.64451 3.926886,-5.833464 6.000375,-7.143405 v -6.91e-4 C 35.426886,55.855545 32.514713,52.666591 31.5,50.022082 Z"
       sodipodi:nodetypes="ccccccc" /><path
       id="rect344-93"
       style="fill:#ffbf00;fill-opacity:1;stroke-width:0.0519999;stroke-linecap:round;stroke-linejoin:round"
       d="m 19.462234,63.187913 c -1.014712,2.644509 -3.926887,5.833463 -6.000377,7.143404 3.699774,5e-6 3.699772,-1.61e-4 0,6.91e-4 2.07349,1.309941 4.985665,4.498895 6.000377,7.143405 1.014713,-2.64451 3.926886,-5.833464 6.000375,-7.143405 v -6.91e-4 C 23.38912,69.021376 20.476947,65.832422 19.462234,63.187913 Z"
       sodipodi:nodetypes="ccccccc" /><path
       id="rect344-3"
       style="fill:#ffbf00;fill-opacity:1;stroke-width:0.0519999;stroke-linecap:round;stroke-linejoin:round"
       d="m 6.8307961,14.666702 c -0.608828,1.586705 -2.356133,3.500078 -3.600227,4.286042 2.219865,3e-6 2.219864,-9.6e-5 0,4.15e-4 1.244094,0.785965 2.991399,2.699337 3.600227,4.286043 0.608827,-1.586706 2.356131,-3.500078 3.6002249,-4.286043 v -4.15e-4 C 9.1869271,18.16678 7.4396231,16.253407 6.8307961,14.666702 Z"
       sodipodi:nodetypes="ccccccc" /><path
       id="rect344-3-5"
       style="fill:#ffbf00;fill-opacity:1;stroke-width:0.0519999;stroke-linecap:round;stroke-linejoin:round"
       d="m 56.169491,64.760594 c -0.608828,1.586705 -2.356133,3.500078 -3.600227,4.286042 2.219865,3e-6 2.219864,-9.6e-5 0,4.15e-4 1.244094,0.785965 2.991399,2.699337 3.600227,4.286043 0.608827,-1.586706 2.356131,-3.500078 3.600225,-4.286043 v -4.15e-4 c -1.244094,-0.785964 -2.991398,-2.699337 -3.600225,-4.286042 z"
       sodipodi:nodetypes="ccccccc" /></g></svg>
