<?xml version="1.0" encoding="UTF-8" standalone="no"?>
<!-- Created with Inkscape (http://www.inkscape.org/) -->

<svg
   width="63mm"
   height="88mm"
   viewBox="0 0 63 88"
   version="1.1"
   id="svg5"
   inkscape:version="1.2.2 (b0a8486541, 2022-12-01)"
   sodipodi:docname="8h.svg"
   xml:space="preserve"
   inkscape:export-filename="../card/8s.png"
   inkscape:export-xdpi="144"
   inkscape:export-ydpi="144"
   xmlns:inkscape="http://www.inkscape.org/namespaces/inkscape"
   xmlns:sodipodi="http://sodipodi.sourceforge.net/DTD/sodipodi-0.dtd"
   xmlns="http://www.w3.org/2000/svg"
   xmlns:svg="http://www.w3.org/2000/svg"><sodipodi:namedview
     id="namedview7"
     pagecolor="#7d7d7d"
     bordercolor="#ffffff"
     borderopacity="1"
     inkscape:showpageshadow="false"
     inkscape:pageopacity="0"
     inkscape:pagecheckerboard="true"
     inkscape:deskcolor="#505050"
     inkscape:document-units="mm"
     showgrid="false"
     showborder="true"
     borderlayer="true"
     inkscape:zoom="2.6643818"
     inkscape:cx="116.53735"
     inkscape:cy="173.77389"
     inkscape:window-width="1920"
     inkscape:window-height="1011"
     inkscape:window-x="0"
     inkscape:window-y="32"
     inkscape:window-maximized="1"
     inkscape:current-layer="layer1" /><defs
     id="defs2" /><g
     inkscape:label="Layer 1"
     inkscape:groupmode="layer"
     id="layer1"><rect
       style="fill:#f5f5ec;fill-opacity:1;stroke:none;stroke-width:1;stroke-linecap:round;stroke-linejoin:round;stroke-opacity:1"
       id="rect4722"
       width="63"
       height="88"
       x="-1.008e-08"
       y="-1.0057143e-08"
       rx="3"
       ry="3" /><text
       xml:space="preserve"
       style="font-style:normal;font-variant:normal;font-weight:bold;font-stretch:normal;font-size:14.1111px;font-family:'Ubuntu Mono';-inkscape-font-specification:'Ubuntu Mono, Bold';font-variant-ligatures:normal;font-variant-caps:normal;font-variant-numeric:normal;font-variant-east-asian:normal;fill:#ffbf00;stroke-width:1;stroke-linecap:round;stroke-linejoin:round;fill-opacity:1"
       x="3.2959642"
       y="13.040013"
       id="text3260-7"><tspan
         sodipodi:role="line"
         id="tspan394"
         x="3.2959642"
         y="13.040013">8</tspan></text><text
       xml:space="preserve"
       style="font-style:normal;font-variant:normal;font-weight:bold;font-stretch:normal;font-size:14.1111px;font-family:'Ubuntu Mono';-inkscape-font-specification:'Ubuntu Mono, Bold';font-variant-ligatures:normal;font-variant-caps:normal;font-variant-numeric:normal;font-variant-east-asian:normal;fill:#ffbf00;stroke-width:1;stroke-linecap:round;stroke-linejoin:round;fill-opacity:1"
       x="-59.704319"
       y="-74.959778"
       id="text3260-7-9"
       transform="scale(-1)"><tspan
         sodipodi:role="line"
         id="tspan394-1"
         x="-59.704319"
         y="-74.959778">8</tspan></text><path
       style="fill:#ffbf00;fill-opacity:1;stroke-width:0.052;stroke-linecap:round;stroke-linejoin:round;stroke-dasharray:none"
       d="m 23.140113,10.884952 c 1.9961,-0.02235 3.544429,1.46185 3.462783,3.791661 0.0157,1.992272 -2.149385,4.011964 -3.959776,5.59707 -1.810392,1.585107 -3.180888,4.178288 -3.180888,4.178288 0,0 -1.370496,-2.593181 -3.18089,-4.178288 -1.81039,-1.585106 -3.975474,-3.604798 -3.959774,-5.59707 -0.08165,-2.329811 1.466682,-3.81401 3.46278,-3.791661 2.227046,0.05074 3.677884,2.290001 3.677884,2.290001 0,0 1.450837,-2.239259 3.677881,-2.290001 z"
       id="path802-3"
       sodipodi:nodetypes="cczczcccc" /><path
       style="fill:#ffbf00;fill-opacity:1;stroke-width:0.052;stroke-linecap:round;stroke-linejoin:round;stroke-dasharray:none"
       d="m 47.215648,10.884952 c 1.9961,-0.02235 3.544429,1.46185 3.462783,3.791661 0.0157,1.992272 -2.149385,4.011964 -3.959776,5.59707 -1.810392,1.585107 -3.180888,4.178288 -3.180888,4.178288 0,0 -1.370496,-2.593181 -3.18089,-4.178288 -1.81039,-1.585106 -3.975474,-3.604798 -3.959774,-5.59707 -0.08165,-2.329811 1.466682,-3.81401 3.46278,-3.791661 2.227046,0.05074 3.677884,2.290001 3.677884,2.290001 0,0 1.450837,-2.239259 3.677881,-2.290001 z"
       id="path802-3-2"
       sodipodi:nodetypes="cczczcccc" /><path
       style="fill:#ffbf00;fill-opacity:1;stroke-width:0.052;stroke-linecap:round;stroke-linejoin:round;stroke-dasharray:none"
       d="m 35.177881,24.050783 c 1.9961,-0.02235 3.544429,1.46185 3.462783,3.791661 0.0157,1.992272 -2.149385,4.011964 -3.959776,5.59707 C 32.870496,35.024621 31.5,37.617802 31.5,37.617802 c 0,0 -1.370496,-2.593181 -3.18089,-4.178288 -1.81039,-1.585106 -3.975474,-3.604798 -3.959774,-5.59707 -0.08165,-2.329811 1.466682,-3.81401 3.46278,-3.791661 2.227046,0.05074 3.677884,2.290001 3.677884,2.290001 0,0 1.450837,-2.239259 3.677881,-2.290001 z"
       id="path802-3-9"
       sodipodi:nodetypes="cczczcccc" /><path
       style="fill:#ffbf00;fill-opacity:1;stroke-width:0.052;stroke-linecap:round;stroke-linejoin:round;stroke-dasharray:none"
       d="m 23.140113,37.216615 c 1.9961,-0.02235 3.544429,1.46185 3.462783,3.791661 0.0157,1.992272 -2.149385,4.011964 -3.959776,5.59707 -1.810392,1.585107 -3.180888,4.178288 -3.180888,4.178288 0,0 -1.370496,-2.593181 -3.18089,-4.178288 -1.81039,-1.585106 -3.975474,-3.604798 -3.959774,-5.59707 -0.08165,-2.329811 1.466682,-3.81401 3.46278,-3.791661 2.227046,0.05074 3.677884,2.290001 3.677884,2.290001 0,0 1.450837,-2.239259 3.677881,-2.290001 z"
       id="path802-3-1"
       sodipodi:nodetypes="cczczcccc" /><path
       style="fill:#ffbf00;fill-opacity:1;stroke-width:0.052;stroke-linecap:round;stroke-linejoin:round;stroke-dasharray:none"
       d="m 47.215648,37.216614 c 1.9961,-0.02235 3.544429,1.46185 3.462783,3.791661 0.0157,1.992272 -2.149385,4.011964 -3.959776,5.59707 -1.810392,1.585107 -3.180888,4.178288 -3.180888,4.178288 0,0 -1.370496,-2.593181 -3.18089,-4.178288 -1.81039,-1.585106 -3.975474,-3.604798 -3.959774,-5.59707 -0.08165,-2.329811 1.466682,-3.81401 3.46278,-3.791661 2.227046,0.05074 3.677884,2.290001 3.677884,2.290001 0,0 1.450837,-2.239259 3.677881,-2.290001 z"
       id="path802-3-27"
       sodipodi:nodetypes="cczczcccc" /><path
       style="fill:#ffbf00;fill-opacity:1;stroke-width:0.052;stroke-linecap:round;stroke-linejoin:round;stroke-dasharray:none"
       d="m 35.17788,63.949217 c 1.9961,0.02235 3.544429,-1.46185 3.462783,-3.791661 0.0157,-1.992272 -2.149385,-4.011964 -3.959776,-5.59707 -1.810392,-1.585107 -3.180888,-4.178288 -3.180888,-4.178288 0,0 -1.370496,2.593181 -3.18089,4.178288 -1.81039,1.585106 -3.975474,3.604798 -3.959774,5.59707 -0.08165,2.329811 1.466682,3.81401 3.46278,3.791661 2.227046,-0.05074 3.677884,-2.290001 3.677884,-2.290001 0,0 1.450837,2.239259 3.677881,2.290001 z"
       id="path802-3-0"
       sodipodi:nodetypes="cczczcccc" /><path
       style="fill:#ffbf00;fill-opacity:1;stroke-width:0.052;stroke-linecap:round;stroke-linejoin:round;stroke-dasharray:none"
       d="m 23.140114,77.115048 c 1.9961,0.02235 3.544429,-1.46185 3.462783,-3.791661 0.0157,-1.992272 -2.149385,-4.011964 -3.959776,-5.59707 -1.810392,-1.585107 -3.180888,-4.178288 -3.180888,-4.178288 0,0 -1.370496,2.593181 -3.18089,4.178288 -1.81039,1.585106 -3.975474,3.604798 -3.959774,5.59707 -0.08165,2.329811 1.466682,3.81401 3.46278,3.791661 2.227046,-0.05074 3.677884,-2.290001 3.677884,-2.290001 0,0 1.450837,2.239259 3.677881,2.290001 z"
       id="path802-3-93"
       sodipodi:nodetypes="cczczcccc" /><path
       style="fill:#ffbf00;fill-opacity:1;stroke-width:0.052;stroke-linecap:round;stroke-linejoin:round;stroke-dasharray:none"
       d="m 47.215649,77.115048 c 1.9961,0.02235 3.544429,-1.46185 3.462783,-3.791661 0.0157,-1.992272 -2.149385,-4.011964 -3.959776,-5.59707 -1.810392,-1.585107 -3.180888,-4.178288 -3.180888,-4.178288 0,0 -1.370496,2.593181 -3.18089,4.178288 -1.81039,1.585106 -3.975474,3.604798 -3.959774,5.59707 -0.08165,2.329811 1.466682,3.81401 3.46278,3.791661 2.227046,-0.05074 3.677884,-2.290001 3.677884,-2.290001 0,0 1.450837,2.239259 3.677881,2.290001 z"
       id="path802-3-6"
       sodipodi:nodetypes="cczczcccc" /><path
       style="fill:#ffbf00;fill-opacity:1;stroke-width:0.052;stroke-linecap:round;stroke-linejoin:round;stroke-dasharray:none"
       d="m 9.0375235,14.882921 c 1.1976605,-0.01341 2.1266575,0.87711 2.0776705,2.274997 0.0094,1.195363 -1.2896315,2.407178 -2.3758665,3.358242 -1.086235,0.951063 -1.908533,2.506972 -1.908533,2.506972 0,0 -0.822297,-1.555909 -1.908534,-2.506972 -1.086234,-0.951064 -2.385284,-2.162879 -2.375864,-3.358242 -0.04899,-1.397887 0.880009,-2.288407 2.077668,-2.274997 1.336228,0.03044 2.206731,1.374 2.206731,1.374 0,0 0.870502,-1.343555 2.206728,-1.374 z"
       id="path802-3-5"
       sodipodi:nodetypes="cczczcccc" /><path
       style="fill:#ffbf00;fill-opacity:1;stroke-width:0.052;stroke-linecap:round;stroke-linejoin:round;stroke-dasharray:none"
       d="m 58.376218,73.116875 c 1.197661,0.01341 2.126658,-0.87711 2.077671,-2.274997 0.0094,-1.195363 -1.289632,-2.407178 -2.375866,-3.358242 -1.086236,-0.951063 -1.908533,-2.506972 -1.908533,-2.506972 0,0 -0.822297,1.555909 -1.908535,2.506972 -1.086233,0.951064 -2.385283,2.162879 -2.375864,3.358242 -0.04899,1.397887 0.88001,2.288407 2.077669,2.274997 1.336228,-0.03044 2.206731,-1.374 2.206731,-1.374 0,0 0.870502,1.343555 2.206727,1.374 z"
       id="path802-3-5-6"
       sodipodi:nodetypes="cczczcccc" /></g></svg>
