<?xml version="1.0" encoding="UTF-8" standalone="no"?>
<!-- Created with Inkscape (http://www.inkscape.org/) -->

<svg
   width="63mm"
   height="88mm"
   viewBox="0 0 63 88"
   version="1.1"
   id="svg5"
   inkscape:version="1.2.2 (b0a8486541, 2022-12-01)"
   sodipodi:docname="9d.svg"
   xml:space="preserve"
   inkscape:export-filename="../card/9s.png"
   inkscape:export-xdpi="144"
   inkscape:export-ydpi="144"
   xmlns:inkscape="http://www.inkscape.org/namespaces/inkscape"
   xmlns:sodipodi="http://sodipodi.sourceforge.net/DTD/sodipodi-0.dtd"
   xmlns="http://www.w3.org/2000/svg"
   xmlns:svg="http://www.w3.org/2000/svg"><sodipodi:namedview
     id="namedview7"
     pagecolor="#7d7d7d"
     bordercolor="#ffffff"
     borderopacity="1"
     inkscape:showpageshadow="false"
     inkscape:pageopacity="0"
     inkscape:pagecheckerboard="true"
     inkscape:deskcolor="#505050"
     inkscape:document-units="mm"
     showgrid="false"
     showborder="true"
     borderlayer="true"
     inkscape:zoom="3.5982968"
     inkscape:cx="57.388262"
     inkscape:cy="162.29901"
     inkscape:window-width="1920"
     inkscape:window-height="1011"
     inkscape:window-x="0"
     inkscape:window-y="32"
     inkscape:window-maximized="1"
     inkscape:current-layer="layer1" /><defs
     id="defs2" /><g
     inkscape:label="Layer 1"
     inkscape:groupmode="layer"
     id="layer1"><rect
       style="fill:#f5f5ec;fill-opacity:1;stroke:none;stroke-width:1;stroke-linecap:round;stroke-linejoin:round;stroke-opacity:1"
       id="rect4722"
       width="63"
       height="88"
       x="-1.008e-08"
       y="-1.0057143e-08"
       rx="3"
       ry="3" /><text
       xml:space="preserve"
       style="font-style:normal;font-variant:normal;font-weight:bold;font-stretch:normal;font-size:14.1111px;font-family:'Ubuntu Mono';-inkscape-font-specification:'Ubuntu Mono, Bold';font-variant-ligatures:normal;font-variant-caps:normal;font-variant-numeric:normal;font-variant-east-asian:normal;fill:#ffbf00;stroke-width:1;stroke-linecap:round;stroke-linejoin:round;fill-opacity:1"
       x="3.2889087"
       y="13.12468"
       id="text3260-35"><tspan
         sodipodi:role="line"
         id="tspan396"
         x="3.2889087"
         y="13.12468">9</tspan></text><text
       xml:space="preserve"
       style="font-style:normal;font-variant:normal;font-weight:bold;font-stretch:normal;font-size:14.1111px;font-family:'Ubuntu Mono';-inkscape-font-specification:'Ubuntu Mono, Bold';font-variant-ligatures:normal;font-variant-caps:normal;font-variant-numeric:normal;font-variant-east-asian:normal;fill:#ffbf00;stroke-width:1;stroke-linecap:round;stroke-linejoin:round;fill-opacity:1"
       x="-59.711376"
       y="-74.875114"
       id="text3260-35-2"
       transform="scale(-1)"><tspan
         sodipodi:role="line"
         id="tspan396-9"
         x="-59.711376"
         y="-74.875114">9</tspan></text><path
       id="rect344"
       style="fill:#ffbf00;fill-opacity:1;stroke-width:0.0519999;stroke-linecap:round;stroke-linejoin:round"
       d="m 6.8307953,14.666702 c -0.6088276,1.586706 -2.3561325,3.500078 -3.6002259,4.286043 2.2198638,2e-6 2.2198632,-9.7e-5 0,4.15e-4 1.2440934,0.785964 2.9913983,2.699337 3.6002259,4.286042 0.6088278,-1.586705 2.3561319,-3.500078 3.6002257,-4.286042 v -4.15e-4 C 9.1869272,18.16678 7.4396231,16.253408 6.8307953,14.666702 Z"
       sodipodi:nodetypes="ccccccc" /><path
       id="rect344-3"
       style="fill:#ffbf00;fill-opacity:1;stroke-width:0.0519999;stroke-linecap:round;stroke-linejoin:round"
       d="m 56.16949,64.760594 c -0.608828,1.586706 -2.356133,3.500078 -3.600226,4.286043 2.219864,2e-6 2.219863,-9.7e-5 0,4.15e-4 1.244093,0.785964 2.991398,2.699337 3.600226,4.286042 0.608828,-1.586705 2.356132,-3.500078 3.600226,-4.286042 v -4.15e-4 C 58.525622,68.260672 56.778318,66.3473 56.16949,64.760594 Z"
       sodipodi:nodetypes="ccccccc" /><path
       id="rect344-2"
       style="fill:#ffbf00;fill-opacity:1;stroke-width:0.0519999;stroke-linecap:round;stroke-linejoin:round"
       d="m 19.462232,10.524587 c -1.014712,2.644509 -3.926887,5.833463 -6.000376,7.143404 3.699772,5e-6 3.699772,-1.61e-4 0,6.91e-4 2.073489,1.309941 4.985664,4.498895 6.000376,7.143405 1.014714,-2.64451 3.926886,-5.833464 6.000376,-7.143405 v -6.91e-4 c -2.07349,-1.309941 -4.985662,-4.498895 -6.000376,-7.143404 z"
       sodipodi:nodetypes="ccccccc" /><path
       id="rect344-2-0"
       style="fill:#ffbf00;fill-opacity:1;stroke-width:0.0519999;stroke-linecap:round;stroke-linejoin:round"
       d="m 43.537767,10.524587 c -1.014712,2.644509 -3.926887,5.833463 -6.000376,7.143404 3.699772,5e-6 3.699772,-1.61e-4 0,6.91e-4 2.073489,1.309941 4.985664,4.498895 6.000376,7.143405 1.014714,-2.64451 3.926886,-5.833464 6.000376,-7.143405 v -6.91e-4 c -2.07349,-1.309941 -4.985662,-4.498895 -6.000376,-7.143404 z"
       sodipodi:nodetypes="ccccccc" /><path
       id="rect344-2-9"
       style="fill:#ffbf00;fill-opacity:1;stroke-width:0.0519999;stroke-linecap:round;stroke-linejoin:round"
       d="m 43.537766,28.079029 c -1.014712,2.644509 -3.926887,5.833463 -6.000376,7.143404 3.699772,5e-6 3.699772,-1.61e-4 0,6.91e-4 2.073489,1.309941 4.985664,4.498895 6.000376,7.143405 1.014714,-2.64451 3.926886,-5.833464 6.000376,-7.143405 v -6.91e-4 c -2.07349,-1.309941 -4.985662,-4.498895 -6.000376,-7.143404 z"
       sodipodi:nodetypes="ccccccc" /><path
       id="rect344-2-3"
       style="fill:#ffbf00;fill-opacity:1;stroke-width:0.0519999;stroke-linecap:round;stroke-linejoin:round"
       d="m 19.462231,28.079029 c -1.014712,2.644509 -3.926887,5.833463 -6.000376,7.143404 3.699772,5e-6 3.699772,-1.61e-4 0,6.91e-4 2.073489,1.309941 4.985664,4.498895 6.000376,7.143405 1.014714,-2.64451 3.926886,-5.833464 6.000376,-7.143405 v -6.91e-4 c -2.07349,-1.309941 -4.985662,-4.498895 -6.000376,-7.143404 z"
       sodipodi:nodetypes="ccccccc" /><path
       id="rect344-2-6"
       style="fill:#ffbf00;fill-opacity:1;stroke-width:0.0519999;stroke-linecap:round;stroke-linejoin:round"
       d="m 31.5,37.159325 c -1.014712,2.644509 -3.926887,5.833463 -6.000376,7.143404 3.699772,5e-6 3.699772,-1.61e-4 0,6.91e-4 2.073489,1.309941 4.985664,4.498895 6.000376,7.143405 1.014714,-2.64451 3.926886,-5.833464 6.000376,-7.143405 v -6.91e-4 C 35.426886,42.992788 32.514714,39.803834 31.5,37.159325 Z"
       sodipodi:nodetypes="ccccccc" /><path
       id="rect344-2-06"
       style="fill:#ffbf00;fill-opacity:1;stroke-width:0.0519999;stroke-linecap:round;stroke-linejoin:round"
       d="m 43.537767,45.633471 c -1.014712,2.644509 -3.926887,5.833463 -6.000376,7.143404 3.699772,5e-6 3.699772,-1.61e-4 0,6.91e-4 2.073489,1.309941 4.985664,4.498895 6.000376,7.143405 1.014714,-2.64451 3.926886,-5.833464 6.000376,-7.143405 v -6.91e-4 c -2.07349,-1.309941 -4.985662,-4.498895 -6.000376,-7.143404 z"
       sodipodi:nodetypes="ccccccc" /><path
       id="rect344-2-2"
       style="fill:#ffbf00;fill-opacity:1;stroke-width:0.0519999;stroke-linecap:round;stroke-linejoin:round"
       d="m 43.537767,63.187913 c -1.014712,2.644509 -3.926887,5.833463 -6.000376,7.143404 3.699772,5e-6 3.699772,-1.61e-4 0,6.91e-4 2.073489,1.309941 4.985664,4.498895 6.000376,7.143405 1.014714,-2.64451 3.926886,-5.833464 6.000376,-7.143405 v -6.91e-4 c -2.07349,-1.309941 -4.985662,-4.498895 -6.000376,-7.143404 z"
       sodipodi:nodetypes="ccccccc" /><path
       id="rect344-2-61"
       style="fill:#ffbf00;fill-opacity:1;stroke-width:0.0519999;stroke-linecap:round;stroke-linejoin:round"
       d="m 19.462232,63.187913 c -1.014712,2.644509 -3.926887,5.833463 -6.000376,7.143404 3.699772,5e-6 3.699772,-1.61e-4 0,6.91e-4 2.073489,1.309941 4.985664,4.498895 6.000376,7.143405 1.014714,-2.64451 3.926886,-5.833464 6.000376,-7.143405 v -6.91e-4 c -2.07349,-1.309941 -4.985662,-4.498895 -6.000376,-7.143404 z"
       sodipodi:nodetypes="ccccccc" /><path
       id="rect344-2-8"
       style="fill:#ffbf00;fill-opacity:1;stroke-width:0.0519999;stroke-linecap:round;stroke-linejoin:round"
       d="m 19.462232,45.633471 c -1.014712,2.644509 -3.926887,5.833463 -6.000376,7.143404 3.699772,5e-6 3.699772,-1.61e-4 0,6.91e-4 2.073489,1.309941 4.985664,4.498895 6.000376,7.143405 1.014714,-2.64451 3.926886,-5.833464 6.000376,-7.143405 v -6.91e-4 c -2.07349,-1.309941 -4.985662,-4.498895 -6.000376,-7.143404 z"
       sodipodi:nodetypes="ccccccc" /></g></svg>
