<?xml version="1.0" encoding="UTF-8" standalone="no"?>
<!-- Created with Inkscape (http://www.inkscape.org/) -->

<svg
   width="63mm"
   height="88mm"
   viewBox="0 0 63 88"
   version="1.1"
   id="svg5"
   inkscape:version="1.2.2 (b0a8486541, 2022-12-01)"
   sodipodi:docname="9h.svg"
   xml:space="preserve"
   inkscape:export-filename="../card/9s.png"
   inkscape:export-xdpi="144"
   inkscape:export-ydpi="144"
   xmlns:inkscape="http://www.inkscape.org/namespaces/inkscape"
   xmlns:sodipodi="http://sodipodi.sourceforge.net/DTD/sodipodi-0.dtd"
   xmlns="http://www.w3.org/2000/svg"
   xmlns:svg="http://www.w3.org/2000/svg"><sodipodi:namedview
     id="namedview7"
     pagecolor="#7d7d7d"
     bordercolor="#ffffff"
     borderopacity="1"
     inkscape:showpageshadow="false"
     inkscape:pageopacity="0"
     inkscape:pagecheckerboard="true"
     inkscape:deskcolor="#505050"
     inkscape:document-units="mm"
     showgrid="false"
     showborder="true"
     borderlayer="true"
     inkscape:zoom="2.4947603"
     inkscape:cx="11.824783"
     inkscape:cy="160.33605"
     inkscape:window-width="1920"
     inkscape:window-height="1011"
     inkscape:window-x="0"
     inkscape:window-y="32"
     inkscape:window-maximized="1"
     inkscape:current-layer="layer1" /><defs
     id="defs2" /><g
     inkscape:label="Layer 1"
     inkscape:groupmode="layer"
     id="layer1"><rect
       style="fill:#f5f5ec;fill-opacity:1;stroke:none;stroke-width:1;stroke-linecap:round;stroke-linejoin:round;stroke-opacity:1"
       id="rect4722"
       width="63"
       height="88"
       x="-1.008e-08"
       y="-1.0057143e-08"
       rx="3"
       ry="3" /><text
       xml:space="preserve"
       style="font-style:normal;font-variant:normal;font-weight:bold;font-stretch:normal;font-size:14.1111px;font-family:'Ubuntu Mono';-inkscape-font-specification:'Ubuntu Mono, Bold';font-variant-ligatures:normal;font-variant-caps:normal;font-variant-numeric:normal;font-variant-east-asian:normal;fill:#ffbf00;stroke-width:1;stroke-linecap:round;stroke-linejoin:round;fill-opacity:1"
       x="3.2889087"
       y="13.12468"
       id="text3260-35"><tspan
         sodipodi:role="line"
         id="tspan396"
         x="3.2889087"
         y="13.12468">9</tspan></text><text
       xml:space="preserve"
       style="font-style:normal;font-variant:normal;font-weight:bold;font-stretch:normal;font-size:14.1111px;font-family:'Ubuntu Mono';-inkscape-font-specification:'Ubuntu Mono, Bold';font-variant-ligatures:normal;font-variant-caps:normal;font-variant-numeric:normal;font-variant-east-asian:normal;fill:#ffbf00;stroke-width:1;stroke-linecap:round;stroke-linejoin:round;fill-opacity:1"
       x="-59.711376"
       y="-74.875114"
       id="text3260-35-2"
       transform="scale(-1)"><tspan
         sodipodi:role="line"
         id="tspan396-9"
         x="-59.711376"
         y="-74.875114">9</tspan></text><path
       style="fill:#ffbf00;fill-opacity:1;stroke-width:0.052;stroke-linecap:round;stroke-linejoin:round;stroke-dasharray:none"
       d="m 47.215649,10.884952 c 1.9961,-0.02235 3.544429,1.46185 3.462782,3.791662 0.0157,1.992271 -2.149385,4.011963 -3.959776,5.59707 -1.810391,1.585106 -3.180888,4.178287 -3.180888,4.178287 0,0 -1.370496,-2.593181 -3.180889,-4.178287 -1.810391,-1.585106 -3.975475,-3.604799 -3.959775,-5.59707 -0.08165,-2.329811 1.466681,-3.81401 3.462781,-3.791661 2.227046,0.05075 3.677883,2.290001 3.677883,2.290001 0,0 1.450838,-2.239259 3.677882,-2.290002 z"
       id="path802-3"
       sodipodi:nodetypes="cczczcccc" /><path
       style="fill:#ffbf00;fill-opacity:1;stroke-width:0.052;stroke-linecap:round;stroke-linejoin:round;stroke-dasharray:none"
       d="m 47.215648,28.439394 c 1.9961,-0.02235 3.544429,1.46185 3.462783,3.791662 0.0157,1.992271 -2.149385,4.011963 -3.959777,5.59707 -1.810391,1.585106 -3.180888,4.178287 -3.180888,4.178287 0,0 -1.370496,-2.593181 -3.180889,-4.178287 -1.810391,-1.585106 -3.975475,-3.604799 -3.959775,-5.59707 -0.08165,-2.329811 1.466681,-3.81401 3.462781,-3.791661 2.227046,0.05075 3.677883,2.290001 3.677883,2.290001 0,0 1.450838,-2.239259 3.677882,-2.290002 z"
       id="path802-3-9"
       sodipodi:nodetypes="cczczcccc" /><path
       style="fill:#ffbf00;fill-opacity:1;stroke-width:0.052;stroke-linecap:round;stroke-linejoin:round;stroke-dasharray:none"
       d="m 23.140113,28.439394 c 1.9961,-0.02235 3.544429,1.46185 3.462783,3.791662 0.0157,1.992271 -2.149385,4.011963 -3.959777,5.59707 -1.810391,1.585106 -3.180888,4.178287 -3.180888,4.178287 0,0 -1.370496,-2.593181 -3.180889,-4.178287 -1.810391,-1.585106 -3.975475,-3.604799 -3.959775,-5.59707 -0.08165,-2.329811 1.466681,-3.81401 3.462781,-3.791661 2.227046,0.05075 3.677883,2.290001 3.677883,2.290001 0,0 1.450838,-2.239259 3.677882,-2.290002 z"
       id="path802-3-1"
       sodipodi:nodetypes="cczczcccc" /><path
       style="fill:#ffbf00;fill-opacity:1;stroke-width:0.052;stroke-linecap:round;stroke-linejoin:round;stroke-dasharray:none"
       d="m 35.177882,37.51969 c 1.9961,-0.02235 3.544429,1.46185 3.462783,3.791662 0.0157,1.992271 -2.149386,4.011963 -3.959777,5.59707 C 32.870497,48.493528 31.5,51.086709 31.5,51.086709 c 0,0 -1.370496,-2.593181 -3.180889,-4.178287 -1.810391,-1.585106 -3.975475,-3.604799 -3.959775,-5.59707 -0.08165,-2.329811 1.466681,-3.81401 3.462781,-3.791661 2.227046,0.05075 3.677883,2.290001 3.677883,2.290001 0,0 1.450838,-2.239259 3.677882,-2.290002 z"
       id="path802-3-27"
       sodipodi:nodetypes="cczczcccc" /><path
       style="fill:#ffbf00;fill-opacity:1;stroke-width:0.052;stroke-linecap:round;stroke-linejoin:round;stroke-dasharray:none"
       d="m 47.215649,59.560606 c 1.9961,0.02235 3.544429,-1.46185 3.462783,-3.791662 0.0157,-1.992271 -2.149385,-4.011963 -3.959777,-5.59707 -1.810391,-1.585106 -3.180888,-4.178287 -3.180888,-4.178287 0,0 -1.370496,2.593181 -3.180889,4.178287 -1.810391,1.585106 -3.975475,3.604799 -3.959775,5.59707 -0.08165,2.329811 1.466681,3.81401 3.462781,3.791661 2.227046,-0.05075 3.677883,-2.290001 3.677883,-2.290001 0,0 1.450838,2.239259 3.677882,2.290002 z"
       id="path802-3-0"
       sodipodi:nodetypes="cczczcccc" /><path
       style="fill:#ffbf00;fill-opacity:1;stroke-width:0.052;stroke-linecap:round;stroke-linejoin:round;stroke-dasharray:none"
       d="m 47.215649,77.115048 c 1.9961,0.02235 3.544429,-1.46185 3.462783,-3.791662 0.0157,-1.992271 -2.149385,-4.011963 -3.959777,-5.59707 -1.810391,-1.585106 -3.180888,-4.178287 -3.180888,-4.178287 0,0 -1.370496,2.593181 -3.180889,4.178287 -1.810391,1.585106 -3.975475,3.604799 -3.959775,5.59707 -0.08165,2.329811 1.466681,3.81401 3.462781,3.791661 2.227046,-0.05075 3.677883,-2.290001 3.677883,-2.290001 0,0 1.450838,2.239259 3.677882,2.290002 z"
       id="path802-3-0-9"
       sodipodi:nodetypes="cczczcccc" /><path
       style="fill:#ffbf00;fill-opacity:1;stroke-width:0.052;stroke-linecap:round;stroke-linejoin:round;stroke-dasharray:none"
       d="m 23.140114,59.560606 c 1.9961,0.02235 3.544429,-1.46185 3.462783,-3.791662 0.0157,-1.992271 -2.149385,-4.011963 -3.959777,-5.59707 -1.810391,-1.585106 -3.180888,-4.178287 -3.180888,-4.178287 0,0 -1.370496,2.593181 -3.180889,4.178287 -1.810391,1.585106 -3.975475,3.604799 -3.959775,5.59707 -0.08165,2.329811 1.466681,3.81401 3.462781,3.791661 2.227046,-0.05075 3.677883,-2.290001 3.677883,-2.290001 0,0 1.450838,2.239259 3.677882,2.290002 z"
       id="path802-3-0-3"
       sodipodi:nodetypes="cczczcccc" /><path
       style="fill:#ffbf00;fill-opacity:1;stroke-width:0.052;stroke-linecap:round;stroke-linejoin:round;stroke-dasharray:none"
       d="m 23.140114,77.115048 c 1.9961,0.02235 3.544429,-1.46185 3.462783,-3.791662 0.0157,-1.992271 -2.149385,-4.011963 -3.959777,-5.59707 -1.810391,-1.585106 -3.180888,-4.178287 -3.180888,-4.178287 0,0 -1.370496,2.593181 -3.180889,4.178287 -1.810391,1.585106 -3.975475,3.604799 -3.959775,5.59707 -0.08165,2.329811 1.466681,3.81401 3.462781,3.791661 2.227046,-0.05075 3.677883,-2.290001 3.677883,-2.290001 0,0 1.450838,2.239259 3.677882,2.290002 z"
       id="path802-3-0-6"
       sodipodi:nodetypes="cczczcccc" /><path
       style="fill:#ffbf00;fill-opacity:1;stroke-width:0.052;stroke-linecap:round;stroke-linejoin:round;stroke-dasharray:none"
       d="m 23.140114,10.884952 c 1.9961,-0.02235 3.544428,1.46185 3.462782,3.791662 0.0157,1.992271 -2.149385,4.011963 -3.959776,5.59707 -1.810392,1.585106 -3.180888,4.178287 -3.180888,4.178287 0,0 -1.370496,-2.593181 -3.180889,-4.178287 -1.810391,-1.585106 -3.975475,-3.604799 -3.959775,-5.59707 -0.08165,-2.329811 1.466681,-3.81401 3.462781,-3.791661 2.227045,0.05075 3.677883,2.290001 3.677883,2.290001 0,0 1.450838,-2.239259 3.677882,-2.290002 z"
       id="path802-3-2"
       sodipodi:nodetypes="cczczcccc" /><path
       style="fill:#ffbf00;fill-opacity:1;stroke-width:0.052;stroke-linecap:round;stroke-linejoin:round;stroke-dasharray:none"
       d="m 9.0375245,14.882921 c 1.1976605,-0.01341 2.1266575,0.87711 2.0776695,2.274997 0.0094,1.195362 -1.2896315,2.407178 -2.3758665,3.358242 -1.086235,0.951063 -1.908533,2.506972 -1.908533,2.506972 0,0 -0.822298,-1.555909 -1.908533,-2.506972 -1.0862349,-0.951064 -2.3852851,-2.16288 -2.3758651,-3.358242 -0.04899,-1.397887 0.8800087,-2.288406 2.0776691,-2.274997 1.336227,0.03045 2.206729,1.374001 2.206729,1.374001 0,0 0.870503,-1.343556 2.20673,-1.374001 z"
       id="path802-3-5"
       sodipodi:nodetypes="cczczcccc" /><path
       style="fill:#ffbf00;fill-opacity:1;stroke-width:0.052;stroke-linecap:round;stroke-linejoin:round;stroke-dasharray:none"
       d="m 58.37622,73.116875 c 1.19766,0.01341 2.126657,-0.87711 2.077669,-2.274997 0.0094,-1.195362 -1.289632,-2.407178 -2.375867,-3.358242 -1.086235,-0.951063 -1.908533,-2.506972 -1.908533,-2.506972 0,0 -0.822298,1.555909 -1.908533,2.506972 -1.086234,0.951064 -2.385285,2.16288 -2.375865,3.358242 -0.04899,1.397887 0.880009,2.288406 2.077669,2.274997 1.336227,-0.03045 2.206729,-1.374001 2.206729,-1.374001 0,0 0.870503,1.343556 2.206731,1.374001 z"
       id="path802-3-5-6"
       sodipodi:nodetypes="cczczcccc" /></g></svg>
