<?xml version="1.0" encoding="UTF-8" standalone="no"?>
<!-- Created with Inkscape (http://www.inkscape.org/) -->

<svg
   width="63mm"
   height="88mm"
   viewBox="0 0 63 88"
   version="1.1"
   id="svg5"
   inkscape:version="1.2.2 (b0a8486541, 2022-12-01)"
   sodipodi:docname="ac.svg"
   xml:space="preserve"
   inkscape:export-filename="../card/ac.png"
   inkscape:export-xdpi="144"
   inkscape:export-ydpi="144"
   xmlns:inkscape="http://www.inkscape.org/namespaces/inkscape"
   xmlns:sodipodi="http://sodipodi.sourceforge.net/DTD/sodipodi-0.dtd"
   xmlns="http://www.w3.org/2000/svg"
   xmlns:svg="http://www.w3.org/2000/svg"><sodipodi:namedview
     id="namedview7"
     pagecolor="#7d7d7d"
     bordercolor="#ffffff"
     borderopacity="1"
     inkscape:showpageshadow="false"
     inkscape:pageopacity="0"
     inkscape:pagecheckerboard="true"
     inkscape:deskcolor="#505050"
     inkscape:document-units="mm"
     showgrid="false"
     showborder="true"
     borderlayer="true"
     inkscape:zoom="1.3077845"
     inkscape:cx="-163.2532"
     inkscape:cy="141.46062"
     inkscape:window-width="1904"
     inkscape:window-height="995"
     inkscape:window-x="8"
     inkscape:window-y="40"
     inkscape:window-maximized="0"
     inkscape:current-layer="layer1" /><defs
     id="defs2" /><g
     inkscape:label="Layer 1"
     inkscape:groupmode="layer"
     id="layer1"><rect
       style="fill:#f5f5ec;fill-opacity:1;stroke:none;stroke-width:1;stroke-linecap:round;stroke-linejoin:round;stroke-opacity:1"
       id="rect4722"
       width="63"
       height="88"
       x="-1.008e-08"
       y="-1.0057143e-08"
       rx="3"
       ry="3" /><text
       xml:space="preserve"
       style="font-style:normal;font-variant:normal;font-weight:bold;font-stretch:normal;font-size:14.1111px;font-family:'Ubuntu Mono';-inkscape-font-specification:'Ubuntu Mono, Bold';font-variant-ligatures:normal;font-variant-caps:normal;font-variant-numeric:normal;font-variant-east-asian:normal;fill:#800080;stroke-width:1;stroke-linecap:round;stroke-linejoin:round"
       x="3.3030198"
       y="13.025902"
       id="text3260-7-7-7-7-7-5-7"><tspan
         sodipodi:role="line"
         id="tspan394-5-5-5-5-3-5"
         x="3.3030198"
         y="13.025902">A</tspan></text><text
       xml:space="preserve"
       style="font-style:normal;font-variant:normal;font-weight:bold;font-stretch:normal;font-size:14.1111px;font-family:'Ubuntu Mono';-inkscape-font-specification:'Ubuntu Mono, Bold';font-variant-ligatures:normal;font-variant-caps:normal;font-variant-numeric:normal;font-variant-east-asian:normal;fill:#800080;stroke-width:1;stroke-linecap:round;stroke-linejoin:round"
       x="-59.697266"
       y="-74.973892"
       id="text3260-7-7-7-7-7-5-7-6"
       transform="scale(-1)"><tspan
         sodipodi:role="line"
         id="tspan394-5-5-5-5-3-5-2"
         x="-59.697266"
         y="-74.973892">A</tspan></text><path
       id="path802-3"
       style="fill:#800080;fill-opacity:1;stroke-width:0.052;stroke-linecap:round;stroke-linejoin:round;stroke-dasharray:none"
       d="m 31.5,32.696285 c -2.858494,-5.9e-5 -5.175779,2.317223 -5.175719,5.175718 0.0013,1.620406 0.761456,3.146672 2.053938,4.124022 -0.64847,-0.280336 -1.347468,-0.424944 -2.053938,-0.424918 -2.858493,-5.8e-5 -5.175775,2.317223 -5.175717,5.175719 -5.8e-5,2.858494 2.317224,5.175775 5.175717,5.175716 2.05578,-2.9e-4 3.916499,-1.217262 4.740706,-3.100586 -0.188085,3.113933 -1.735947,5.576113 -3.803062,6.48176 0,0 2.775139,-1.140514 4.238075,-1.140515 1.462932,0 4.238072,1.140515 4.238072,1.140515 -2.067557,-0.90584 -3.615508,-3.368904 -3.803063,-6.483779 0.823602,1.884113 2.684451,3.101964 4.740708,3.102604 2.858495,6e-5 5.175777,-2.317221 5.175719,-5.175715 5.8e-5,-2.858497 -2.317224,-5.175779 -5.175719,-5.175719 -0.711186,0.0012 -1.414498,0.148922 -2.066047,0.434002 1.29959,-0.976756 2.064716,-2.507381 2.066047,-4.133106 5.8e-5,-2.858495 -2.317223,-5.175777 -5.175717,-5.175718 z"
       sodipodi:nodetypes="ccccccccscccccccc" /><path
       id="path802-3-3"
       style="fill:#800080;fill-opacity:1;stroke-width:0.052;stroke-linecap:round;stroke-linejoin:round;stroke-dasharray:none"
       d="m 6.8307949,14.612325 c -1.097662,-2.3e-5 -1.987499,0.889814 -1.987476,1.987476 5.03e-4,0.622236 0.2924,1.208322 0.788712,1.583624 -0.249013,-0.107649 -0.517427,-0.163178 -0.788712,-0.163168 -1.097662,-2.3e-5 -1.987498,0.889813 -1.987475,1.987476 -2.3e-5,1.097661 0.889813,1.987497 1.987475,1.987475 0.789419,-1.11e-4 1.503935,-0.46743 1.820431,-1.190625 -0.07222,1.195749 -0.666603,2.141227 -1.460375,2.488995 0,0 1.065653,-0.437957 1.62742,-0.437958 0.561766,0 1.62742,0.437958 1.62742,0.437958 -0.793942,-0.347842 -1.388355,-1.293659 -1.460376,-2.489771 0.316263,0.7235 1.030828,1.191155 1.820431,1.191401 1.097663,2.2e-5 1.9874991,-0.889814 1.9874761,-1.987476 2.3e-5,-1.097662 -0.8898131,-1.987498 -1.9874761,-1.987475 -0.273095,4.53e-4 -0.543167,0.05719 -0.793362,0.166656 0.499043,-0.375073 0.792851,-0.962834 0.793362,-1.587112 2.3e-5,-1.097662 -0.889813,-1.987499 -1.987475,-1.987476 z"
       sodipodi:nodetypes="ccccccccscccccccc" /><path
       id="path802-3-3-5"
       style="fill:#800080;fill-opacity:1;stroke-width:0.052;stroke-linecap:round;stroke-linejoin:round;stroke-dasharray:none"
       d="m 56.16949,73.387471 c -1.097662,2.3e-5 -1.987499,-0.889814 -1.987476,-1.987476 5.03e-4,-0.622236 0.2924,-1.208322 0.788712,-1.583624 -0.249013,0.107649 -0.517427,0.163178 -0.788712,0.163168 -1.097662,2.3e-5 -1.987498,-0.889813 -1.987475,-1.987476 -2.3e-5,-1.097661 0.889813,-1.987497 1.987475,-1.987475 0.789419,1.11e-4 1.503935,0.46743 1.820431,1.190625 -0.07222,-1.195749 -0.666603,-2.141227 -1.460375,-2.488995 0,0 1.065653,0.437957 1.62742,0.437958 0.561766,0 1.62742,-0.437958 1.62742,-0.437958 -0.793942,0.347842 -1.388355,1.293659 -1.460376,2.489771 0.316263,-0.7235 1.030828,-1.191155 1.820431,-1.191401 1.097663,-2.2e-5 1.987499,0.889814 1.987476,1.987476 2.3e-5,1.097662 -0.889813,1.987498 -1.987476,1.987475 -0.273095,-4.53e-4 -0.543167,-0.05719 -0.793362,-0.166656 0.499043,0.375073 0.792851,0.962834 0.793362,1.587112 2.3e-5,1.097662 -0.889813,1.987499 -1.987475,1.987476 z"
       sodipodi:nodetypes="ccccccccscccccccc" /></g></svg>
