<?xml version="1.0" encoding="UTF-8" standalone="no"?>
<!-- Created with Inkscape (http://www.inkscape.org/) -->

<svg
   width="63mm"
   height="88mm"
   viewBox="0 0 63 88"
   version="1.1"
   id="svg5"
   inkscape:version="1.2.2 (b0a8486541, 2022-12-01)"
   sodipodi:docname="ad.svg"
   xml:space="preserve"
   inkscape:export-filename="../card/ad.png"
   inkscape:export-xdpi="144"
   inkscape:export-ydpi="144"
   xmlns:inkscape="http://www.inkscape.org/namespaces/inkscape"
   xmlns:sodipodi="http://sodipodi.sourceforge.net/DTD/sodipodi-0.dtd"
   xmlns="http://www.w3.org/2000/svg"
   xmlns:svg="http://www.w3.org/2000/svg"><sodipodi:namedview
     id="namedview7"
     pagecolor="#7d7d7d"
     bordercolor="#ffffff"
     borderopacity="1"
     inkscape:showpageshadow="false"
     inkscape:pageopacity="0"
     inkscape:pagecheckerboard="true"
     inkscape:deskcolor="#505050"
     inkscape:document-units="mm"
     showgrid="false"
     showborder="true"
     borderlayer="true"
     inkscape:zoom="1.8086877"
     inkscape:cx="115.27695"
     inkscape:cy="200.69799"
     inkscape:window-width="1904"
     inkscape:window-height="995"
     inkscape:window-x="8"
     inkscape:window-y="40"
     inkscape:window-maximized="0"
     inkscape:current-layer="layer1" /><defs
     id="defs2" /><g
     inkscape:label="Layer 1"
     inkscape:groupmode="layer"
     id="layer1"><rect
       style="fill:#f5f5ec;fill-opacity:1;stroke:none;stroke-width:1;stroke-linecap:round;stroke-linejoin:round;stroke-opacity:1"
       id="rect4722"
       width="63"
       height="88"
       x="-1.008e-08"
       y="-1.0057143e-08"
       rx="3"
       ry="3" /><text
       xml:space="preserve"
       style="font-style:normal;font-variant:normal;font-weight:bold;font-stretch:normal;font-size:14.1111px;font-family:'Ubuntu Mono';-inkscape-font-specification:'Ubuntu Mono, Bold';font-variant-ligatures:normal;font-variant-caps:normal;font-variant-numeric:normal;font-variant-east-asian:normal;fill:#ffbf00;stroke-width:1;stroke-linecap:round;stroke-linejoin:round;fill-opacity:1"
       x="3.3030198"
       y="13.025902"
       id="text3260-7-7-7-7-7-5-7"><tspan
         sodipodi:role="line"
         id="tspan394-5-5-5-5-3-5"
         x="3.3030198"
         y="13.025902">A</tspan></text><text
       xml:space="preserve"
       style="font-style:normal;font-variant:normal;font-weight:bold;font-stretch:normal;font-size:14.1111px;font-family:'Ubuntu Mono';-inkscape-font-specification:'Ubuntu Mono, Bold';font-variant-ligatures:normal;font-variant-caps:normal;font-variant-numeric:normal;font-variant-east-asian:normal;fill:#ffbf00;stroke-width:1;stroke-linecap:round;stroke-linejoin:round;fill-opacity:1"
       x="-59.697266"
       y="-74.973892"
       id="text3260-7-7-7-7-7-5-7-6"
       transform="scale(-1)"><tspan
         sodipodi:role="line"
         id="tspan394-5-5-5-5-3-5-2"
         x="-59.697266"
         y="-74.973892">A</tspan></text><path
       id="rect344"
       style="fill:#ffbf00;fill-opacity:1;stroke-width:0.0519999;stroke-linecap:round;stroke-linejoin:round"
       d="m 6.8307949,14.666702 c -0.608827,1.586705 -2.356132,3.500077 -3.600226,4.286042 2.219864,3e-6 2.219864,-9.7e-5 0,4.15e-4 1.244094,0.785965 2.991399,2.699337 3.600226,4.286043 0.608828,-1.586706 2.356132,-3.500078 3.6002261,-4.286043 v -4.15e-4 C 9.1869269,18.166779 7.4396229,16.253407 6.8307949,14.666702 Z"
       sodipodi:nodetypes="ccccccc" /><path
       id="rect344-3"
       style="fill:#ffbf00;fill-opacity:1;stroke-width:0.0519999;stroke-linecap:round;stroke-linejoin:round"
       d="m 56.16949,64.760594 c -0.608827,1.586705 -2.356132,3.500077 -3.600226,4.286042 2.219864,3e-6 2.219864,-9.7e-5 0,4.15e-4 1.244094,0.785965 2.991399,2.699337 3.600226,4.286043 0.608828,-1.586706 2.356132,-3.500078 3.600226,-4.286043 v -4.15e-4 C 58.525622,68.260671 56.778318,66.347299 56.16949,64.760594 Z"
       sodipodi:nodetypes="ccccccc" /><path
       id="rect344-5"
       style="fill:#ffbf00;fill-opacity:1;stroke-width:0.0519999;stroke-linecap:round;stroke-linejoin:round"
       d="m 31.499998,32.83788 c -1.585487,4.132045 -6.13576,9.114787 -9.375587,11.161569 5.780896,8e-6 5.780896,-2.52e-4 0,0.0011 3.239827,2.046784 7.7901,7.029524 9.375587,11.161571 1.585492,-4.132047 6.135761,-9.114787 9.37559,-11.161571 v -0.0011 C 37.635759,41.952666 33.08549,36.969925 31.499998,32.83788 Z"
       sodipodi:nodetypes="ccccccc" /></g></svg>
