<?xml version="1.0" encoding="UTF-8" standalone="no"?>
<!-- Created with Inkscape (http://www.inkscape.org/) -->

<svg
   width="63mm"
   height="88mm"
   viewBox="0 0 63 88"
   version="1.1"
   id="svg5"
   inkscape:version="1.2.2 (b0a8486541, 2022-12-01)"
   sodipodi:docname="ah.svg"
   xml:space="preserve"
   inkscape:export-filename="../card/ah.png"
   inkscape:export-xdpi="144"
   inkscape:export-ydpi="144"
   xmlns:inkscape="http://www.inkscape.org/namespaces/inkscape"
   xmlns:sodipodi="http://sodipodi.sourceforge.net/DTD/sodipodi-0.dtd"
   xmlns="http://www.w3.org/2000/svg"
   xmlns:svg="http://www.w3.org/2000/svg"><sodipodi:namedview
     id="namedview7"
     pagecolor="#7d7d7d"
     bordercolor="#ffffff"
     borderopacity="1"
     inkscape:showpageshadow="false"
     inkscape:pageopacity="0"
     inkscape:pagecheckerboard="true"
     inkscape:deskcolor="#505050"
     inkscape:document-units="mm"
     showgrid="false"
     showborder="true"
     borderlayer="true"
     inkscape:zoom="6.8691286"
     inkscape:cx="100.52221"
     inkscape:cy="173.23886"
     inkscape:window-width="1920"
     inkscape:window-height="1011"
     inkscape:window-x="0"
     inkscape:window-y="32"
     inkscape:window-maximized="1"
     inkscape:current-layer="layer1" /><defs
     id="defs2" /><g
     inkscape:label="Layer 1"
     inkscape:groupmode="layer"
     id="layer1"><rect
       style="fill:#f5f5ec;fill-opacity:1;stroke:none;stroke-width:1;stroke-linecap:round;stroke-linejoin:round;stroke-opacity:1"
       id="rect4722"
       width="63"
       height="88"
       x="-1.008e-08"
       y="-1.0057143e-08"
       rx="3"
       ry="3" /><text
       xml:space="preserve"
       style="font-style:normal;font-variant:normal;font-weight:bold;font-stretch:normal;font-size:14.1111px;font-family:'Ubuntu Mono';-inkscape-font-specification:'Ubuntu Mono, Bold';font-variant-ligatures:normal;font-variant-caps:normal;font-variant-numeric:normal;font-variant-east-asian:normal;fill:#ffbf00;stroke-width:1;stroke-linecap:round;stroke-linejoin:round;fill-opacity:1"
       x="3.3030198"
       y="13.025902"
       id="text3260-7-7-7-7-7-5-7"><tspan
         sodipodi:role="line"
         id="tspan394-5-5-5-5-3-5"
         x="3.3030198"
         y="13.025902">A</tspan></text><text
       xml:space="preserve"
       style="font-style:normal;font-variant:normal;font-weight:bold;font-stretch:normal;font-size:14.1111px;font-family:'Ubuntu Mono';-inkscape-font-specification:'Ubuntu Mono, Bold';font-variant-ligatures:normal;font-variant-caps:normal;font-variant-numeric:normal;font-variant-east-asian:normal;fill:#ffbf00;stroke-width:1;stroke-linecap:round;stroke-linejoin:round;fill-opacity:1"
       x="-59.697266"
       y="-74.973892"
       id="text3260-7-7-7-7-7-5-7-6"
       transform="scale(-1)"><tspan
         sodipodi:role="line"
         id="tspan394-5-5-5-5-3-5-2"
         x="-59.697266"
         y="-74.973892">A</tspan></text><path
       style="fill:#ffbf00;fill-opacity:1;stroke-width:0.052;stroke-linecap:round;stroke-linejoin:round;stroke-dasharray:none"
       d="m 37.246689,33.400961 c 3.118906,-0.03493 5.538171,2.284143 5.410599,5.924474 0.02454,3.11292 -3.358414,6.268691 -6.18715,8.74542 -2.828738,2.476729 -4.970139,6.528573 -4.970139,6.528573 0,0 -2.1414,-4.051844 -4.970139,-6.528573 -2.828737,-2.476729 -6.211679,-5.6325 -6.187148,-8.74542 -0.127578,-3.640331 2.291688,-5.959394 5.410594,-5.924474 3.479758,0.0793 5.746693,3.578127 5.746693,3.578127 0,0 2.266936,-3.498839 5.74669,-3.578127 z"
       id="path802-2"
       sodipodi:nodetypes="cczczcccc" /><path
       style="fill:#ffbf00;fill-opacity:1;stroke-width:0.052;stroke-linecap:round;stroke-linejoin:round;stroke-dasharray:none"
       d="m 9.037524,14.882921 c 1.19766,-0.01341 2.126657,0.877111 2.077669,2.274997 0.0094,1.195362 -1.289631,2.407179 -2.375866,3.358242 -1.086234,0.951064 -1.908533,2.506972 -1.908533,2.506972 0,0 -0.822298,-1.555908 -1.908533,-2.506972 -1.086235,-0.951063 -2.385284,-2.16288 -2.375864,-3.358242 -0.04899,-1.397886 0.880008,-2.288406 2.077668,-2.274997 1.336227,0.03045 2.206729,1.374001 2.206729,1.374001 0,0 0.870503,-1.343555 2.20673,-1.374001 z"
       id="path802-2-9"
       sodipodi:nodetypes="cczczcccc" /><path
       style="fill:#ffbf00;fill-opacity:1;stroke-width:0.052;stroke-linecap:round;stroke-linejoin:round;stroke-dasharray:none"
       d="m 58.37622,73.116875 c 1.19766,0.01341 2.126657,-0.877111 2.077669,-2.274997 0.0094,-1.195362 -1.289631,-2.407179 -2.375866,-3.358242 -1.086234,-0.951064 -1.908533,-2.506972 -1.908533,-2.506972 0,0 -0.822298,1.555908 -1.908533,2.506972 -1.086236,0.951063 -2.385285,2.16288 -2.375865,3.358242 -0.04899,1.397886 0.880008,2.288406 2.077669,2.274997 1.336227,-0.03045 2.206729,-1.374001 2.206729,-1.374001 0,0 0.870503,1.343555 2.20673,1.374001 z"
       id="path802-2-9-1"
       sodipodi:nodetypes="cczczcccc" /></g></svg>
