<?xml version="1.0" encoding="UTF-8" standalone="no"?>
<!-- Created with Inkscape (http://www.inkscape.org/) -->

<svg
   width="63mm"
   height="88mm"
   viewBox="0 0 63 88"
   version="1.1"
   id="svg5"
   inkscape:version="1.2.2 (b0a8486541, 2022-12-01)"
   sodipodi:docname="as.svg"
   xml:space="preserve"
   inkscape:export-filename="../card/as.png"
   inkscape:export-xdpi="144"
   inkscape:export-ydpi="144"
   xmlns:inkscape="http://www.inkscape.org/namespaces/inkscape"
   xmlns:sodipodi="http://sodipodi.sourceforge.net/DTD/sodipodi-0.dtd"
   xmlns="http://www.w3.org/2000/svg"
   xmlns:svg="http://www.w3.org/2000/svg"><sodipodi:namedview
     id="namedview7"
     pagecolor="#7d7d7d"
     bordercolor="#ffffff"
     borderopacity="1"
     inkscape:showpageshadow="false"
     inkscape:pageopacity="0"
     inkscape:pagecheckerboard="true"
     inkscape:deskcolor="#505050"
     inkscape:document-units="mm"
     showgrid="false"
     showborder="true"
     borderlayer="true"
     inkscape:zoom="2.145604"
     inkscape:cx="-38.916781"
     inkscape:cy="160.32781"
     inkscape:window-width="948"
     inkscape:window-height="995"
     inkscape:window-x="964"
     inkscape:window-y="40"
     inkscape:window-maximized="0"
     inkscape:current-layer="layer1" /><defs
     id="defs2" /><g
     inkscape:label="Layer 1"
     inkscape:groupmode="layer"
     id="layer1"><rect
       style="fill:#f5f5ec;fill-opacity:1;stroke:none;stroke-width:1;stroke-linecap:round;stroke-linejoin:round;stroke-opacity:1"
       id="rect4722"
       width="63"
       height="88"
       x="-1.008e-08"
       y="-1.0057143e-08"
       rx="3"
       ry="3" /><path
       style="fill:#800080;fill-opacity:1;stroke-width:0.052;stroke-linecap:round;stroke-linejoin:round;stroke-dasharray:none"
       d="m 27.261999,55.162111 c 2.088426,-0.914987 3.647409,-3.418995 3.809015,-6.578512 0,0 -1.49519,2.180289 -4.448813,2.247585 -2.647333,0.02965 -4.700807,-1.938783 -4.592525,-5.028702 -0.02082,-2.642252 2.850628,-5.320876 5.251663,-7.423127 C 29.682376,36.277104 31.5,32.837889 31.5,32.837889 c 0,0 1.817625,3.439213 4.218664,5.541466 2.401035,2.102251 5.272482,4.780875 5.25166,7.423127 0.108275,3.089919 -1.94519,5.058343 -4.592521,5.028702 -2.953625,-0.0673 -4.448817,-2.247585 -4.448817,-2.247585 0.161602,3.159514 1.720588,5.663525 3.809017,6.578509 0,0 -2.775065,-1.140603 -4.238003,-1.140603 -1.462936,1e-6 -4.238001,1.140606 -4.238001,1.140606 z"
       id="path802"
       sodipodi:nodetypes="cccczczcccczc" /><path
       style="fill:#800080;fill-opacity:1;stroke-width:0.052;stroke-linecap:round;stroke-linejoin:round;stroke-dasharray:none"
       d="m 5.2034019,23.239202 c 0.801956,-0.351355 1.400606,-1.312894 1.462662,-2.526149 0,0 -0.574153,0.837231 -1.708344,0.863073 -1.016576,0.01139 -1.80511,-0.744492 -1.763529,-1.931021 -0.008,-1.014625 1.09464,-2.043217 2.016639,-2.850481 0.921998,-0.807265 1.619965,-2.127923 1.619965,-2.127923 0,0 0.697968,1.320658 1.619967,2.127923 0.921997,0.807264 2.0246331,1.835856 2.0166371,2.850481 0.04158,1.186529 -0.7469521,1.942403 -1.7635281,1.931021 -1.134192,-0.02585 -1.708345,-0.863073 -1.708345,-0.863073 0.06206,1.213254 0.660705,2.174794 1.462662,2.526148 0,0 -1.065625,-0.437992 -1.627393,-0.437992 -0.561767,1e-6 -1.627393,0.437993 -1.627393,0.437993 z"
       id="path802-61"
       sodipodi:nodetypes="cccczczcccczc" /><text
       xml:space="preserve"
       style="font-style:normal;font-variant:normal;font-weight:bold;font-stretch:normal;font-size:14.1111px;font-family:'Ubuntu Mono';-inkscape-font-specification:'Ubuntu Mono, Bold';font-variant-ligatures:normal;font-variant-caps:normal;font-variant-numeric:normal;font-variant-east-asian:normal;fill:#800080;stroke-width:1;stroke-linecap:round;stroke-linejoin:round"
       x="3.3030198"
       y="13.025902"
       id="text3260-7-7-7-7-7-5-7"><tspan
         sodipodi:role="line"
         id="tspan394-5-5-5-5-3-5"
         x="3.3030198"
         y="13.025902">A</tspan></text><text
       xml:space="preserve"
       style="font-style:normal;font-variant:normal;font-weight:bold;font-stretch:normal;font-size:14.1111px;font-family:'Ubuntu Mono';-inkscape-font-specification:'Ubuntu Mono, Bold';font-variant-ligatures:normal;font-variant-caps:normal;font-variant-numeric:normal;font-variant-east-asian:normal;fill:#800080;stroke-width:1;stroke-linecap:round;stroke-linejoin:round"
       x="-59.697266"
       y="-74.973892"
       id="text3260-7-7-7-7-7-5-7-6"
       transform="scale(-1)"><tspan
         sodipodi:role="line"
         id="tspan394-5-5-5-5-3-5-2"
         x="-59.697266"
         y="-74.973892">A</tspan></text><path
       style="fill:#800080;fill-opacity:1;stroke-width:0.052;stroke-linecap:round;stroke-linejoin:round;stroke-dasharray:none"
       d="m 54.542097,64.760594 c 0.801956,0.351355 1.400606,1.312894 1.462662,2.526149 0,0 -0.574153,-0.837231 -1.708344,-0.863073 -1.016576,-0.01139 -1.80511,0.744492 -1.763529,1.931021 -0.008,1.014625 1.09464,2.043217 2.016639,2.850481 0.921998,0.807265 1.619965,2.127923 1.619965,2.127923 0,0 0.697968,-1.320658 1.619967,-2.127923 0.921997,-0.807264 2.024633,-1.835856 2.016637,-2.850481 0.04158,-1.186529 -0.746952,-1.942403 -1.763528,-1.931021 -1.134192,0.02585 -1.708345,0.863073 -1.708345,0.863073 0.06206,-1.213254 0.660705,-2.174794 1.462662,-2.526148 0,0 -1.065625,0.437992 -1.627393,0.437992 -0.561767,-10e-7 -1.627393,-0.437993 -1.627393,-0.437993 z"
       id="path802-61-4"
       sodipodi:nodetypes="cccczczcccczc" /></g></svg>
