<?xml version="1.0" encoding="UTF-8" standalone="no"?>
<!-- Created with Inkscape (http://www.inkscape.org/) -->

<svg
   width="63mm"
   height="88mm"
   viewBox="0 0 63 88"
   version="1.1"
   id="svg5"
   inkscape:version="1.2.2 (b0a8486541, 2022-12-01)"
   sodipodi:docname="tc.svg"
   xml:space="preserve"
   inkscape:export-filename="../card/ts.png"
   inkscape:export-xdpi="144"
   inkscape:export-ydpi="144"
   xmlns:inkscape="http://www.inkscape.org/namespaces/inkscape"
   xmlns:sodipodi="http://sodipodi.sourceforge.net/DTD/sodipodi-0.dtd"
   xmlns="http://www.w3.org/2000/svg"
   xmlns:svg="http://www.w3.org/2000/svg"><sodipodi:namedview
     id="namedview7"
     pagecolor="#7d7d7d"
     bordercolor="#ffffff"
     borderopacity="1"
     inkscape:showpageshadow="false"
     inkscape:pageopacity="0"
     inkscape:pagecheckerboard="true"
     inkscape:deskcolor="#505050"
     inkscape:document-units="mm"
     showgrid="false"
     showborder="true"
     borderlayer="true"
     inkscape:zoom="3.2411628"
     inkscape:cx="81.297985"
     inkscape:cy="136.98788"
     inkscape:window-width="1920"
     inkscape:window-height="1011"
     inkscape:window-x="0"
     inkscape:window-y="32"
     inkscape:window-maximized="1"
     inkscape:current-layer="layer1" /><defs
     id="defs2" /><g
     inkscape:label="Layer 1"
     inkscape:groupmode="layer"
     id="layer1"><rect
       style="fill:#f5f5ec;fill-opacity:1;stroke:none;stroke-width:1;stroke-linecap:round;stroke-linejoin:round;stroke-opacity:1"
       id="rect4722"
       width="63"
       height="88"
       x="-1.008e-08"
       y="-1.0057143e-08"
       rx="3"
       ry="3" /><text
       xml:space="preserve"
       style="font-style:normal;font-variant:normal;font-weight:bold;font-stretch:normal;font-size:14.1111px;font-family:'Ubuntu Mono';-inkscape-font-specification:'Ubuntu Mono, Bold';font-variant-ligatures:normal;font-variant-caps:normal;font-variant-numeric:normal;font-variant-east-asian:normal;fill:#800080;stroke-width:1;stroke-linecap:round;stroke-linejoin:round"
       x="3.3030198"
       y="13.025902"
       id="text3260"><tspan
         sodipodi:role="line"
         id="tspan3258"
         style="font-style:normal;font-variant:normal;font-weight:bold;font-stretch:normal;font-size:14.1111px;font-family:'Ubuntu Mono';-inkscape-font-specification:'Ubuntu Mono, Bold';font-variant-ligatures:normal;font-variant-caps:normal;font-variant-numeric:normal;font-variant-east-asian:normal;stroke-width:1"
         x="3.3030198"
         y="13.025902">T</tspan></text><text
       xml:space="preserve"
       style="font-style:normal;font-variant:normal;font-weight:bold;font-stretch:normal;font-size:14.1111px;font-family:'Ubuntu Mono';-inkscape-font-specification:'Ubuntu Mono, Bold';font-variant-ligatures:normal;font-variant-caps:normal;font-variant-numeric:normal;font-variant-east-asian:normal;fill:#800080;stroke-width:1;stroke-linecap:round;stroke-linejoin:round"
       x="52.641716"
       y="-74.973892"
       id="text3260-3"
       transform="scale(1,-1)"><tspan
         sodipodi:role="line"
         id="tspan3258-3"
         style="font-style:normal;font-variant:normal;font-weight:bold;font-stretch:normal;font-size:14.1111px;font-family:'Ubuntu Mono';-inkscape-font-specification:'Ubuntu Mono, Bold';font-variant-ligatures:normal;font-variant-caps:normal;font-variant-numeric:normal;font-variant-east-asian:normal;stroke-width:1"
         x="52.641716"
         y="-74.973892">T</tspan></text><path
       id="path802-3"
       style="fill:#800080;fill-opacity:1;stroke-width:0.052;stroke-linecap:round;stroke-linejoin:round;stroke-dasharray:none"
       d="m 19.462232,10.433959 c -1.829438,-3.7e-5 -3.312498,1.483024 -3.31246,3.31246 8.39e-4,1.03706 0.487331,2.01387 1.314519,2.639374 -0.41502,-0.179415 -0.862378,-0.271964 -1.314519,-0.271947 -1.829436,-3.8e-5 -3.312498,1.483022 -3.312459,3.31246 -3.9e-5,1.829436 1.483023,3.312496 3.312459,3.312458 1.315699,-1.85e-4 2.506557,-0.779048 3.034052,-1.984375 -0.120375,1.992917 -1.111007,3.568712 -2.43396,4.148327 0,0 1.776089,-0.729929 2.712368,-0.729931 0.936277,0 2.712366,0.729931 2.712366,0.729931 -1.323236,-0.579738 -2.313926,-2.156099 -2.43396,-4.149618 0.527104,1.205831 1.718048,1.985256 3.034053,1.985666 1.829437,3.8e-5 3.312497,-1.483022 3.31246,-3.312459 3.7e-5,-1.829437 -1.483023,-3.312497 -3.31246,-3.31246 -0.455159,7.57e-4 -0.905279,0.09531 -1.322272,0.277762 0.831739,-0.625123 1.32142,-1.604724 1.322272,-2.645188 3.7e-5,-1.829436 -1.483023,-3.312497 -3.312459,-3.31246 z"
       sodipodi:nodetypes="ccccccccscccccccc" /><path
       id="path802-3-6"
       style="fill:#800080;fill-opacity:1;stroke-width:0.052;stroke-linecap:round;stroke-linejoin:round;stroke-dasharray:none"
       d="m 31.499999,19.21118 c -1.829438,-3.7e-5 -3.312498,1.483024 -3.31246,3.31246 8.39e-4,1.03706 0.487331,2.01387 1.314519,2.639374 -0.41502,-0.179415 -0.862378,-0.271964 -1.314519,-0.271947 -1.829436,-3.8e-5 -3.312498,1.483022 -3.312459,3.31246 -3.9e-5,1.829436 1.483023,3.312496 3.312459,3.312458 1.315699,-1.85e-4 2.506557,-0.779048 3.034052,-1.984375 -0.120375,1.992917 -1.111007,3.568712 -2.43396,4.148327 0,0 1.776089,-0.729929 2.712368,-0.729931 0.936277,0 2.712366,0.729931 2.712366,0.729931 -1.323236,-0.579738 -2.313926,-2.156099 -2.43396,-4.149618 0.527104,1.205831 1.718048,1.985256 3.034053,1.985666 1.829437,3.8e-5 3.312497,-1.483022 3.31246,-3.312459 3.7e-5,-1.829437 -1.483023,-3.312497 -3.31246,-3.31246 -0.455159,7.57e-4 -0.905279,0.09531 -1.322272,0.277762 0.831739,-0.625123 1.32142,-1.604724 1.322272,-2.645188 3.7e-5,-1.829436 -1.483023,-3.312497 -3.312459,-3.31246 z"
       sodipodi:nodetypes="ccccccccscccccccc" /><path
       id="path802-3-2"
       style="fill:#800080;fill-opacity:1;stroke-width:0.052;stroke-linecap:round;stroke-linejoin:round;stroke-dasharray:none"
       d="m 43.537767,10.433959 c -1.829438,-3.7e-5 -3.312498,1.483024 -3.31246,3.31246 8.39e-4,1.03706 0.487331,2.01387 1.314519,2.639374 -0.41502,-0.179415 -0.862378,-0.271964 -1.314519,-0.271947 -1.829436,-3.8e-5 -3.312498,1.483022 -3.312459,3.31246 -3.9e-5,1.829436 1.483023,3.312496 3.312459,3.312458 1.315699,-1.85e-4 2.506557,-0.779048 3.034052,-1.984375 -0.120375,1.992917 -1.111007,3.568712 -2.43396,4.148327 0,0 1.776089,-0.729929 2.712368,-0.729931 0.936277,0 2.712366,0.729931 2.712366,0.729931 -1.323236,-0.579738 -2.313926,-2.156099 -2.43396,-4.149618 0.527104,1.205831 1.718048,1.985256 3.034053,1.985666 1.829437,3.8e-5 3.312497,-1.483022 3.31246,-3.312459 3.7e-5,-1.829437 -1.483023,-3.312497 -3.31246,-3.31246 -0.455159,7.57e-4 -0.905279,0.09531 -1.322272,0.277762 0.831739,-0.625123 1.32142,-1.604724 1.322272,-2.645188 3.7e-5,-1.829436 -1.483023,-3.312497 -3.312459,-3.31246 z"
       sodipodi:nodetypes="ccccccccscccccccc" /><path
       id="path802-3-9"
       style="fill:#800080;fill-opacity:1;stroke-width:0.052;stroke-linecap:round;stroke-linejoin:round;stroke-dasharray:none"
       d="m 43.537766,27.988401 c -1.829438,-3.7e-5 -3.312498,1.483024 -3.31246,3.31246 8.39e-4,1.03706 0.487331,2.01387 1.314519,2.639374 -0.41502,-0.179415 -0.862378,-0.271964 -1.314519,-0.271947 -1.829436,-3.8e-5 -3.312498,1.483022 -3.312459,3.31246 -3.9e-5,1.829436 1.483023,3.312496 3.312459,3.312458 1.315699,-1.85e-4 2.506557,-0.779048 3.034052,-1.984375 -0.120375,1.992917 -1.111007,3.568712 -2.43396,4.148327 0,0 1.776089,-0.729929 2.712368,-0.729931 0.936277,0 2.712366,0.729931 2.712366,0.729931 -1.323236,-0.579738 -2.313926,-2.156099 -2.43396,-4.149618 0.527104,1.205831 1.718048,1.985256 3.034053,1.985666 1.829437,3.8e-5 3.312497,-1.483022 3.31246,-3.312459 3.7e-5,-1.829437 -1.483023,-3.312497 -3.31246,-3.31246 -0.455159,7.57e-4 -0.905279,0.09531 -1.322272,0.277762 0.831739,-0.625123 1.32142,-1.604724 1.322272,-2.645188 3.7e-5,-1.829436 -1.483023,-3.312497 -3.312459,-3.31246 z"
       sodipodi:nodetypes="ccccccccscccccccc" /><path
       id="path802-3-1"
       style="fill:#800080;fill-opacity:1;stroke-width:0.052;stroke-linecap:round;stroke-linejoin:round;stroke-dasharray:none"
       d="m 19.462231,27.988401 c -1.829438,-3.7e-5 -3.312498,1.483024 -3.31246,3.31246 8.39e-4,1.03706 0.487331,2.01387 1.314519,2.639374 -0.41502,-0.179415 -0.862378,-0.271964 -1.314519,-0.271947 -1.829436,-3.8e-5 -3.312498,1.483022 -3.312459,3.31246 -3.9e-5,1.829436 1.483023,3.312496 3.312459,3.312458 1.315699,-1.85e-4 2.506557,-0.779048 3.034052,-1.984375 -0.120375,1.992917 -1.111007,3.568712 -2.43396,4.148327 0,0 1.776089,-0.729929 2.712368,-0.729931 0.936277,0 2.712366,0.729931 2.712366,0.729931 -1.323236,-0.579738 -2.313926,-2.156099 -2.43396,-4.149618 0.527104,1.205831 1.718048,1.985256 3.034053,1.985666 1.829437,3.8e-5 3.312497,-1.483022 3.31246,-3.312459 3.7e-5,-1.829437 -1.483023,-3.312497 -3.31246,-3.31246 -0.455159,7.57e-4 -0.905279,0.09531 -1.322272,0.277762 0.831739,-0.625123 1.32142,-1.604724 1.322272,-2.645188 3.7e-5,-1.829436 -1.483023,-3.312497 -3.312459,-3.31246 z"
       sodipodi:nodetypes="ccccccccscccccccc" /><path
       id="path802-3-27"
       style="fill:#800080;fill-opacity:1;stroke-width:0.052;stroke-linecap:round;stroke-linejoin:round;stroke-dasharray:none"
       d="m 31.499998,68.78882 c -1.829438,3.7e-5 -3.312498,-1.483024 -3.31246,-3.31246 8.39e-4,-1.03706 0.487331,-2.01387 1.314519,-2.639374 -0.41502,0.179415 -0.862378,0.271964 -1.314519,0.271947 -1.829436,3.8e-5 -3.312498,-1.483022 -3.312459,-3.31246 -3.9e-5,-1.829436 1.483023,-3.312496 3.312459,-3.312458 1.315699,1.85e-4 2.506557,0.779048 3.034052,1.984375 -0.120375,-1.992917 -1.111007,-3.568712 -2.43396,-4.148327 0,0 1.776089,0.729929 2.712368,0.729931 0.936277,0 2.712366,-0.729931 2.712366,-0.729931 -1.323236,0.579738 -2.313926,2.156099 -2.43396,4.149618 0.527104,-1.205831 1.718048,-1.985256 3.034053,-1.985666 1.829437,-3.8e-5 3.312497,1.483022 3.31246,3.312459 3.7e-5,1.829437 -1.483023,3.312497 -3.31246,3.31246 -0.455159,-7.57e-4 -0.905279,-0.09531 -1.322272,-0.277762 0.831739,0.625123 1.32142,1.604724 1.322272,2.645188 3.7e-5,1.829436 -1.483023,3.312497 -3.312459,3.31246 z"
       sodipodi:nodetypes="ccccccccscccccccc" /><path
       id="path802-3-27-0"
       style="fill:#800080;fill-opacity:1;stroke-width:0.052;stroke-linecap:round;stroke-linejoin:round;stroke-dasharray:none"
       d="m 43.537767,60.011599 c -1.829438,3.7e-5 -3.312498,-1.483024 -3.31246,-3.31246 8.39e-4,-1.03706 0.487331,-2.01387 1.314519,-2.639374 -0.41502,0.179415 -0.862378,0.271964 -1.314519,0.271947 -1.829436,3.8e-5 -3.312498,-1.483022 -3.312459,-3.31246 -3.9e-5,-1.829436 1.483023,-3.312496 3.312459,-3.312458 1.315699,1.85e-4 2.506557,0.779048 3.034052,1.984375 -0.120375,-1.992917 -1.111007,-3.568712 -2.43396,-4.148327 0,0 1.776089,0.729929 2.712368,0.729931 0.936277,0 2.712366,-0.729931 2.712366,-0.729931 -1.323236,0.579738 -2.313926,2.156099 -2.43396,4.149618 0.527104,-1.205831 1.718048,-1.985256 3.034053,-1.985666 1.829437,-3.8e-5 3.312497,1.483022 3.31246,3.312459 3.7e-5,1.829437 -1.483023,3.312497 -3.31246,3.31246 -0.455159,-7.57e-4 -0.905279,-0.09531 -1.322272,-0.277762 0.831739,0.625123 1.32142,1.604724 1.322272,2.645188 3.7e-5,1.829436 -1.483023,3.312497 -3.312459,3.31246 z"
       sodipodi:nodetypes="ccccccccscccccccc" /><path
       id="path802-3-27-9"
       style="fill:#800080;fill-opacity:1;stroke-width:0.052;stroke-linecap:round;stroke-linejoin:round;stroke-dasharray:none"
       d="m 19.462232,60.011599 c -1.829438,3.7e-5 -3.312498,-1.483024 -3.31246,-3.31246 8.39e-4,-1.03706 0.487331,-2.01387 1.314519,-2.639374 -0.41502,0.179415 -0.862378,0.271964 -1.314519,0.271947 -1.829436,3.8e-5 -3.312498,-1.483022 -3.312459,-3.31246 -3.9e-5,-1.829436 1.483023,-3.312496 3.312459,-3.312458 1.315699,1.85e-4 2.506557,0.779048 3.034052,1.984375 -0.120375,-1.992917 -1.111007,-3.568712 -2.43396,-4.148327 0,0 1.776089,0.729929 2.712368,0.729931 0.936277,0 2.712366,-0.729931 2.712366,-0.729931 -1.323236,0.579738 -2.313926,2.156099 -2.43396,4.149618 0.527104,-1.205831 1.718048,-1.985256 3.034053,-1.985666 1.829437,-3.8e-5 3.312497,1.483022 3.31246,3.312459 3.7e-5,1.829437 -1.483023,3.312497 -3.31246,3.31246 -0.455159,-7.57e-4 -0.905279,-0.09531 -1.322272,-0.277762 0.831739,0.625123 1.32142,1.604724 1.322272,2.645188 3.7e-5,1.829436 -1.483023,3.312497 -3.312459,3.31246 z"
       sodipodi:nodetypes="ccccccccscccccccc" /><path
       id="path802-3-27-3"
       style="fill:#800080;fill-opacity:1;stroke-width:0.052;stroke-linecap:round;stroke-linejoin:round;stroke-dasharray:none"
       d="m 19.462232,77.566041 c -1.829438,3.7e-5 -3.312498,-1.483024 -3.31246,-3.31246 8.39e-4,-1.03706 0.487331,-2.01387 1.314519,-2.639374 -0.41502,0.179415 -0.862378,0.271964 -1.314519,0.271947 -1.829436,3.8e-5 -3.312498,-1.483022 -3.312459,-3.31246 -3.9e-5,-1.829436 1.483023,-3.312496 3.312459,-3.312458 1.315699,1.85e-4 2.506557,0.779048 3.034052,1.984375 -0.120375,-1.992917 -1.111007,-3.568712 -2.43396,-4.148327 0,0 1.776089,0.729929 2.712368,0.729931 0.936277,0 2.712366,-0.729931 2.712366,-0.729931 -1.323236,0.579738 -2.313926,2.156099 -2.43396,4.149618 0.527104,-1.205831 1.718048,-1.985256 3.034053,-1.985666 1.829437,-3.8e-5 3.312497,1.483022 3.31246,3.312459 3.7e-5,1.829437 -1.483023,3.312497 -3.31246,3.31246 -0.455159,-7.57e-4 -0.905279,-0.09531 -1.322272,-0.277762 0.831739,0.625123 1.32142,1.604724 1.322272,2.645188 3.7e-5,1.829436 -1.483023,3.312497 -3.312459,3.31246 z"
       sodipodi:nodetypes="ccccccccscccccccc" /><path
       id="path802-3-27-6"
       style="fill:#800080;fill-opacity:1;stroke-width:0.052;stroke-linecap:round;stroke-linejoin:round;stroke-dasharray:none"
       d="m 43.537767,77.566041 c -1.829438,3.7e-5 -3.312498,-1.483024 -3.31246,-3.31246 8.39e-4,-1.03706 0.487331,-2.01387 1.314519,-2.639374 -0.41502,0.179415 -0.862378,0.271964 -1.314519,0.271947 -1.829436,3.8e-5 -3.312498,-1.483022 -3.312459,-3.31246 -3.9e-5,-1.829436 1.483023,-3.312496 3.312459,-3.312458 1.315699,1.85e-4 2.506557,0.779048 3.034052,1.984375 -0.120375,-1.992917 -1.111007,-3.568712 -2.43396,-4.148327 0,0 1.776089,0.729929 2.712368,0.729931 0.936277,0 2.712366,-0.729931 2.712366,-0.729931 -1.323236,0.579738 -2.313926,2.156099 -2.43396,4.149618 0.527104,-1.205831 1.718048,-1.985256 3.034053,-1.985666 1.829437,-3.8e-5 3.312497,1.483022 3.31246,3.312459 3.7e-5,1.829437 -1.483023,3.312497 -3.31246,3.31246 -0.455159,-7.57e-4 -0.905279,-0.09531 -1.322272,-0.277762 0.831739,0.625123 1.32142,1.604724 1.322272,2.645188 3.7e-5,1.829436 -1.483023,3.312497 -3.312459,3.31246 z"
       sodipodi:nodetypes="ccccccccscccccccc" /><path
       id="path802-3-3"
       style="fill:#800080;fill-opacity:1;stroke-width:0.052;stroke-linecap:round;stroke-linejoin:round;stroke-dasharray:none"
       d="m 6.8307944,14.612325 c -1.097662,-2.3e-5 -1.987498,0.889814 -1.987476,1.987476 5.03e-4,0.622236 0.292399,1.208322 0.788711,1.583624 -0.249012,-0.107649 -0.517426,-0.163178 -0.788711,-0.163168 -1.097661,-2.3e-5 -1.987498,0.889813 -1.987475,1.987476 -2.3e-5,1.097661 0.889814,1.987498 1.987475,1.987475 0.789419,-1.11e-4 1.503935,-0.467429 1.820432,-1.190625 -0.07223,1.19575 -0.666605,2.141227 -1.460376,2.488996 0,0 1.065653,-0.437957 1.62742,-0.437958 0.561767,0 1.62742,0.437958 1.62742,0.437958 -0.793942,-0.347843 -1.388356,-1.293659 -1.460376,-2.489771 0.316262,0.723499 1.030828,1.191154 1.820432,1.1914 1.097662,2.3e-5 1.9874976,-0.889814 1.9874756,-1.987475 2.2e-5,-1.097663 -0.8898136,-1.987499 -1.9874756,-1.987476 -0.273096,4.54e-4 -0.543168,0.05719 -0.793363,0.166656 0.499043,-0.375073 0.792852,-0.962834 0.793363,-1.587112 2.2e-5,-1.097662 -0.889814,-1.987498 -1.987476,-1.987476 z"
       sodipodi:nodetypes="ccccccccscccccccc" /><path
       id="path802-3-5"
       style="fill:#800080;fill-opacity:1;stroke-width:0.052;stroke-linecap:round;stroke-linejoin:round;stroke-dasharray:none"
       d="m 56.16949,73.387471 c -1.097662,2.2e-5 -1.987498,-0.889814 -1.987476,-1.987476 5.04e-4,-0.622236 0.292399,-1.208322 0.788712,-1.583624 -0.249012,0.107649 -0.517427,0.163178 -0.788712,0.163168 -1.097661,2.3e-5 -1.987498,-0.889813 -1.987475,-1.987476 -2.3e-5,-1.097662 0.889814,-1.987497 1.987476,-1.987475 0.789419,1.11e-4 1.503934,0.467429 1.820431,1.190625 -0.07222,-1.19575 -0.666605,-2.141227 -1.460376,-2.488996 0,0 1.065653,0.437957 1.627421,0.437958 0.561766,0 1.627419,-0.437958 1.627419,-0.437958 -0.793941,0.347843 -1.388355,1.293659 -1.460376,2.489771 0.316263,-0.723499 1.030829,-1.191154 1.820432,-1.1914 1.097662,-2.2e-5 1.987498,0.889813 1.987476,1.987475 2.2e-5,1.097663 -0.889814,1.987499 -1.987476,1.987476 -0.273096,-4.53e-4 -0.543167,-0.05719 -0.793363,-0.166657 0.499043,0.375074 0.792852,0.962835 0.793363,1.587113 2.2e-5,1.097662 -0.889814,1.987498 -1.987476,1.987476 z"
       sodipodi:nodetypes="ccccccccscccccccc" /></g></svg>
