<?xml version="1.0" encoding="UTF-8" standalone="no"?>
<!-- Created with Inkscape (http://www.inkscape.org/) -->

<svg
   width="63mm"
   height="88mm"
   viewBox="0 0 63 88"
   version="1.1"
   id="svg5"
   inkscape:version="1.2.2 (b0a8486541, 2022-12-01)"
   sodipodi:docname="td.svg"
   xml:space="preserve"
   inkscape:export-filename="../card/th.png"
   inkscape:export-xdpi="144"
   inkscape:export-ydpi="144"
   xmlns:inkscape="http://www.inkscape.org/namespaces/inkscape"
   xmlns:sodipodi="http://sodipodi.sourceforge.net/DTD/sodipodi-0.dtd"
   xmlns="http://www.w3.org/2000/svg"
   xmlns:svg="http://www.w3.org/2000/svg"><sodipodi:namedview
     id="namedview7"
     pagecolor="#7d7d7d"
     bordercolor="#ffffff"
     borderopacity="1"
     inkscape:showpageshadow="false"
     inkscape:pageopacity="0"
     inkscape:pagecheckerboard="true"
     inkscape:deskcolor="#505050"
     inkscape:document-units="mm"
     showgrid="false"
     showborder="true"
     borderlayer="true"
     inkscape:zoom="3.3797723"
     inkscape:cx="133.58888"
     inkscape:cy="146.16369"
     inkscape:window-width="1920"
     inkscape:window-height="1011"
     inkscape:window-x="0"
     inkscape:window-y="32"
     inkscape:window-maximized="1"
     inkscape:current-layer="layer1" /><defs
     id="defs2" /><g
     inkscape:label="Layer 1"
     inkscape:groupmode="layer"
     id="layer1"><rect
       style="fill:#f5f5ec;fill-opacity:1;stroke:none;stroke-width:1;stroke-linecap:round;stroke-linejoin:round;stroke-opacity:1"
       id="rect4722"
       width="63"
       height="88"
       x="-1.008e-08"
       y="-1.0057143e-08"
       rx="3"
       ry="3" /><text
       xml:space="preserve"
       style="font-style:normal;font-variant:normal;font-weight:bold;font-stretch:normal;font-size:14.1111px;font-family:'Ubuntu Mono';-inkscape-font-specification:'Ubuntu Mono, Bold';font-variant-ligatures:normal;font-variant-caps:normal;font-variant-numeric:normal;font-variant-east-asian:normal;fill:#ffbf00;stroke-width:1;stroke-linecap:round;stroke-linejoin:round;fill-opacity:1"
       x="3.3030198"
       y="13.025902"
       id="text3260"><tspan
         sodipodi:role="line"
         id="tspan3258"
         style="font-style:normal;font-variant:normal;font-weight:bold;font-stretch:normal;font-size:14.1111px;font-family:'Ubuntu Mono';-inkscape-font-specification:'Ubuntu Mono, Bold';font-variant-ligatures:normal;font-variant-caps:normal;font-variant-numeric:normal;font-variant-east-asian:normal;stroke-width:1;fill:#ffbf00;fill-opacity:1"
         x="3.3030198"
         y="13.025902">T</tspan></text><text
       xml:space="preserve"
       style="font-style:normal;font-variant:normal;font-weight:bold;font-stretch:normal;font-size:14.1111px;font-family:'Ubuntu Mono';-inkscape-font-specification:'Ubuntu Mono, Bold';font-variant-ligatures:normal;font-variant-caps:normal;font-variant-numeric:normal;font-variant-east-asian:normal;fill:#ffbf00;stroke-width:1;stroke-linecap:round;stroke-linejoin:round;fill-opacity:1"
       x="52.641716"
       y="-74.973892"
       id="text3260-3"
       transform="scale(1,-1)"><tspan
         sodipodi:role="line"
         id="tspan3258-3"
         style="font-style:normal;font-variant:normal;font-weight:bold;font-stretch:normal;font-size:14.1111px;font-family:'Ubuntu Mono';-inkscape-font-specification:'Ubuntu Mono, Bold';font-variant-ligatures:normal;font-variant-caps:normal;font-variant-numeric:normal;font-variant-east-asian:normal;stroke-width:1;fill:#ffbf00;fill-opacity:1"
         x="52.641716"
         y="-74.973892">T</tspan></text><path
       id="rect344"
       style="fill:#ffbf00;fill-opacity:1;stroke-width:0.0519999;stroke-linecap:round;stroke-linejoin:round"
       d="m 43.537768,28.079029 c -1.014713,2.644509 -3.926888,5.833462 -6.000377,7.143404 3.699773,5e-6 3.699772,-1.62e-4 0,6.91e-4 2.073489,1.309941 4.985664,4.498895 6.000377,7.143405 1.014712,-2.64451 3.926886,-5.833464 6.000376,-7.143405 v -6.91e-4 c -2.07349,-1.309942 -4.985664,-4.498895 -6.000376,-7.143404 z"
       sodipodi:nodetypes="ccccccc" /><path
       id="rect344-6"
       style="fill:#ffbf00;fill-opacity:1;stroke-width:0.0519999;stroke-linecap:round;stroke-linejoin:round"
       d="m 43.537768,10.524587 c -1.014713,2.644509 -3.926888,5.833462 -6.000377,7.143404 3.699773,5e-6 3.699772,-1.62e-4 0,6.91e-4 2.073489,1.309941 4.985664,4.498895 6.000377,7.143405 1.014712,-2.64451 3.926886,-5.833464 6.000376,-7.143405 v -6.91e-4 c -2.07349,-1.309942 -4.985664,-4.498895 -6.000376,-7.143404 z"
       sodipodi:nodetypes="ccccccc" /><path
       id="rect344-2"
       style="fill:#ffbf00;fill-opacity:1;stroke-width:0.0519999;stroke-linecap:round;stroke-linejoin:round"
       d="m 31.5,19.301808 c -1.014713,2.644509 -3.926888,5.833462 -6.000377,7.143404 3.699773,5e-6 3.699772,-1.62e-4 0,6.91e-4 2.073489,1.309941 4.985664,4.498895 6.000377,7.143405 1.014712,-2.64451 3.926886,-5.833464 6.000376,-7.143405 v -6.91e-4 C 35.426886,25.13527 32.514712,21.946317 31.5,19.301808 Z"
       sodipodi:nodetypes="ccccccc" /><path
       id="rect344-9"
       style="fill:#ffbf00;fill-opacity:1;stroke-width:0.0519999;stroke-linecap:round;stroke-linejoin:round"
       d="m 19.462233,10.524587 c -1.014713,2.644509 -3.926888,5.833462 -6.000377,7.143404 3.699773,5e-6 3.699772,-1.62e-4 0,6.91e-4 2.073489,1.309941 4.985664,4.498895 6.000377,7.143405 1.014712,-2.64451 3.926886,-5.833464 6.000376,-7.143405 v -6.91e-4 c -2.07349,-1.309942 -4.985664,-4.498895 -6.000376,-7.143404 z"
       sodipodi:nodetypes="ccccccc" /><path
       id="rect344-1"
       style="fill:#ffbf00;fill-opacity:1;stroke-width:0.0519999;stroke-linecap:round;stroke-linejoin:round"
       d="m 19.462233,28.079029 c -1.014713,2.644509 -3.926888,5.833462 -6.000377,7.143404 3.699773,5e-6 3.699772,-1.62e-4 0,6.91e-4 2.073489,1.309941 4.985664,4.498895 6.000377,7.143405 1.014712,-2.64451 3.926886,-5.833464 6.000376,-7.143405 v -6.91e-4 c -2.07349,-1.309942 -4.985664,-4.498895 -6.000376,-7.143404 z"
       sodipodi:nodetypes="ccccccc" /><path
       id="rect344-27"
       style="fill:#ffbf00;fill-opacity:1;stroke-width:0.0519999;stroke-linecap:round;stroke-linejoin:round"
       d="m 19.462233,45.633471 c -1.014713,2.644509 -3.926888,5.833462 -6.000377,7.143404 3.699773,5e-6 3.699772,-1.62e-4 0,6.91e-4 2.073489,1.309941 4.985664,4.498895 6.000377,7.143405 1.014712,-2.64451 3.926886,-5.833464 6.000376,-7.143405 v -6.91e-4 c -2.07349,-1.309942 -4.985664,-4.498895 -6.000376,-7.143404 z"
       sodipodi:nodetypes="ccccccc" /><path
       id="rect344-0"
       style="fill:#ffbf00;fill-opacity:1;stroke-width:0.0519999;stroke-linecap:round;stroke-linejoin:round"
       d="m 43.537768,45.633471 c -1.014713,2.644509 -3.926888,5.833462 -6.000377,7.143404 3.699773,5e-6 3.699772,-1.62e-4 0,6.91e-4 2.073489,1.309941 4.985664,4.498895 6.000377,7.143405 1.014712,-2.64451 3.926886,-5.833464 6.000376,-7.143405 v -6.91e-4 C 47.464654,51.466933 44.55248,48.27798 43.537768,45.633471 Z"
       sodipodi:nodetypes="ccccccc" /><path
       id="rect344-93"
       style="fill:#ffbf00;fill-opacity:1;stroke-width:0.0519999;stroke-linecap:round;stroke-linejoin:round"
       d="m 43.537768,63.187913 c -1.014713,2.644509 -3.926888,5.833462 -6.000377,7.143404 3.699773,5e-6 3.699772,-1.62e-4 0,6.91e-4 2.073489,1.309941 4.985664,4.498895 6.000377,7.143405 1.014712,-2.64451 3.926886,-5.833464 6.000376,-7.143405 v -6.91e-4 c -2.07349,-1.309942 -4.985664,-4.498895 -6.000376,-7.143404 z"
       sodipodi:nodetypes="ccccccc" /><path
       id="rect344-60"
       style="fill:#ffbf00;fill-opacity:1;stroke-width:0.0519999;stroke-linecap:round;stroke-linejoin:round"
       d="m 31.499999,54.410692 c -1.014713,2.644509 -3.926888,5.833462 -6.000377,7.143404 3.699773,5e-6 3.699772,-1.62e-4 0,6.91e-4 2.073489,1.309941 4.985664,4.498895 6.000377,7.143405 1.014712,-2.64451 3.926886,-5.833464 6.000376,-7.143405 v -6.91e-4 c -2.07349,-1.309942 -4.985664,-4.498895 -6.000376,-7.143404 z"
       sodipodi:nodetypes="ccccccc" /><path
       id="rect344-62"
       style="fill:#ffbf00;fill-opacity:1;stroke-width:0.0519999;stroke-linecap:round;stroke-linejoin:round"
       d="m 19.462233,63.187913 c -1.014713,2.644509 -3.926888,5.833462 -6.000377,7.143404 3.699773,5e-6 3.699772,-1.62e-4 0,6.91e-4 2.073489,1.309941 4.985664,4.498895 6.000377,7.143405 1.014712,-2.64451 3.926886,-5.833464 6.000376,-7.143405 v -6.91e-4 c -2.07349,-1.309942 -4.985664,-4.498895 -6.000376,-7.143404 z"
       sodipodi:nodetypes="ccccccc" /><path
       id="rect344-3"
       style="fill:#ffbf00;fill-opacity:1;stroke-width:0.0519999;stroke-linecap:round;stroke-linejoin:round"
       d="m 6.8307948,14.666702 c -0.608828,1.586705 -2.356132,3.500077 -3.600226,4.286042 2.219864,3e-6 2.219863,-9.7e-5 0,4.15e-4 1.244094,0.785965 2.991398,2.699337 3.600226,4.286043 0.608827,-1.586706 2.356132,-3.500078 3.6002262,-4.286043 v -4.15e-4 C 9.1869268,18.166779 7.4396218,16.253407 6.8307948,14.666702 Z"
       sodipodi:nodetypes="ccccccc" /><path
       id="rect344-5"
       style="fill:#ffbf00;fill-opacity:1;stroke-width:0.0519999;stroke-linecap:round;stroke-linejoin:round"
       d="m 56.169489,64.760594 c -0.608827,1.586705 -2.356132,3.500077 -3.600225,4.286042 2.219863,3e-6 2.219862,-9.7e-5 0,4.15e-4 1.244093,0.785965 2.991398,2.699337 3.600225,4.286043 0.608828,-1.586706 2.356132,-3.500078 3.600226,-4.286043 v -4.15e-4 c -1.244094,-0.785965 -2.991398,-2.699337 -3.600226,-4.286042 z"
       sodipodi:nodetypes="ccccccc" /></g></svg>
